  0
SECTION
  2
HEADER
  9
$ACADVER
  1
AC1015
  9
$ACADMAINTVER
 70
     6
  9
$DWGCODEPAGE
  3
ANSI_936
  9
$INSBASE
 10
0.0
 20
0.0
 30
0.0
  9
$EXTMIN
 10
0.0
 20
0.0
 30
0.0
  9
$EXTMAX
 10
210.0
 20
297.0
 30
0.0
  9
$LIMMIN
 10
0.0
 20
0.0
  9
$LIMMAX
 10
210.0
 20
297.0
  9
$ORTHOMODE
 70
     0
  9
$REGENMODE
 70
     1
  9
$FILLMODE
 70
     1
  9
$QTEXTMODE
 70
     0
  9
$MIRRTEXT
 70
     1
  9
$LTSCALE
 40
1.0
  9
$ATTMODE
 70
     1
  9
$TEXTSIZE
 40
3.5
  9
$TRACEWID
 40
1.0
  9
$TEXTSTYLE
  7
Standard
  9
$CLAYER
  8
0
  9
$CELTYPE
  6
ByLayer
  9
$CECOLOR
 62
   256
  9
$CELTSCALE
 40
1.0
  9
$DISPSILH
 70
     0
  9
$DIMSCALE
 40
1.0
  9
$DIMASZ
 40
3.556
  9
$DIMEXO
 40
1.0
  9
$DIMDLI
 40
3.75
  9
$DIMRND
 40
0.0
  9
$DIMDLE
 40
0.0
  9
$DIMEXE
 40
1.0
  9
$DIMTP
 40
0.0
  9
$DIMTM
 40
0.0
  9
$DIMTXT
 40
3.5
  9
$DIMCEN
 40
2.5
  9
$DIMTSZ
 40
0.0
  9
$DIMTOL
 70
     0
  9
$DIMLIM
 70
     0
  9
$DIMTIH
 70
     1
  9
$DIMTOH
 70
     1
  9
$DIMSE1
 70
     0
  9
$DIMSE2
 70
     0
  9
$DIMTAD
 70
     1
  9
$DIMZIN
 70
     0
  9
$DIMBLK
  1

  9
$DIMASO
 70
     1
  9
$DIMSHO
 70
     1
  9
$DIMPOST
  1

  9
$DIMAPOST
  1

  9
$DIMALT
 70
     0
  9
$DIMALTD
 70
     3
  9
$DIMALTF
 40
0.0393700787
  9
$DIMLFAC
 40
0.2
  9
$DIMTOFL
 70
     1
  9
$DIMTVP
 40
0.0
  9
$DIMTIX
 70
     0
  9
$DIMSOXD
 70
     0
  9
$DIMSAH
 70
     0
  9
$DIMBLK1
  1

  9
$DIMBLK2
  1

  9
$DIMSTYLE
  2
ISO-25
  9
$DIMCLRD
 70
     0
  9
$DIMCLRE
 70
     0
  9
$DIMCLRT
 70
     0
  9
$DIMTFAC
 40
1.0
  9
$DIMGAP
 40
1.524
  9
$DIMJUST
 70
     0
  9
$DIMSD1
 70
     0
  9
$DIMSD2
 70
     0
  9
$DIMTOLJ
 70
     0
  9
$DIMTZIN
 70
     0
  9
$DIMALTZ
 70
     0
  9
$DIMALTTZ
 70
     0
  9
$DIMUPT
 70
     0
  9
$DIMDEC
 70
     2
  9
$DIMTDEC
 70
     2
  9
$DIMALTU
 70
     2
  9
$DIMALTTD
 70
     3
  9
$DIMTXSTY
  7
Standard
  9
$DIMAUNIT
 70
     0
  9
$DIMADEC
 70
     2
  9
$DIMALTRND
 40
0.0
  9
$DIMAZIN
 70
     0
  9
$DIMDSEP
 70
    44
  9
$DIMATFIT
 70
     3
  9
$DIMFRAC
 70
     0
  9
$DIMLDRBLK
  1

  9
$DIMLUNIT
 70
     2
  9
$DIMLWD
 70
    -2
  9
$DIMLWE
 70
    -2
  9
$DIMTMOVE
 70
     0
  9
$LUNITS
 70
     2
  9
$LUPREC
 70
     2
  9
$SKETCHINC
 40
1.0
  9
$FILLETRAD
 40
10.0
  9
$AUNITS
 70
     0
  9
$AUPREC
 70
     2
  9
$MENU
  1
.
  9
$ELEVATION
 40
0.0
  9
$PELEVATION
 40
0.0
  9
$THICKNESS
 40
0.0
  9
$LIMCHECK
 70
     0
  9
$CHAMFERA
 40
0.0
  9
$CHAMFERB
 40
0.0
  9
$CHAMFERC
 40
0.0
  9
$CHAMFERD
 40
0.0
  9
$SKPOLY
 70
     0
  9
$TDCREATE
 40
2456990.875019132
  9
$TDUCREATE
 40
2456990.541685799
  9
$TDUPDATE
 40
2456990.875021366
  9
$TDUUPDATE
 40
2456990.541688032
  9
$TDINDWG
 40
0.0000000116
  9
$TDUSRTIMER
 40
0.0000000116
  9
$USRTIMER
 70
     1
  9
$ANGBASE
 50
0.0
  9
$ANGDIR
 70
     0
  9
$PDMODE
 70
     0
  9
$PDSIZE
 40
-1.0
  9
$PLINEWID
 40
0.0
  9
$SPLFRAME
 70
     0
  9
$SPLINETYPE
 70
     6
  9
$SPLINESEGS
 70
     8
  9
$HANDSEED
  5
2C7
  9
$SURFTAB1
 70
     6
  9
$SURFTAB2
 70
     6
  9
$SURFTYPE
 70
     6
  9
$SURFU
 70
     6
  9
$SURFV
 70
     6
  9
$UCSBASE
  2

  9
$UCSNAME
  2

  9
$UCSORG
 10
0.0
 20
0.0
 30
0.0
  9
$UCSXDIR
 10
1.0
 20
0.0
 30
0.0
  9
$UCSYDIR
 10
0.0
 20
1.0
 30
0.0
  9
$UCSORTHOREF
  2

  9
$UCSORTHOVIEW
 70
     0
  9
$UCSORGTOP
 10
0.0
 20
0.0
 30
0.0
  9
$UCSORGBOTTOM
 10
0.0
 20
0.0
 30
0.0
  9
$UCSORGLEFT
 10
0.0
 20
0.0
 30
0.0
  9
$UCSORGRIGHT
 10
0.0
 20
0.0
 30
0.0
  9
$UCSORGFRONT
 10
0.0
 20
0.0
 30
0.0
  9
$UCSORGBACK
 10
0.0
 20
0.0
 30
0.0
  9
$PUCSBASE
  2

  9
$PUCSNAME
  2

  9
$PUCSORG
 10
0.0
 20
0.0
 30
0.0
  9
$PUCSXDIR
 10
1.0
 20
0.0
 30
0.0
  9
$PUCSYDIR
 10
0.0
 20
1.0
 30
0.0
  9
$PUCSORTHOREF
  2

  9
$PUCSORTHOVIEW
 70
     0
  9
$PUCSORGTOP
 10
0.0
 20
0.0
 30
0.0
  9
$PUCSORGBOTTOM
 10
0.0
 20
0.0
 30
0.0
  9
$PUCSORGLEFT
 10
0.0
 20
0.0
 30
0.0
  9
$PUCSORGRIGHT
 10
0.0
 20
0.0
 30
0.0
  9
$PUCSORGFRONT
 10
0.0
 20
0.0
 30
0.0
  9
$PUCSORGBACK
 10
0.0
 20
0.0
 30
0.0
  9
$USERI1
 70
     0
  9
$USERI2
 70
     0
  9
$USERI3
 70
     0
  9
$USERI4
 70
     0
  9
$USERI5
 70
     0
  9
$USERR1
 40
0.0
  9
$USERR2
 40
0.0
  9
$USERR3
 40
0.0
  9
$USERR4
 40
0.0
  9
$USERR5
 40
0.0
  9
$WORLDVIEW
 70
     1
  9
$SHADEDGE
 70
     3
  9
$SHADEDIF
 70
    70
  9
$TILEMODE
 70
     1
  9
$MAXACTVP
 70
    64
  9
$PINSBASE
 10
0.0
 20
0.0
 30
0.0
  9
$PLIMCHECK
 70
     0
  9
$PEXTMIN
 10
1.0000000000E+20
 20
1.0000000000E+20
 30
1.0000000000E+20
  9
$PEXTMAX
 10
-1.0000000000E+20
 20
-1.0000000000E+20
 30
-1.0000000000E+20
  9
$PLIMMIN
 10
0.0
 20
0.0
  9
$PLIMMAX
 10
420.0
 20
297.0
  9
$UNITMODE
 70
     0
  9
$VISRETAIN
 70
     1
  9
$PLINEGEN
 70
     0
  9
$PSLTSCALE
 70
     1
  9
$TREEDEPTH
 70
  3020
  9
$CMLSTYLE
  2
Standard
  9
$CMLJUST
 70
     0
  9
$CMLSCALE
 40
20.0
  9
$PROXYGRAPHICS
 70
     1
  9
$MEASUREMENT
 70
     1
  9
$CELWEIGHT
370
    -1
  9
$ENDCAPS
280
     0
  9
$JOINSTYLE
280
     0
  9
$LWDISPLAY
290
     1
  9
$INSUNITS
 70
     4
  9
$HYPERLINKBASE
  1

  9
$STYLESHEET
  1

  9
$XEDIT
290
     1
  9
$CEPSNTYPE
380
     0
  9
$PSTYLEMODE
290
     1
  9
$FINGERPRINTGUID
  2
{8E521102-918B-47FB-8025-E9A926ACCF83}
  9
$VERSIONGUID
  2
{FAEB1C32-E019-11D5-929B-00C0DF256EC4}
  9
$EXTNAMES
290
     1
  9
$PSVPSCALE
 40
0.0
  9
$OLESTARTUP
290
     0
  0
ENDSEC
  0
SECTION
  2
CLASSES
  0
CLASS
  1
ACDBDICTIONARYWDFLT
  2
AcDbDictionaryWithDefault
  3
ObjectDBX Classes
 90
        0
280
     0
281
     0
  0
CLASS
  1
VISUALSTYLE
  2
AcDbVisualStyle
  3
ObjectDBX Classes
 90
     4095
280
     0
281
     0
  0
CLASS
  1
MATERIAL
  2
AcDbMaterial
  3
ObjectDBX Classes
 90
     1153
280
     0
281
     0
  0
CLASS
  1
SCALE
  2
AcDbScale
  3
ObjectDBX Classes
 90
     1153
280
     0
281
     0
  0
CLASS
  1
SUN
  2
AcDbSun
  3
SCENEOE
 90
     1153
280
     0
281
     0
  0
CLASS
  1
ACDBPLACEHOLDER
  2
AcDbPlaceHolder
  3
ObjectDBX Classes
 90
        0
280
     0
281
     0
  0
CLASS
  1
LAYOUT
  2
AcDbLayout
  3
ObjectDBX Classes
 90
        0
280
     0
281
     0
  0
ENDSEC
  0
SECTION
  2
TABLES
  0
TABLE
  2
VPORT
  5
8
330
0
100
AcDbSymbolTable
 70
     1
  0
VPORT
  5
29
330
8
100
AcDbSymbolTableRecord
100
AcDbViewportTableRecord
  2
*Active
 70
     0
 10
0.0
 20
0.0
 11
1.0
 21
1.0
 12
105.0
 22
148.5
 13
0.0
 23
0.0
 14
10.0
 24
10.0
 15
10.0
 25
10.0
 16
0.0
 26
0.0
 36
1.0
 17
0.0
 27
0.0
 37
0.0
 40
297.0
 41
0.7070707071
 42
50.0
 43
0.0
 44
0.0
 50
0.0
 51
0.0
 71
     0
 72
  2000
 73
     1
 74
     3
 75
     0
 76
     0
 77
     0
 78
     0
281
     0
 65
     1
110
0.0
120
0.0
130
0.0
111
1.0
121
0.0
131
0.0
112
0.0
122
1.0
132
0.0
 79
     0
146
0.0
  0
ENDTAB
  0
TABLE
  2
LTYPE
  5
5
330
0
100
AcDbSymbolTable
 70
     6
  0
LTYPE
  5
14
330
5
100
AcDbSymbolTableRecord
100
AcDbLinetypeTableRecord
  2
ByBlock
 70
     0
  3

 72
    65
 73
     0
 40
0.0
  0
LTYPE
  5
15
330
5
100
AcDbSymbolTableRecord
100
AcDbLinetypeTableRecord
  2
ByLayer
 70
     0
  3

 72
    65
 73
     0
 40
0.0
  0
LTYPE
  5
16
330
5
100
AcDbSymbolTableRecord
100
AcDbLinetypeTableRecord
  2
Continuous
 70
     0
  3
Solid line
 72
    65
 73
     0
 40
0.0
  0
LTYPE
  5
6A
330
5
100
AcDbSymbolTableRecord
100
AcDbLinetypeTableRecord
  2
HIDDEN
 70
     0
  3
Hidden __ __ __ __ __ __ __ __ __ __ __ __ __ __
 72
    65
 73
     2
 40
1.905
 49
1.27
 74
     0
 49
-0.635
 74
     0
  0
LTYPE
  5
6B
330
5
100
AcDbSymbolTableRecord
100
AcDbLinetypeTableRecord
  2
PHANTOM
 70
     0
  3
Phantom ______  __  __  ______  __  __  ______
 72
    65
 73
     6
 40
12.7
 49
6.35
 74
     0
 49
-1.27
 74
     0
 49
1.27
 74
     0
 49
-1.27
 74
     0
 49
1.27
 74
     0
 49
-1.27
 74
     0
  0
LTYPE
  5
6C
330
5
100
AcDbSymbolTableRecord
100
AcDbLinetypeTableRecord
  2
CENTER
 70
     0
  3
Center ____ _ ____ _ ____ _ ____ _ ____ _ ____
 72
    65
 73
     4
 40
10.16
 49
6.35
 74
     0
 49
-1.27
 74
     0
 49
1.27
 74
     0
 49
-1.27
 74
     0
  0
LTYPE
  5
6D
330
5
100
AcDbSymbolTableRecord
100
AcDbLinetypeTableRecord
  2
CENTERX2
 70
     0
  3
Center (2x) ________  __  ________  __  _____
 72
    65
 73
     4
 40
20.32
 49
12.7
 74
     0
 49
-2.54
 74
     0
 49
2.54
 74
     0
 49
-2.54
 74
     0
  0
LTYPE
  5
6E
330
5
100
AcDbSymbolTableRecord
100
AcDbLinetypeTableRecord
  2
DOT2
 70
     0
  3
Dot (.5x) ........................................
 72
    65
 73
     2
 40
0.635
 49
0.0
 74
     0
 49
-0.635
 74
     0
  0
ENDTAB
  0
TABLE
  2
LAYER
  5
2
330
0
100
AcDbSymbolTable
 70
     2
  0
LAYER
  5
10
330
2
100
AcDbSymbolTableRecord
100
AcDbLayerTableRecord
  2
0
 70
     0
 62
     7
  6
Continuous
370
    -3
390
F
  0
LAYER
  5
6F
330
2
100
AcDbSymbolTableRecord
100
AcDbLayerTableRecord
  2
FORMAT
 70
     0
 62
     7
  6
Continuous
370
    -3
390
F
  0
ENDTAB
  0
TABLE
  2
STYLE
  5
3
330
0
100
AcDbSymbolTable
 70
     1
  0
STYLE
  5
11
330
3
100
AcDbSymbolTableRecord
100
AcDbTextStyleTableRecord
  2
Standard
 70
     0
 40
0.0
 41
1.0
 50
0.0
 71
     0
 42
3.5
  3
txt
  4

  0
ENDTAB
  0
TABLE
  2
VIEW
  5
6
330
0
100
AcDbSymbolTable
 70
     0
  0
ENDTAB
  0
TABLE
  2
UCS
  5
7
330
0
100
AcDbSymbolTable
 70
     0
  0
ENDTAB
  0
TABLE
  2
APPID
  5
9
330
0
100
AcDbSymbolTable
 70
     1
  0
APPID
  5
12
330
9
100
AcDbSymbolTableRecord
100
AcDbRegAppTableRecord
  2
ACAD
 70
     0
  0
ENDTAB
  0
TABLE
  2
DIMSTYLE
  5
A
330
0
100
AcDbSymbolTable
 70
     1
100
AcDbDimStyleTable
  0
DIMSTYLE
105
27
330
A
100
AcDbSymbolTableRecord
100
AcDbDimStyleTableRecord
  2
ISO-25
 70
     0
 41
2.5
 42
0.625
 43
3.75
 44
1.25
 73
     0
 74
     0
 77
     1
 78
     8
140
2.5
141
2.5
143
0.0393700787
147
0.625
171
     3
172
     1
178
     0
271
     2
272
     2
274
     3
278
    44
283
     0
284
     8
340
11
  0
ENDTAB
  0
TABLE
  2
BLOCK_RECORD
  5
1
330
0
100
AcDbSymbolTable
 70
     1
  0
BLOCK_RECORD
  5
1F
330
1
100
AcDbSymbolTableRecord
100
AcDbBlockTableRecord
  2
*Model_Space
340
22
  0
BLOCK_RECORD
  5
1B
330
1
100
AcDbSymbolTableRecord
100
AcDbBlockTableRecord
  2
*Paper_Space
340
1E
  0
BLOCK_RECORD
  5
23
330
1
100
AcDbSymbolTableRecord
100
AcDbBlockTableRecord
  2
*Paper_Space0
340
26
  0
ENDTAB
  0
ENDSEC
  0
SECTION
  2
BLOCKS
  0
BLOCK
  5
20
330
1F
100
AcDbEntity
  8
0
100
AcDbBlockBegin
  2
*Model_Space
 70
     0
 10
0.0
 20
0.0
 30
0.0
  3
*Model_Space
  1
*Model_Space
  0
ENDBLK
  5
21
330
1F
100
AcDbEntity
  8
0
100
AcDbBlockEnd
  0
BLOCK
  5
1C
330
1B
100
AcDbEntity
 67
     1
  8
0
100
AcDbBlockBegin
  2
*Paper_Space
 70
     0
 10
0.0
 20
0.0
 30
0.0
  3
*Paper_Space
  1
*Paper_Space
  0
ENDBLK
  5
1D
330
1B
100
AcDbEntity
 67
     1
  8
0
100
AcDbBlockEnd
  0
BLOCK
  5
24
330
23
100
AcDbEntity
  8
0
100
AcDbBlockBegin
  2
*Paper_Space0
 70
     0
 10
0.0
 20
0.0
 30
0.0
  3
*Paper_Space0
  1
*Paper_Space0
  0
ENDBLK
  5
25
330
23
100
AcDbEntity
  8
0
100
AcDbBlockEnd
  0
ENDSEC
  0
SECTION
  2
ENTITIES
  0
LINE
  5
70
330
1F
100
AcDbEntity
  8
0
  6
Continuous
 62
   144
370
     0
100
AcDbLine
 10
107.4724333632
 20
193.3028556821
 30
0.0
 11
107.4727915032
 21
193.2906890821
 31
0.0
  0
SPLINE
  5
71
330
1F
100
AcDbEntity
  8
0
  6
Continuous
 62
     7
370
    15
100
AcDbSpline
210
0.0
220
0.0
230
1.0
 70
    11
 71
     3
 72
    39
 73
    35
 74
     0
 42
0.000000001
 43
0.00000001
 40
0.0
 40
0.0
 40
0.0
 40
0.0
 40
0.0300067804557863
 40
0.0600013329985918
 40
0.0924884792948078
 40
0.1249993461167742
 40
0.1574865030904866
 40
0.1899973805975555
 40
0.2199866237841168
 40
0.2499993509177129
 40
0.2799886004095312
 40
0.3100013326918975
 40
0.3424884789888034
 40
0.3749993458100501
 40
0.4074865027851068
 40
0.4399973802908873
 40
0.4699866234803558
 40
0.499999350611055
 40
0.5299886001058611
 40
0.5600013323852331
 40
0.5924884786838984
 40
0.6249993455033408
 40
0.6574865024781356
 40
0.6899973799841361
 40
0.7199866231724661
 40
0.7499993503043064
 40
0.7799885997971603
 40
0.8100013320784527
 40
0.8424884783753596
 40
0.8749993451966057
 40
0.9074865021718673
 40
0.9399973796774515
 40
0.9700047898063662
 40
1.0
 40
1.0
 40
1.0
 40
1.0
 10
71.0616146431918
 20
142.0148734220518
 30
0.0
 10
71.06157412635474
 20
142.2411680371532
 30
0.0
 10
71.01984938151688
 20
142.6936470210092
 30
0.0
 10
70.82291255598714
 20
143.3657228312795
 30
0.0
 10
70.49287261078959
 20
144.0058850504477
 30
0.0
 10
70.02454193465191
 20
144.5775473904065
 30
0.0
 10
69.45278547226513
 20
145.0460419186162
 30
0.0
 10
68.81266119789626
 20
145.376068428683
 30
0.0
 10
68.14045690761463
 20
145.5732194801454
 30
0.0
 10
67.46179056714672
 20
145.6356919340952
 30
0.0
 10
66.78295135377431
 20
145.5732558213854
 30
0.0
 10
66.11089631431409
 20
145.3762001135327
 30
0.0
 10
65.47060010489204
 20
145.0461414538628
 30
0.0
 10
64.89894092177097
 20
144.5777985502054
 30
0.0
 10
64.43044554733578
 20
144.0060453655225
 30
0.0
 10
64.1004192604706
 20
143.3659202266093
 30
0.0
 10
63.90326815371714
 20
142.6937161505104
 30
0.0
 10
63.84079571419374
 20
142.0150497541662
 30
0.0
 10
63.90323182305105
 20
141.3362105557658
 30
0.0
 10
64.10028753195681
 20
140.6641555122179
 30
0.0
 10
64.43034619134839
 20
140.0238593039966
 30
0.0
 10
64.89868909499356
 20
139.4522001205701
 30
0.0
 10
65.47044227997552
 20
138.9837047461562
 30
0.0
 10
66.110567417701
 20
138.6536784595674
 30
0.0
 10
66.78277149787803
 20
138.4565273517661
 30
0.0
 10
67.46143787924657
 20
138.3940549161008
 30
0.0
 10
68.140277133513
 20
138.4564910105421
 30
0.0
 10
68.81233196271508
 20
138.6535467747669
 30
0.0
 10
69.45262903555076
 20
138.9836052109512
 30
0.0
 10
70.02428493898495
 20
139.4519489613655
 30
0.0
 10
70.49279254206458
 20
140.0236989894114
 30
0.0
 10
70.82283746005157
 20
140.6639580403434
 30
0.0
 10
71.02010759984692
 20
141.3361413175975
 30
0.0
 10
71.06165514440605
 20
141.7886660634966
 30
0.0
 10
71.0616146431918
 20
142.0148734220518
 30
0.0
  0
SPLINE
  5
72
330
1F
100
AcDbEntity
  8
0
  6
Continuous
 62
     7
370
    15
100
AcDbSpline
210
0.0
220
0.0
230
1.0
 70
    11
 71
     3
 72
    39
 73
    35
 74
     0
 42
0.000000001
 43
0.00000001
 40
0.0
 40
0.0
 40
0.0
 40
0.0
 40
0.0300067804557855
 40
0.0600013329985907
 40
0.0924884792944299
 40
0.1249993461167571
 40
0.1574865030911405
 40
0.1899973805975962
 40
0.2199866237867633
 40
0.2499993509177743
 40
0.2799886004116607
 40
0.3100013326919193
 40
0.3424884789881896
 40
0.3749993458100012
 40
0.4074865027839755
 40
0.4399973802908858
 40
0.4699866234803541
 40
0.4999993506110524
 40
0.5299886001052484
 40
0.5600013323852089
 40
0.5924884786840401
 40
0.6249993455033725
 40
0.6574865024783741
 40
0.689997379984115
 40
0.7199866231724866
 40
0.7499993503043223
 40
0.7799885997971822
 40
0.8100013320784304
 40
0.8424884783744649
 40
0.8749993451965892
 40
0.9074865021716949
 40
0.9399973796774592
 40
0.9700047898065695
 40
1.0
 40
1.0
 40
1.0
 40
1.0
 10
71.0616146431918
 20
212.0148350220518
 30
0.0
 10
71.0615741263549
 20
212.2411296371531
 30
0.0
 10
71.01984938151669
 20
212.6936086210092
 30
0.0
 10
70.82291255598842
 20
213.3656844312769
 30
0.0
 10
70.49287261078914
 20
214.0058466504443
 30
0.0
 10
70.02454193464966
 20
214.5775089904066
 30
0.0
 10
69.45278547226705
 20
215.0460035186285
 30
0.0
 10
68.81266119787269
 20
215.3760300286899
 30
0.0
 10
68.14045690759603
 20
215.5731810801534
 30
0.0
 10
67.46179056711118
 20
215.6356535340959
 30
0.0
 10
66.78295135376021
 20
215.5732174213741
 30
0.0
 10
66.11089631430254
 20
215.3761617135315
 30
0.0
 10
65.47060010490281
 20
215.0461030538542
 30
0.0
 10
64.89894092177977
 20
214.5777601502154
 30
0.0
 10
64.43044554733362
 20
214.0060069655339
 30
0.0
 10
64.10041926047468
 20
213.3658818266166
 30
0.0
 10
63.90326815371694
 20
212.6936777505107
 30
0.0
 10
63.84079571419329
 20
212.0150113541706
 30
0.0
 10
63.90323182305395
 20
211.336172155771
 30
0.0
 10
64.10028753195601
 20
210.6641171122215
 30
0.0
 10
64.43034619134065
 20
210.0238209039903
 30
0.0
 10
64.89868909499582
 20
209.4521617205681
 30
0.0
 10
65.47044227998187
 20
208.9836663461626
 30
0.0
 10
66.11056741770271
 20
208.6536400595667
 30
0.0
 10
66.78277149787691
 20
208.4564889517596
 30
0.0
 10
67.46143787924711
 20
208.3940165161007
 30
0.0
 10
68.14027713351174
 20
208.4564526105491
 30
0.0
 10
68.81233196270937
 20
208.6535083747635
 30
0.0
 10
69.45262903554575
 20
208.9835668109468
 30
0.0
 10
70.0242849389788
 20
209.4519105613605
 30
0.0
 10
70.49279254206762
 20
210.0236605894078
 30
0.0
 10
70.8228374600513
 20
210.6639196403438
 30
0.0
 10
71.020107599846
 20
211.3361029175992
 30
0.0
 10
71.06165514440588
 20
211.7886276634982
 30
0.0
 10
71.06161464319179
 20
212.0148350220518
 30
0.0
  0
SPLINE
  5
73
330
1F
100
AcDbEntity
  8
0
  6
Continuous
 62
     7
370
    15
100
AcDbSpline
210
0.0
220
0.0
230
1.0
 70
    11
 71
     3
 72
    39
 73
    35
 74
     0
 42
0.000000001
 43
0.00000001
 40
0.0
 40
0.0
 40
0.0
 40
0.0
 40
0.030006780455787
 40
0.0600013329985921
 40
0.0924884792948086
 40
0.1249993461167748
 40
0.1574865030906913
 40
0.1899973805975658
 40
0.2199866237843245
 40
0.249999350917717
 40
0.2799886004101448
 40
0.3100013326919215
 40
0.3424884789894169
 40
0.3749993458100503
 40
0.4074865027835567
 40
0.439997380290823
 40
0.4699866234788049
 40
0.4999993506110459
 40
0.5299886001043111
 40
0.560001332385169
 40
0.592488478681597
 40
0.6249993455033102
 40
0.6574865024773832
 40
0.6899973799841386
 40
0.7199866231724682
 40
0.7499993503043088
 40
0.7799885997973659
 40
0.8100013320784627
 40
0.8424884783755671
 40
0.8749993451966087
 40
0.9074865021713527
 40
0.9399973796774329
 40
0.9700047898058507
 40
1.0
 40
1.0
 40
1.0
 40
1.0
 10
141.0615762431918
 20
142.0148734220519
 30
0.0
 10
141.0615357263542
 20
142.2411680371532
 30
0.0
 10
141.0198109815171
 20
142.6936470210092
 30
0.0
 10
140.822874155987
 20
143.3657228312795
 30
0.0
 10
140.4928342107897
 20
144.0058850504478
 30
0.0
 10
140.0245035346508
 20
144.5775473904073
 30
0.0
 10
139.4527470722647
 20
145.0460419186183
 30
0.0
 10
138.8126227978934
 20
145.3760684286841
 30
0.0
 10
138.1404185076129
 20
145.5732194801447
 30
0.0
 10
137.4617521671407
 20
145.6356919340948
 30
0.0
 10
136.7829129537691
 20
145.5732558213885
 30
0.0
 10
136.1108579143055
 20
145.3762001135294
 30
0.0
 10
135.4705617048913
 20
145.046141453856
 30
0.0
 10
134.8989025217739
 20
144.5777985502121
 30
0.0
 10
134.430407147352
 20
144.0060453655256
 30
0.0
 10
134.1003808604792
 20
143.3659202266308
 30
0.0
 10
133.9032297537097
 20
142.6937161505238
 30
0.0
 10
133.8407573141937
 20
142.0150497541887
 30
0.0
 10
133.9031934230588
 20
141.3362105557794
 30
0.0
 10
134.1002491319453
 20
140.6641555122441
 30
0.0
 10
134.4303077913339
 20
140.0238593040078
 30
0.0
 10
134.8986506949789
 20
139.4522001205874
 30
0.0
 10
135.4704038799671
 20
138.9837047461541
 30
0.0
 10
136.1105290176964
 20
138.6536784595703
 30
0.0
 10
136.7827330978778
 20
138.4565273517657
 30
0.0
 10
137.4613994792481
 20
138.3940549161011
 30
0.0
 10
138.1402387335147
 20
138.456491010541
 30
0.0
 10
138.8122935627179
 20
138.653546774768
 30
0.0
 10
139.452590635551
 20
138.9836052109534
 30
0.0
 10
140.024246538984
 20
139.4519489613633
 30
0.0
 10
140.4927541420592
 20
140.0236989894103
 30
0.0
 10
140.8227990600486
 20
140.6639580403362
 30
0.0
 10
141.0200691998496
 20
141.3361413175931
 30
0.0
 10
141.0616167444066
 20
141.7886660634926
 30
0.0
 10
141.0615762431918
 20
142.0148734220518
 30
0.0
  0
SPLINE
  5
74
330
1F
100
AcDbEntity
  8
0
  6
Continuous
 62
     7
370
    15
100
AcDbSpline
210
0.0
220
0.0
230
1.0
 70
    11
 71
     3
 72
    39
 73
    35
 74
     0
 42
0.000000001
 43
0.00000001
 40
0.0
 40
0.0
 40
0.0
 40
0.0
 40
0.0300067804557868
 40
0.0600013329985911
 40
0.0924884792944303
 40
0.1249993461167581
 40
0.1574865030913467
 40
0.1899973805976066
 40
0.2199866237869698
 40
0.2499993509177785
 40
0.2799886004122732
 40
0.3100013326919434
 40
0.3424884789888042
 40
0.3749993458100014
 40
0.4074865027824259
 40
0.4399973802908215
 40
0.4699866234788031
 40
0.4999993506110433
 40
0.5299886001036979
 40
0.5600013323851448
 40
0.5924884786817376
 40
0.6249993455033418
 40
0.6574865024776216
 40
0.6899973799841175
 40
0.7199866231724881
 40
0.7499993503043245
 40
0.7799885997973877
 40
0.8100013320784404
 40
0.8424884783746721
 40
0.874999345196592
 40
0.9074865021711797
 40
0.9399973796774407
 40
0.9700047898060541
 40
1.0
 40
1.0
 40
1.0
 40
1.0
 10
141.0615762431918
 20
212.0148350220518
 30
0.0
 10
141.0615357263543
 20
212.2411296371531
 30
0.0
 10
141.019810981517
 20
212.6936086210092
 30
0.0
 10
140.8228741559884
 20
213.3656844312769
 30
0.0
 10
140.4928342107893
 20
214.0058466504444
 30
0.0
 10
140.0245035346485
 20
214.5775089904075
 30
0.0
 10
139.4527470722665
 20
215.0460035186306
 30
0.0
 10
138.8126227978699
 20
215.376030028691
 30
0.0
 10
138.1404185075941
 20
215.5731810801526
 30
0.0
 10
137.4617521671052
 20
215.6356535340954
 30
0.0
 10
136.7829129537551
 20
215.5732174213772
 30
0.0
 10
136.1108579142939
 20
215.3761617135282
 30
0.0
 10
135.4705617049021
 20
215.0461030538473
 30
0.0
 10
134.8989025217828
 20
214.5777601502221
 30
0.0
 10
134.4304071473498
 20
214.006006965537
 30
0.0
 10
134.1003808604832
 20
213.365881826638
 30
0.0
 10
133.9032297537096
 20
212.6936777505241
 30
0.0
 10
133.8407573141932
 20
212.0150113541931
 30
0.0
 10
133.9031934230618
 20
211.3361721557846
 30
0.0
 10
134.1002491319445
 20
210.6641171122478
 30
0.0
 10
134.4303077913263
 20
210.0238209040016
 30
0.0
 10
134.8986506949811
 20
209.4521617205854
 30
0.0
 10
135.4704038799734
 20
208.9836663461606
 30
0.0
 10
136.110529017698
 20
208.6536400595696
 30
0.0
 10
136.7827330978768
 20
208.4564889517592
 30
0.0
 10
137.4613994792486
 20
208.3940165161009
 30
0.0
 10
138.1402387335135
 20
208.4564526105481
 30
0.0
 10
138.8122935627122
 20
208.6535083747645
 30
0.0
 10
139.452590635546
 20
208.9835668109491
 30
0.0
 10
140.0242465389777
 20
209.4519105613582
 30
0.0
 10
140.4927541420623
 20
210.0236605894067
 30
0.0
 10
140.8227990600483
 20
210.6639196403366
 30
0.0
 10
141.0200691998486
 20
211.3361029175948
 30
0.0
 10
141.0616167444063
 20
211.7886276634941
 30
0.0
 10
141.0615762431917
 20
212.0148350220518
 30
0.0
  0
LINE
  5
75
330
1F
100
AcDbEntity
  8
0
  6
Continuous
 62
     7
370
    15
100
AcDbLine
 10
63.0465100232
 20
135.8853708221
 30
0.0
 11
63.0377140032
 21
135.8968338421
 31
0.0
  0
LINE
  5
76
330
1F
100
AcDbEntity
  8
0
  6
Continuous
 62
     7
370
    15
100
AcDbLine
 10
63.1980362632
 20
135.7690997821
 30
0.0
 11
63.0465100232
 21
135.8853708221
 31
0.0
  0
LINE
  5
77
330
1F
100
AcDbEntity
  8
0
  6
Continuous
 62
     7
370
    15
100
AcDbLine
 10
63.3744951432
 20
135.6960087421
 30
0.0
 11
63.1980362632
 21
135.7690997821
 31
0.0
  0
LINE
  5
78
330
1F
100
AcDbEntity
  8
0
  6
Continuous
 62
     7
370
    15
100
AcDbLine
 10
63.5638572232
 20
135.6710786421
 30
0.0
 11
63.3744951432
 21
135.6960087421
 31
0.0
  0
LINE
  5
79
330
1F
100
AcDbEntity
  8
0
  6
Continuous
 62
     7
370
    15
100
AcDbLine
 10
63.7532193032
 20
135.6960087421
 30
0.0
 11
63.5638572232
 21
135.6710786421
 31
0.0
  0
LINE
  5
7A
330
1F
100
AcDbEntity
  8
0
  6
Continuous
 62
     7
370
    15
100
AcDbLine
 10
63.9296781832
 20
135.7690997821
 30
0.0
 11
63.7532193032
 21
135.6960087421
 31
0.0
  0
LINE
  5
7B
330
1F
100
AcDbEntity
  8
0
  6
Continuous
 62
     7
370
    15
100
AcDbLine
 10
64.0278720432
 20
135.8444463421
 30
0.0
 11
63.9296781832
 21
135.7690997821
 31
0.0
  0
LINE
  5
7C
330
1F
100
AcDbEntity
  8
0
  6
Continuous
 62
     7
370
    15
100
AcDbLine
 10
64.0307193832
 20
135.8449645021
 30
0.0
 11
64.0282809832
 21
135.8439510421
 31
0.0
  0
LINE
  5
7D
330
1F
100
AcDbEntity
  8
0
  6
Continuous
 62
     7
370
    15
100
AcDbLine
 10
64.0318115832
 20
135.8475959421
 30
0.0
 11
64.0307193832
 21
135.8449645021
 31
0.0
  0
LINE
  5
7E
330
1F
100
AcDbEntity
  8
0
  6
Continuous
 62
     7
370
    15
100
AcDbLine
 10
64.1395025032
 20
135.9568794421
 30
0.0
 11
64.0318115832
 21
135.8475959421
 31
0.0
  0
LINE
  5
7F
330
1F
100
AcDbEntity
  8
0
  6
Continuous
 62
     7
370
    15
100
AcDbLine
 10
64.1409807832
 20
135.9554011621
 30
0.0
 11
64.1395025032
 21
135.9568794421
 31
0.0
  0
LINE
  5
80
330
1F
100
AcDbEntity
  8
0
  6
Continuous
 62
     7
370
    15
100
AcDbLine
 10
64.1424666832
 20
135.9589851021
 30
0.0
 11
64.1409807832
 21
135.9554011621
 31
0.0
  0
LINE
  5
81
330
1F
100
AcDbEntity
  8
0
  6
Continuous
 62
     7
370
    15
100
AcDbLine
 10
64.1417885032
 20
135.9594981821
 30
0.0
 11
64.1424666832
 21
135.9589851021
 31
0.0
  0
LINE
  5
82
330
1F
100
AcDbEntity
  8
0
  6
Continuous
 62
     7
370
    15
100
AcDbLine
 10
64.2137416232
 20
136.0147101621
 30
0.0
 11
64.1417885032
 21
135.9594981821
 31
0.0
  0
LINE
  5
83
330
1F
100
AcDbEntity
  8
0
  6
Continuous
 62
     7
370
    15
100
AcDbLine
 10
64.3812012832
 20
136.0840750221
 30
0.0
 11
64.2137416232
 21
136.0147101621
 31
0.0
  0
LINE
  5
84
330
1F
100
AcDbEntity
  8
0
  6
Continuous
 62
     7
370
    15
100
AcDbLine
 10
64.5609113632
 20
136.1077351221
 30
0.0
 11
64.3812012832
 21
136.0840750221
 31
0.0
  0
LINE
  5
85
330
1F
100
AcDbEntity
  8
0
  6
Continuous
 62
     7
370
    15
100
AcDbLine
 10
64.7406214432
 20
136.0840750221
 30
0.0
 11
64.5609113632
 21
136.1077351221
 31
0.0
  0
LINE
  5
86
330
1F
100
AcDbEntity
  8
0
  6
Continuous
 62
     7
370
    15
100
AcDbLine
 10
64.7664075232
 20
136.0733943221
 30
0.0
 11
64.7406214432
 21
136.0840750221
 31
0.0
  0
LINE
  5
87
330
1F
100
AcDbEntity
  8
0
  6
Continuous
 62
     7
370
    15
100
AcDbLine
 10
64.7655261432
 20
136.0705723821
 30
0.0
 11
64.7664075232
 21
136.0733943221
 31
0.0
  0
LINE
  5
88
330
1F
100
AcDbEntity
  8
0
  6
Continuous
 62
     7
370
    15
100
AcDbLine
 10
64.7716145232
 20
136.0680476221
 30
0.0
 11
64.7655261432
 21
136.0705723821
 31
0.0
  0
LINE
  5
89
330
1F
100
AcDbEntity
  8
0
  6
Continuous
 62
     7
370
    15
100
AcDbLine
 10
64.7717008832
 20
136.0695640021
 30
0.0
 11
64.7716145232
 21
136.0680476221
 31
0.0
  0
LINE
  5
8A
330
1F
100
AcDbEntity
  8
0
  6
Continuous
 62
     7
370
    15
100
AcDbLine
 10
64.7703089632
 20
136.0664880621
 30
0.0
 11
64.7717008832
 21
136.0695640021
 31
0.0
  0
LINE
  5
8B
330
1F
100
AcDbEntity
  8
0
  6
Continuous
 62
     7
370
    15
100
AcDbLine
 10
65.3027818632
 20
135.8459322421
 30
0.0
 11
64.7703089632
 21
136.0664880621
 31
0.0
  0
LINE
  5
8C
330
1F
100
AcDbEntity
  8
0
  6
Continuous
 62
     7
370
    15
100
AcDbLine
 10
66.0070527432
 20
135.6430345021
 30
0.0
 11
65.3027818632
 21
135.8459322421
 31
0.0
  0
LINE
  5
8D
330
1F
100
AcDbEntity
  8
0
  6
Continuous
 62
     7
370
    15
100
AcDbLine
 10
66.7296141632
 20
135.5202661421
 30
0.0
 11
66.0070527432
 21
135.6430345021
 31
0.0
  0
LINE
  5
8E
330
1F
100
AcDbEntity
  8
0
  6
Continuous
 62
     7
370
    15
100
AcDbLine
 10
67.4613754632
 20
135.4791714821
 30
0.0
 11
66.7296141632
 21
135.5202661421
 31
0.0
  0
LINE
  5
8F
330
1F
100
AcDbEntity
  8
0
  6
Continuous
 62
     7
370
    15
100
AcDbLine
 10
68.1931367632
 20
135.5202661421
 30
0.0
 11
67.4613754632
 21
135.4791714821
 31
0.0
  0
LINE
  5
90
330
1F
100
AcDbEntity
  8
0
  6
Continuous
 62
     7
370
    15
100
AcDbLine
 10
68.9156981832
 20
135.6430345021
 30
0.0
 11
68.1931367632
 21
135.5202661421
 31
0.0
  0
LINE
  5
91
330
1F
100
AcDbEntity
  8
0
  6
Continuous
 62
     7
370
    15
100
AcDbLine
 10
69.6199690632
 20
135.8459322421
 30
0.0
 11
68.9156981832
 21
135.6430345021
 31
0.0
  0
LINE
  5
92
330
1F
100
AcDbEntity
  8
0
  6
Continuous
 62
     7
370
    15
100
AcDbLine
 10
70.2970949632
 20
136.1264066621
 30
0.0
 11
69.6199690632
 21
135.8459322421
 31
0.0
  0
LINE
  5
93
330
1F
100
AcDbEntity
  8
0
  6
Continuous
 62
     7
370
    15
100
AcDbLine
 10
70.9385592632
 20
136.4809322421
 30
0.0
 11
70.2970949632
 21
136.1264066621
 31
0.0
  0
LINE
  5
94
330
1F
100
AcDbEntity
  8
0
  6
Continuous
 62
     7
370
    15
100
AcDbLine
 10
71.5362974632
 20
136.9050487421
 30
0.0
 11
70.9385592632
 21
136.4809322421
 31
0.0
  0
LINE
  5
95
330
1F
100
AcDbEntity
  8
0
  6
Continuous
 62
     7
370
    15
100
AcDbLine
 10
72.0827886232
 20
137.3934247021
 30
0.0
 11
71.5362974632
 21
136.9050487421
 31
0.0
  0
LINE
  5
96
330
1F
100
AcDbEntity
  8
0
  6
Continuous
 62
     7
370
    15
100
AcDbLine
 10
72.5711645832
 20
137.9399158621
 30
0.0
 11
72.0827886232
 21
137.3934247021
 31
0.0
  0
LINE
  5
97
330
1F
100
AcDbEntity
  8
0
  6
Continuous
 62
     7
370
    15
100
AcDbLine
 10
72.9952810832
 20
138.5376540621
 30
0.0
 11
72.5711645832
 21
137.9399158621
 31
0.0
  0
LINE
  5
98
330
1F
100
AcDbEntity
  8
0
  6
Continuous
 62
     7
370
    15
100
AcDbLine
 10
73.3498066632
 20
139.1791183621
 30
0.0
 11
72.9952810832
 21
138.5376540621
 31
0.0
  0
LINE
  5
99
330
1F
100
AcDbEntity
  8
0
  6
Continuous
 62
     7
370
    15
100
AcDbLine
 10
73.6302810832
 20
139.8562442621
 30
0.0
 11
73.3498066632
 21
139.1791183621
 31
0.0
  0
LINE
  5
9A
330
1F
100
AcDbEntity
  8
0
  6
Continuous
 62
     7
370
    15
100
AcDbLine
 10
73.8252083032
 20
140.5328494621
 30
0.0
 11
73.6302810832
 21
139.8562442621
 31
0.0
  0
LINE
  5
9B
330
1F
100
AcDbEntity
  8
0
  6
Continuous
 62
     7
370
    15
100
AcDbLine
 10
73.8167043832
 20
140.5348306621
 30
0.0
 11
73.8252083032
 21
140.5328494621
 31
0.0
  0
LINE
  5
9C
330
1F
100
AcDbEntity
  8
0
  6
Continuous
 62
     7
370
    15
100
AcDbLine
 10
73.9664399232
 20
141.1770137821
 30
0.0
 11
73.8167856632
 21
140.5351786421
 31
0.0
  0
LINE
  5
9D
330
1F
100
AcDbEntity
  8
0
  6
Continuous
 62
     7
370
    15
100
AcDbLine
 10
74.3460759432
 20
142.4285022621
 30
0.0
 11
73.9664399232
 21
141.1770137821
 31
0.0
  0
LINE
  5
9E
330
1F
100
AcDbEntity
  8
0
  6
Continuous
 62
     7
370
    15
100
AcDbLine
 10
74.8067481232
 20
143.6524825421
 30
0.0
 11
74.3460759432
 21
142.4285022621
 31
0.0
  0
LINE
  5
9F
330
1F
100
AcDbEntity
  8
0
  6
Continuous
 62
     7
370
    15
100
AcDbLine
 10
75.3464879632
 20
144.8437146021
 30
0.0
 11
74.8067481232
 21
143.6524825421
 31
0.0
  0
LINE
  5
A0
330
1F
100
AcDbEntity
  8
0
  6
Continuous
 62
     7
370
    15
100
AcDbLine
 10
75.9629815232
 20
145.9970955821
 30
0.0
 11
75.3464879632
 21
144.8437146021
 31
0.0
  0
LINE
  5
A1
330
1F
100
AcDbEntity
  8
0
  6
Continuous
 62
     7
370
    15
100
AcDbLine
 10
76.6535922832
 20
147.1076826421
 30
0.0
 11
75.9629815232
 21
145.9970955821
 31
0.0
  0
LINE
  5
A2
330
1F
100
AcDbEntity
  8
0
  6
Continuous
 62
     7
370
    15
100
AcDbLine
 10
77.4153586032
 20
148.1707285221
 30
0.0
 11
76.6535922832
 21
147.1076826421
 31
0.0
  0
LINE
  5
A3
330
1F
100
AcDbEntity
  8
0
  6
Continuous
 62
     7
370
    15
100
AcDbLine
 10
78.2450191232
 20
149.1816739221
 30
0.0
 11
77.4153586032
 21
148.1707285221
 31
0.0
  0
LINE
  5
A4
330
1F
100
AcDbEntity
  8
0
  6
Continuous
 62
     7
370
    15
100
AcDbLine
 10
79.1387790832
 20
150.1359290621
 30
0.0
 11
78.2450191232
 21
149.1816739221
 31
0.0
  0
LINE
  5
A5
330
1F
100
AcDbEntity
  8
0
  6
Continuous
 62
     7
370
    15
100
AcDbLine
 10
86.4436031832
 20
157.4256401621
 30
0.0
 11
79.1476817832
 21
150.1269857221
 31
0.0
  0
LINE
  5
A6
330
1F
100
AcDbEntity
  8
0
  6
Continuous
 62
     7
370
    15
100
AcDbLine
 10
86.4352973832
 20
157.4343320421
 30
0.0
 11
86.4436175911
 21
157.4256539758
 31
0.0
  0
LINE
  5
A7
330
1F
100
AcDbEntity
  8
0
  6
Continuous
 62
     7
370
    15
100
AcDbLine
 10
87.3343837232
 20
158.2654403621
 30
0.0
 11
86.4352973832
 21
157.4343320421
 31
0.0
  0
LINE
  5
A8
330
1F
100
AcDbEntity
  8
0
  6
Continuous
 62
     7
370
    15
100
AcDbLine
 10
88.2959083432
 20
159.0234449421
 30
0.0
 11
87.3343837232
 21
158.2654403621
 31
0.0
  0
LINE
  5
A9
330
1F
100
AcDbEntity
  8
0
  6
Continuous
 62
     7
370
    15
100
AcDbLine
 10
89.3139403432
 20
159.7036721821
 30
0.0
 11
88.2959083432
 21
159.0234449421
 31
0.0
  0
LINE
  5
AA
330
1F
100
AcDbEntity
  8
0
  6
Continuous
 62
     7
370
    15
100
AcDbLine
 10
90.3822033832
 20
160.3019285421
 30
0.0
 11
89.3139403432
 21
159.7036721821
 31
0.0
  0
LINE
  5
AB
330
1F
100
AcDbEntity
  8
0
  6
Continuous
 62
     7
370
    15
100
AcDbLine
 10
91.4941112432
 20
160.8145259421
 30
0.0
 11
90.3822033832
 21
160.3019285421
 31
0.0
  0
LINE
  5
AC
330
1F
100
AcDbEntity
  8
0
  6
Continuous
 62
     7
370
    15
100
AcDbLine
 10
92.6428110032
 20
161.2383020821
 30
0.0
 11
91.4941112432
 21
160.8145259421
 31
0.0
  0
LINE
  5
AD
330
1F
100
AcDbEntity
  8
0
  6
Continuous
 62
     7
370
    15
100
AcDbLine
 10
93.8212186032
 20
161.5706483821
 30
0.0
 11
92.6428110032
 21
161.2383020821
 31
0.0
  0
LINE
  5
AE
330
1F
100
AcDbEntity
  8
0
  6
Continuous
 62
     7
370
    15
100
AcDbLine
 10
95.0220696432
 20
161.8095125221
 30
0.0
 11
93.8212186032
 21
161.5706483821
 31
0.0
  0
LINE
  5
AF
330
1F
100
AcDbEntity
  8
0
  6
Continuous
 62
     7
370
    15
100
AcDbLine
 10
96.2379600232
 20
161.9534213021
 30
0.0
 11
95.0220696432
 21
161.8095125221
 31
0.0
  0
LINE
  5
B0
330
1F
100
AcDbEntity
  8
0
  6
Continuous
 62
     7
370
    15
100
AcDbLine
 10
97.4613916632
 20
162.0014908021
 30
0.0
 11
96.2379600232
 21
161.9534213021
 31
0.0
  0
LINE
  5
B1
330
1F
100
AcDbEntity
  8
0
  6
Continuous
 62
     7
370
    15
100
AcDbLine
 10
97.4613916632
 20
161.9873785621
 30
0.0
 11
97.4613916632
 21
162.0014908021
 31
0.0
  0
LINE
  5
B2
330
1F
100
AcDbEntity
  8
0
  6
Continuous
 62
     7
370
    15
100
AcDbLine
 10
97.4685087432
 20
161.9903249621
 30
0.0
 11
97.4613916632
 21
161.9873785621
 31
0.0
  0
LINE
  5
B3
330
1F
100
AcDbEntity
  8
0
  6
Continuous
 62
     7
370
    15
100
AcDbLine
 10
97.4686992432
 20
161.9997407421
 30
0.0
 11
97.4685087432
 21
161.9903249621
 31
0.0
  0
LINE
  5
B4
330
1F
100
AcDbEntity
  8
0
  6
Continuous
 62
     7
370
    15
100
AcDbLine
 10
97.6965016832
 20
161.9544296821
 30
0.0
 11
97.4686992432
 21
161.9997407421
 31
0.0
  0
LINE
  5
B5
330
1F
100
AcDbEntity
  8
0
  6
Continuous
 62
     7
370
    15
100
AcDbLine
 10
97.9031129032
 20
161.8163756021
 30
0.0
 11
97.6965016832
 21
161.9544296821
 31
0.0
  0
LINE
  5
B6
330
1F
100
AcDbEntity
  8
0
  6
Continuous
 62
     7
370
    15
100
AcDbLine
 10
98.0411669832
 20
161.6097643821
 30
0.0
 11
97.9031129032
 21
161.8163756021
 31
0.0
  0
LINE
  5
B7
330
1F
100
AcDbEntity
  8
0
  6
Continuous
 62
     7
370
    15
100
AcDbLine
 10
98.0896454232
 20
161.3660488421
 30
0.0
 11
98.0411669832
 21
161.6097643821
 31
0.0
  0
LINE
  5
B8
330
1F
100
AcDbEntity
  8
0
  6
Continuous
 62
     7
370
    15
100
AcDbLine
 10
98.0411669832
 20
161.1223333021
 30
0.0
 11
98.0896454232
 21
161.3660488421
 31
0.0
  0
LINE
  5
B9
330
1F
100
AcDbEntity
  8
0
  6
Continuous
 62
     7
370
    15
100
AcDbLine
 10
97.9031129032
 20
160.9157220821
 30
0.0
 11
98.0411669832
 21
161.1223333021
 31
0.0
  0
LINE
  5
BA
330
1F
100
AcDbEntity
  8
0
  6
Continuous
 62
     7
370
    15
100
AcDbLine
 10
97.6965016832
 20
160.7776680021
 30
0.0
 11
97.9031129032
 21
160.9157220821
 31
0.0
  0
LINE
  5
BB
330
1F
100
AcDbEntity
  8
0
  6
Continuous
 62
     7
370
    15
100
AcDbLine
 10
97.4531442832
 20
160.7292606821
 30
0.0
 11
97.6965016832
 21
160.7776680021
 31
0.0
  0
LINE
  5
BC
330
1F
100
AcDbEntity
  8
0
  6
Continuous
 62
     7
370
    15
100
AcDbLine
 10
97.4527861432
 20
160.7435202421
 30
0.0
 11
97.4531442832
 21
160.7292606821
 31
0.0
  0
LINE
  5
BD
330
1F
100
AcDbEntity
  8
0
  6
Continuous
 62
     7
370
    15
100
AcDbLine
 10
97.4527861432
 20
160.7517219021
 30
0.0
 11
97.4531646032
 21
160.7433653021
 31
0.0
  0
LINE
  5
BE
330
1F
100
AcDbEntity
  8
0
  6
Continuous
 62
     7
370
    15
100
AcDbLine
 10
97.2477929032
 20
160.7109472821
 30
0.0
 11
97.4527861432
 21
160.7517219021
 31
0.0
  0
LINE
  5
BF
330
1F
100
AcDbEntity
  8
0
  6
Continuous
 62
     7
370
    15
100
AcDbLine
 10
97.0740086432
 20
160.5948261021
 30
0.0
 11
97.2477929032
 21
160.7109472821
 31
0.0
  0
LINE
  5
C0
330
1F
100
AcDbEntity
  8
0
  6
Continuous
 62
     7
370
    15
100
AcDbLine
 10
96.9578874632
 20
160.4210418421
 30
0.0
 11
97.0740086432
 21
160.5948261021
 31
0.0
  0
LINE
  5
C1
330
1F
100
AcDbEntity
  8
0
  6
Continuous
 62
     7
370
    15
100
AcDbLine
 10
96.9171128432
 20
160.2160486021
 30
0.0
 11
96.9578874632
 21
160.4210418421
 31
0.0
  0
LINE
  5
C2
330
1F
100
AcDbEntity
  8
0
  6
Continuous
 62
     7
370
    15
100
AcDbLine
 10
96.9578874632
 20
160.0110553621
 30
0.0
 11
96.9171128432
 21
160.2160486021
 31
0.0
  0
LINE
  5
C3
330
1F
100
AcDbEntity
  8
0
  6
Continuous
 62
     7
370
    15
100
AcDbLine
 10
97.0740086432
 20
159.8372711021
 30
0.0
 11
96.9578874632
 21
160.0110553621
 31
0.0
  0
LINE
  5
C4
330
1F
100
AcDbEntity
  8
0
  6
Continuous
 62
     7
370
    15
100
AcDbLine
 10
97.2477929032
 20
159.7211499221
 30
0.0
 11
97.0740086432
 21
159.8372711021
 31
0.0
  0
LINE
  5
C5
330
1F
100
AcDbEntity
  8
0
  6
Continuous
 62
     7
370
    15
100
AcDbLine
 10
97.4527861432
 20
159.6803753021
 30
0.0
 11
97.2477929032
 21
159.7211499221
 31
0.0
  0
LINE
  5
C6
330
1F
100
AcDbEntity
  8
0
  6
Continuous
 62
     7
370
    15
100
AcDbLine
 10
97.4527861432
 20
159.6906699221
 30
0.0
 11
97.4527861432
 21
159.6803753021
 31
0.0
  0
LINE
  5
C7
330
1F
100
AcDbEntity
  8
0
  6
Continuous
 62
     7
370
    15
100
AcDbLine
 10
107.4724333632
 20
159.6906699221
 30
0.0
 11
97.4527861432
 21
159.6906699221
 31
0.0
  0
LINE
  5
C8
330
1F
100
AcDbEntity
  8
0
  6
Continuous
 62
     7
370
    15
100
AcDbLine
 10
107.4727915032
 20
159.6885769621
 30
0.0
 11
107.4724333632
 21
159.6906699221
 31
0.0
  0
LINE
  5
C9
330
1F
100
AcDbEntity
  8
0
  6
Continuous
 62
     7
370
    15
100
AcDbLine
 10
107.4727915032
 20
159.6803753021
 30
0.0
 11
107.4724054232
 21
159.6887369821
 31
0.0
  0
LINE
  5
CA
330
1F
100
AcDbEntity
  8
0
  6
Continuous
 62
     7
370
    15
100
AcDbLine
 10
107.6777847432
 20
159.7211499221
 30
0.0
 11
107.4727915032
 21
159.6803753021
 31
0.0
  0
LINE
  5
CB
330
1F
100
AcDbEntity
  8
0
  6
Continuous
 62
     7
370
    15
100
AcDbLine
 10
107.8515690032
 20
159.8372711021
 30
0.0
 11
107.6777847432
 21
159.7211499221
 31
0.0
  0
LINE
  5
CC
330
1F
100
AcDbEntity
  8
0
  6
Continuous
 62
     7
370
    15
100
AcDbLine
 10
107.9676901832
 20
160.0110553621
 30
0.0
 11
107.8515690032
 21
159.8372711021
 31
0.0
  0
LINE
  5
CD
330
1F
100
AcDbEntity
  8
0
  6
Continuous
 62
     7
370
    15
100
AcDbLine
 10
108.0084648032
 20
160.2160486021
 30
0.0
 11
107.9676901832
 21
160.0110553621
 31
0.0
  0
LINE
  5
CE
330
1F
100
AcDbEntity
  8
0
  6
Continuous
 62
     7
370
    15
100
AcDbLine
 10
107.9676901832
 20
160.4210418421
 30
0.0
 11
108.0084648032
 21
160.2160486021
 31
0.0
  0
LINE
  5
CF
330
1F
100
AcDbEntity
  8
0
  6
Continuous
 62
     7
370
    15
100
AcDbLine
 10
107.8515690032
 20
160.5948261021
 30
0.0
 11
107.9676901832
 21
160.4210418421
 31
0.0
  0
LINE
  5
D0
330
1F
100
AcDbEntity
  8
0
  6
Continuous
 62
     7
370
    15
100
AcDbLine
 10
107.6777847432
 20
160.7109472821
 30
0.0
 11
107.8515690032
 21
160.5948261021
 31
0.0
  0
LINE
  5
D1
330
1F
100
AcDbEntity
  8
0
  6
Continuous
 62
     7
370
    15
100
AcDbLine
 10
107.4727915032
 20
160.7517219021
 30
0.0
 11
107.6777847432
 21
160.7109472821
 31
0.0
  0
LINE
  5
D2
330
1F
100
AcDbEntity
  8
0
  6
Continuous
 62
     7
370
    15
100
AcDbLine
 10
107.4724130432
 20
160.7433653021
 30
0.0
 11
107.4727915032
 21
160.7517219021
 31
0.0
  0
LINE
  5
D3
330
1F
100
AcDbEntity
  8
0
  6
Continuous
 62
     7
370
    15
100
AcDbLine
 10
107.4724333632
 20
160.7292606821
 30
0.0
 11
107.4727915032
 21
160.7435202421
 31
0.0
  0
LINE
  5
D4
330
1F
100
AcDbEntity
  8
0
  6
Continuous
 62
     7
370
    15
100
AcDbLine
 10
107.2290759632
 20
160.7776680021
 30
0.0
 11
107.4724333632
 21
160.7292606821
 31
0.0
  0
LINE
  5
D5
330
1F
100
AcDbEntity
  8
0
  6
Continuous
 62
     7
370
    15
100
AcDbLine
 10
107.0224647432
 20
160.9157220821
 30
0.0
 11
107.2290759632
 21
160.7776680021
 31
0.0
  0
LINE
  5
D6
330
1F
100
AcDbEntity
  8
0
  6
Continuous
 62
     7
370
    15
100
AcDbLine
 10
106.8844106632
 20
161.1223333021
 30
0.0
 11
107.0224647432
 21
160.9157220821
 31
0.0
  0
LINE
  5
D7
330
1F
100
AcDbEntity
  8
0
  6
Continuous
 62
     7
370
    15
100
AcDbLine
 10
106.8359322232
 20
161.3660488421
 30
0.0
 11
106.8844106632
 21
161.1223333021
 31
0.0
  0
LINE
  5
D8
330
1F
100
AcDbEntity
  8
0
  6
Continuous
 62
     7
370
    15
100
AcDbLine
 10
106.8844106632
 20
161.6097643821
 30
0.0
 11
106.8359322232
 21
161.3660488421
 31
0.0
  0
LINE
  5
D9
330
1F
100
AcDbEntity
  8
0
  6
Continuous
 62
     7
370
    15
100
AcDbLine
 10
107.0224647432
 20
161.8163756021
 30
0.0
 11
106.8844106632
 21
161.6097643821
 31
0.0
  0
LINE
  5
DA
330
1F
100
AcDbEntity
  8
0
  6
Continuous
 62
     7
370
    15
100
AcDbLine
 10
107.2290759632
 20
161.9544296821
 30
0.0
 11
107.0224647432
 21
161.8163756021
 31
0.0
  0
LINE
  5
DB
330
1F
100
AcDbEntity
  8
0
  6
Continuous
 62
     7
370
    15
100
AcDbLine
 10
107.4543079232
 20
161.9992327421
 30
0.0
 11
107.2290759632
 21
161.9544296821
 31
0.0
  0
LINE
  5
DC
330
1F
100
AcDbEntity
  8
0
  6
Continuous
 62
     7
370
    15
100
AcDbLine
 10
107.4545670032
 20
161.9904062421
 30
0.0
 11
107.4543079232
 21
161.9992327421
 31
0.0
  0
LINE
  5
DD
330
1F
100
AcDbEntity
  8
0
  6
Continuous
 62
     7
370
    15
100
AcDbLine
 10
107.4613970632
 20
161.9873785621
 30
0.0
 11
107.4545162032
 21
161.9902259021
 31
0.0
  0
LINE
  5
DE
330
1F
100
AcDbEntity
  8
0
  6
Continuous
 62
     7
370
    15
100
AcDbLine
 10
107.4613970632
 20
162.0014908021
 30
0.0
 11
107.4613970632
 21
161.9873785621
 31
0.0
  0
LINE
  5
DF
330
1F
100
AcDbEntity
  8
0
  6
Continuous
 62
     7
370
    15
100
AcDbLine
 10
108.6848287032
 20
161.9534213021
 30
0.0
 11
107.4613970632
 21
162.0014908021
 31
0.0
  0
LINE
  5
E0
330
1F
100
AcDbEntity
  8
0
  6
Continuous
 62
     7
370
    15
100
AcDbLine
 10
109.9007190832
 20
161.8095125221
 30
0.0
 11
108.6848287032
 21
161.9534213021
 31
0.0
  0
LINE
  5
E1
330
1F
100
AcDbEntity
  8
0
  6
Continuous
 62
     7
370
    15
100
AcDbLine
 10
111.1015701232
 20
161.5706483821
 30
0.0
 11
109.9007190832
 21
161.8095125221
 31
0.0
  0
LINE
  5
E2
330
1F
100
AcDbEntity
  8
0
  6
Continuous
 62
     7
370
    15
100
AcDbLine
 10
112.2799777232
 20
161.2383020821
 30
0.0
 11
111.1015701232
 21
161.5706483821
 31
0.0
  0
LINE
  5
E3
330
1F
100
AcDbEntity
  8
0
  6
Continuous
 62
     7
370
    15
100
AcDbLine
 10
113.4286774832
 20
160.8145259421
 30
0.0
 11
112.2799777232
 21
161.2383020821
 31
0.0
  0
LINE
  5
E4
330
1F
100
AcDbEntity
  8
0
  6
Continuous
 62
     7
370
    15
100
AcDbLine
 10
114.5405853432
 20
160.3019285421
 30
0.0
 11
113.4286774832
 21
160.8145259421
 31
0.0
  0
LINE
  5
E5
330
1F
100
AcDbEntity
  8
0
  6
Continuous
 62
     7
370
    15
100
AcDbLine
 10
115.6088483832
 20
159.7036721821
 30
0.0
 11
114.5405853432
 21
160.3019285421
 31
0.0
  0
LINE
  5
E6
330
1F
100
AcDbEntity
  8
0
  6
Continuous
 62
     7
370
    15
100
AcDbLine
 10
116.6268803832
 20
159.0234449421
 30
0.0
 11
115.6088483832
 21
159.7036721821
 31
0.0
  0
LINE
  5
E7
330
1F
100
AcDbEntity
  8
0
  6
Continuous
 62
     7
370
    15
100
AcDbLine
 10
117.5884050032
 20
158.2654403621
 30
0.0
 11
116.6268803832
 21
159.0234449421
 31
0.0
  0
LINE
  5
E8
330
1F
100
AcDbEntity
  8
0
  6
Continuous
 62
     7
370
    15
100
AcDbLine
 10
118.4874913432
 20
157.4343320421
 30
0.0
 11
117.5884050032
 21
158.2654403621
 31
0.0
  0
LINE
  5
E9
330
1F
100
AcDbEntity
  8
0
  6
Continuous
 62
     7
370
    15
100
AcDbLine
 10
118.4791855432
 20
157.4256401621
 30
0.0
 11
118.4874913432
 21
157.4343320421
 31
0.0
  0
LINE
  5
EA
330
1F
100
AcDbEntity
  8
0
  6
Continuous
 62
     7
370
    15
100
AcDbLine
 10
125.7761991432
 20
150.1286240221
 30
0.0
 11
118.4791855432
 21
157.4256401621
 31
0.0
  0
LINE
  5
EB
330
1F
100
AcDbEntity
  8
0
  6
Continuous
 62
     7
370
    15
100
AcDbLine
 10
125.7840096432
 20
150.1359290621
 30
0.0
 11
125.7762393015
 21
150.1285815527
 31
0.0
  0
LINE
  5
EC
330
1F
100
AcDbEntity
  8
0
  6
Continuous
 62
     7
370
    15
100
AcDbLine
 10
126.6777696032
 20
149.1816739221
 30
0.0
 11
125.7840096432
 21
150.1359290621
 31
0.0
  0
LINE
  5
ED
330
1F
100
AcDbEntity
  8
0
  6
Continuous
 62
     7
370
    15
100
AcDbLine
 10
127.5074301232
 20
148.1707285221
 30
0.0
 11
126.6777696032
 21
149.1816739221
 31
0.0
  0
LINE
  5
EE
330
1F
100
AcDbEntity
  8
0
  6
Continuous
 62
     7
370
    15
100
AcDbLine
 10
128.2691964432
 20
147.1076826421
 30
0.0
 11
127.5074301232
 21
148.1707285221
 31
0.0
  0
LINE
  5
EF
330
1F
100
AcDbEntity
  8
0
  6
Continuous
 62
     7
370
    15
100
AcDbLine
 10
128.9598072032
 20
145.9970955821
 30
0.0
 11
128.2691964432
 21
147.1076826421
 31
0.0
  0
LINE
  5
F0
330
1F
100
AcDbEntity
  8
0
  6
Continuous
 62
     7
370
    15
100
AcDbLine
 10
129.5763007632
 20
144.8437146021
 30
0.0
 11
128.9598072032
 21
145.9970955821
 31
0.0
  0
LINE
  5
F1
330
1F
100
AcDbEntity
  8
0
  6
Continuous
 62
     7
370
    15
100
AcDbLine
 10
130.1160406032
 20
143.6524825421
 30
0.0
 11
129.5763007632
 21
144.8437146021
 31
0.0
  0
LINE
  5
F2
330
1F
100
AcDbEntity
  8
0
  6
Continuous
 62
     7
370
    15
100
AcDbLine
 10
130.5767127832
 20
142.4285022621
 30
0.0
 11
130.1160406032
 21
143.6524825421
 31
0.0
  0
LINE
  5
F3
330
1F
100
AcDbEntity
  8
0
  6
Continuous
 62
     7
370
    15
100
AcDbLine
 10
130.9563488032
 20
141.1770137821
 30
0.0
 11
130.5767127832
 21
142.4285022621
 31
0.0
  0
LINE
  5
F4
330
1F
100
AcDbEntity
  8
0
  6
Continuous
 62
     7
370
    15
100
AcDbLine
 10
131.1060030632
 20
140.5351786421
 30
0.0
 11
130.9563488032
 21
141.1770137821
 31
0.0
  0
LINE
  5
F5
330
1F
100
AcDbEntity
  8
0
  6
Continuous
 62
     7
370
    15
100
AcDbLine
 10
131.0975804232
 20
140.5328494621
 30
0.0
 11
131.1060843432
 21
140.5348306621
 31
0.0
  0
LINE
  5
F6
330
1F
100
AcDbEntity
  8
0
  6
Continuous
 62
     7
370
    15
100
AcDbLine
 10
131.2925076432
 20
139.8562442621
 30
0.0
 11
131.0975804232
 21
140.5328494621
 31
0.0
  0
LINE
  5
F7
330
1F
100
AcDbEntity
  8
0
  6
Continuous
 62
     7
370
    15
100
AcDbLine
 10
131.5729820632
 20
139.1791183621
 30
0.0
 11
131.2925076432
 21
139.8562442621
 31
0.0
  0
LINE
  5
F8
330
1F
100
AcDbEntity
  8
0
  6
Continuous
 62
     7
370
    15
100
AcDbLine
 10
131.9275076432
 20
138.5376540621
 30
0.0
 11
131.5729820632
 21
139.1791183621
 31
0.0
  0
LINE
  5
F9
330
1F
100
AcDbEntity
  8
0
  6
Continuous
 62
     7
370
    15
100
AcDbLine
 10
132.3516241432
 20
137.9399158621
 30
0.0
 11
131.9275076432
 21
138.5376540621
 31
0.0
  0
LINE
  5
FA
330
1F
100
AcDbEntity
  8
0
  6
Continuous
 62
     7
370
    15
100
AcDbLine
 10
132.8400001032
 20
137.3934247021
 30
0.0
 11
132.3516241432
 21
137.9399158621
 31
0.0
  0
LINE
  5
FB
330
1F
100
AcDbEntity
  8
0
  6
Continuous
 62
     7
370
    15
100
AcDbLine
 10
133.3864912632
 20
136.9050487421
 30
0.0
 11
132.8400001032
 21
137.3934247021
 31
0.0
  0
LINE
  5
FC
330
1F
100
AcDbEntity
  8
0
  6
Continuous
 62
     7
370
    15
100
AcDbLine
 10
133.9842294632
 20
136.4809322421
 30
0.0
 11
133.3864912632
 21
136.9050487421
 31
0.0
  0
LINE
  5
FD
330
1F
100
AcDbEntity
  8
0
  6
Continuous
 62
     7
370
    15
100
AcDbLine
 10
134.6256937632
 20
136.1264066621
 30
0.0
 11
133.9842294632
 21
136.4809322421
 31
0.0
  0
LINE
  5
FE
330
1F
100
AcDbEntity
  8
0
  6
Continuous
 62
     7
370
    15
100
AcDbLine
 10
135.3028196632
 20
135.8459322421
 30
0.0
 11
134.6256937632
 21
136.1264066621
 31
0.0
  0
LINE
  5
FF
330
1F
100
AcDbEntity
  8
0
  6
Continuous
 62
     7
370
    15
100
AcDbLine
 10
136.0070905432
 20
135.6430345021
 30
0.0
 11
135.3028196632
 21
135.8459322421
 31
0.0
  0
LINE
  5
100
330
1F
100
AcDbEntity
  8
0
  6
Continuous
 62
     7
370
    15
100
AcDbLine
 10
136.7296519632
 20
135.5202661421
 30
0.0
 11
136.0070905432
 21
135.6430345021
 31
0.0
  0
LINE
  5
101
330
1F
100
AcDbEntity
  8
0
  6
Continuous
 62
     7
370
    15
100
AcDbLine
 10
137.4614132632
 20
135.4791714821
 30
0.0
 11
136.7296519632
 21
135.5202661421
 31
0.0
  0
LINE
  5
102
330
1F
100
AcDbEntity
  8
0
  6
Continuous
 62
     7
370
    15
100
AcDbLine
 10
138.1931745632
 20
135.5202661421
 30
0.0
 11
137.4614132632
 21
135.4791714821
 31
0.0
  0
LINE
  5
103
330
1F
100
AcDbEntity
  8
0
  6
Continuous
 62
     7
370
    15
100
AcDbLine
 10
138.9157359832
 20
135.6430345021
 30
0.0
 11
138.1931745632
 21
135.5202661421
 31
0.0
  0
LINE
  5
104
330
1F
100
AcDbEntity
  8
0
  6
Continuous
 62
     7
370
    15
100
AcDbLine
 10
139.6200068632
 20
135.8459322421
 30
0.0
 11
138.9157359832
 21
135.6430345021
 31
0.0
  0
LINE
  5
105
330
1F
100
AcDbEntity
  8
0
  6
Continuous
 62
     7
370
    15
100
AcDbLine
 10
140.1308719832
 20
136.0575396421
 30
0.0
 11
139.6200068632
 21
135.8459322421
 31
0.0
  0
LINE
  5
106
330
1F
100
AcDbEntity
  8
0
  6
Continuous
 62
     7
370
    15
100
AcDbLine
 10
140.1308161032
 20
136.0602726821
 30
0.0
 11
140.1308719832
 21
136.0575396421
 31
0.0
  0
LINE
  5
107
330
1F
100
AcDbEntity
  8
0
  6
Continuous
 62
     7
370
    15
100
AcDbLine
 10
140.1298182268
 20
136.0598588046
 30
0.0
 11
140.1308161032
 21
136.0602726821
 31
0.0
  0
LINE
  5
108
330
1F
100
AcDbEntity
  8
0
  6
Continuous
 62
     7
370
    15
100
AcDbLine
 10
140.1304732032
 20
136.0612480421
 30
0.0
 11
140.1298180007
 21
136.0598589112
 31
0.0
  0
LINE
  5
109
330
1F
100
AcDbEntity
  8
0
  6
Continuous
 62
     7
370
    15
100
AcDbLine
 10
140.1799651032
 20
136.0817458421
 30
0.0
 11
140.1304732032
 21
136.0612480421
 31
0.0
  0
LINE
  5
10A
330
1F
100
AcDbEntity
  8
0
  6
Continuous
 62
     7
370
    15
100
AcDbLine
 10
140.3597310632
 20
136.1054135621
 30
0.0
 11
140.1799651032
 21
136.0817458421
 31
0.0
  0
LINE
  5
10B
330
1F
100
AcDbEntity
  8
0
  6
Continuous
 62
     7
370
    15
100
AcDbLine
 10
140.5394970232
 20
136.0817458421
 30
0.0
 11
140.3597310632
 21
136.1054135621
 31
0.0
  0
LINE
  5
10C
330
1F
100
AcDbEntity
  8
0
  6
Continuous
 62
     7
370
    15
100
AcDbLine
 10
140.7070100232
 20
136.0123606621
 30
0.0
 11
140.5394970232
 21
136.0817458421
 31
0.0
  0
LINE
  5
10D
330
1F
100
AcDbEntity
  8
0
  6
Continuous
 62
     7
370
    15
100
AcDbLine
 10
140.7844673232
 20
135.9529272021
 30
0.0
 11
140.7070100232
 21
136.0123606621
 31
0.0
  0
LINE
  5
10E
330
1F
100
AcDbEntity
  8
0
  6
Continuous
 62
     7
370
    15
100
AcDbLine
 10
140.7838475632
 20
135.9521372621
 30
0.0
 11
140.7844673232
 21
135.9529272021
 31
0.0
  0
LINE
  5
10F
330
1F
100
AcDbEntity
  8
0
  6
Continuous
 62
     7
370
    15
100
AcDbLine
 10
140.7915691632
 20
135.9489368621
 30
0.0
 11
140.7838475632
 21
135.9521372621
 31
0.0
  0
LINE
  5
110
330
1F
100
AcDbEntity
  8
0
  6
Continuous
 62
     7
370
    15
100
AcDbLine
 10
140.9007104232
 20
135.8398387821
 30
0.0
 11
140.7915691632
 21
135.9489368621
 31
0.0
  0
LINE
  5
111
330
1F
100
AcDbEntity
  8
0
  6
Continuous
 62
     7
370
    15
100
AcDbLine
 10
140.8992321432
 20
135.8383605021
 30
0.0
 11
140.9007104232
 21
135.8398387821
 31
0.0
  0
LINE
  5
112
330
1F
100
AcDbEntity
  8
0
  6
Continuous
 62
     7
370
    15
100
AcDbLine
 10
140.9058234432
 20
135.8356300021
 30
0.0
 11
140.8992321432
 21
135.8383605021
 31
0.0
  0
LINE
  5
113
330
1F
100
AcDbEntity
  8
0
  6
Continuous
 62
     7
370
    15
100
AcDbLine
 10
140.9958385032
 20
135.7665597821
 30
0.0
 11
140.9057955032
 21
135.8356503221
 31
0.0
  0
LINE
  5
114
330
1F
100
AcDbEntity
  8
0
  6
Continuous
 62
     7
370
    15
100
AcDbLine
 10
141.1722948432
 20
135.6934687421
 30
0.0
 11
140.9958385032
 21
135.7665597821
 31
0.0
  0
LINE
  5
115
330
1F
100
AcDbEntity
  8
0
  6
Continuous
 62
     7
370
    15
100
AcDbLine
 10
141.3616569232
 20
135.6685386421
 30
0.0
 11
141.1722948432
 21
135.6934687421
 31
0.0
  0
LINE
  5
116
330
1F
100
AcDbEntity
  8
0
  6
Continuous
 62
     7
370
    15
100
AcDbLine
 10
141.5510190032
 20
135.6934687421
 30
0.0
 11
141.3616569232
 21
135.6685386421
 31
0.0
  0
LINE
  5
117
330
1F
100
AcDbEntity
  8
0
  6
Continuous
 62
     7
370
    15
100
AcDbLine
 10
141.7274753432
 20
135.7665597821
 30
0.0
 11
141.5510190032
 21
135.6934687421
 31
0.0
  0
LINE
  5
118
330
1F
100
AcDbEntity
  8
0
  6
Continuous
 62
     7
370
    15
100
AcDbLine
 10
141.8256717432
 20
135.8419063421
 30
0.0
 11
141.7274753432
 21
135.7665597821
 31
0.0
  0
LINE
  5
119
330
1F
100
AcDbEntity
  8
0
  6
Continuous
 62
     7
370
    15
100
AcDbLine
 10
141.8285190832
 20
135.8424245021
 30
0.0
 11
141.8260806832
 21
135.8414110421
 31
0.0
  0
LINE
  5
11A
330
1F
100
AcDbEntity
  8
0
  6
Continuous
 62
     7
370
    15
100
AcDbLine
 10
141.8303351832
 20
135.8468060021
 30
0.0
 11
141.8285190832
 21
135.8424245021
 31
0.0
  0
LINE
  5
11B
330
1F
100
AcDbEntity
  8
0
  6
Continuous
 62
     7
370
    15
100
AcDbLine
 10
143.5742788632
 20
137.5916513821
 30
0.0
 11
141.8303351832
 21
135.8468060021
 31
0.0
  0
LINE
  5
11C
330
1F
100
AcDbEntity
  8
0
  6
Continuous
 62
     7
370
    15
100
AcDbLine
 10
143.5756885632
 20
137.5902721621
 30
0.0
 11
143.5740858232
 21
137.5914583421
 31
0.0
  0
LINE
  5
11D
330
1F
100
AcDbEntity
  8
0
  6
Continuous
 62
     7
370
    15
100
AcDbLine
 10
143.5771262032
 20
137.5937468821
 30
0.0
 11
143.5756885632
 21
137.5902721621
 31
0.0
  0
LINE
  5
11E
330
1F
100
AcDbEntity
  8
0
  6
Continuous
 62
     7
370
    15
100
AcDbLine
 10
143.5796103232
 20
137.5909757421
 30
0.0
 11
143.5770321648
 21
137.5936564408
 31
0.0
  0
LINE
  5
11F
330
1F
100
AcDbEntity
  8
0
  6
Continuous
 62
     7
370
    15
100
AcDbLine
 10
143.5910733432
 20
137.5997717621
 30
0.0
 11
143.5796103232
 21
137.5909757421
 31
0.0
  0
LINE
  5
120
330
1F
100
AcDbEntity
  8
0
  6
Continuous
 62
     7
370
    15
100
AcDbLine
 10
143.7073443832
 20
137.7513005421
 30
0.0
 11
143.5910733432
 21
137.5997717621
 31
0.0
  0
LINE
  5
121
330
1F
100
AcDbEntity
  8
0
  6
Continuous
 62
     7
370
    15
100
AcDbLine
 10
143.7804354232
 20
137.9277568821
 30
0.0
 11
143.7073443832
 21
137.7513005421
 31
0.0
  0
LINE
  5
122
330
1F
100
AcDbEntity
  8
0
  6
Continuous
 62
     7
370
    15
100
AcDbLine
 10
143.8053655232
 20
138.1171189621
 30
0.0
 11
143.7804354232
 21
137.9277568821
 31
0.0
  0
LINE
  5
123
330
1F
100
AcDbEntity
  8
0
  6
Continuous
 62
     7
370
    15
100
AcDbLine
 10
143.7804354232
 20
138.3064810421
 30
0.0
 11
143.8053655232
 21
138.1171189621
 31
0.0
  0
LINE
  5
124
330
1F
100
AcDbEntity
  8
0
  6
Continuous
 62
     7
370
    15
100
AcDbLine
 10
143.7073443832
 20
138.4829373821
 30
0.0
 11
143.7804354232
 21
138.3064810421
 31
0.0
  0
LINE
  5
125
330
1F
100
AcDbEntity
  8
0
  6
Continuous
 62
     7
370
    15
100
AcDbLine
 10
143.6319978232
 20
138.5811337821
 30
0.0
 11
143.7073443832
 21
138.4829373821
 31
0.0
  0
LINE
  5
126
330
1F
100
AcDbEntity
  8
0
  6
Continuous
 62
     7
370
    15
100
AcDbLine
 10
143.6314796632
 20
138.5839811221
 30
0.0
 11
143.6324931232
 21
138.5815427221
 31
0.0
  0
LINE
  5
127
330
1F
100
AcDbEntity
  8
0
  6
Continuous
 62
     7
370
    15
100
AcDbLine
 10
143.6288482232
 20
138.5850733221
 30
0.0
 11
143.6314796632
 21
138.5839811221
 31
0.0
  0
LINE
  5
128
330
1F
100
AcDbEntity
  8
0
  6
Continuous
 62
     7
370
    15
100
AcDbLine
 10
143.5195647232
 20
138.6927642421
 30
0.0
 11
143.6288482232
 21
138.5850733221
 31
0.0
  0
LINE
  5
129
330
1F
100
AcDbEntity
  8
0
  6
Continuous
 62
     7
370
    15
100
AcDbLine
 10
143.5210430032
 20
138.6942425221
 30
0.0
 11
143.5195647232
 21
138.6927642421
 31
0.0
  0
LINE
  5
12A
330
1F
100
AcDbEntity
  8
0
  6
Continuous
 62
     7
370
    15
100
AcDbLine
 10
143.5174590632
 20
138.6957284221
 30
0.0
 11
143.5210430032
 21
138.6942425221
 31
0.0
  0
LINE
  5
12B
330
1F
100
AcDbEntity
  8
0
  6
Continuous
 62
     7
370
    15
100
AcDbLine
 10
143.5169459832
 20
138.6950502421
 30
0.0
 11
143.5174590632
 21
138.6957284221
 31
0.0
  0
LINE
  5
12C
330
1F
100
AcDbEntity
  8
0
  6
Continuous
 62
     7
370
    15
100
AcDbLine
 10
143.4617340032
 20
138.7670008221
 30
0.0
 11
143.5169459832
 21
138.6950502421
 31
0.0
  0
LINE
  5
12D
330
1F
100
AcDbEntity
  8
0
  6
Continuous
 62
     7
370
    15
100
AcDbLine
 10
143.3923691432
 20
138.9344630221
 30
0.0
 11
143.4617340032
 21
138.7670008221
 31
0.0
  0
LINE
  5
12E
330
1F
100
AcDbEntity
  8
0
  6
Continuous
 62
     7
370
    15
100
AcDbLine
 10
143.3687090432
 20
139.1141731021
 30
0.0
 11
143.3923691432
 21
138.9344630221
 31
0.0
  0
LINE
  5
12F
330
1F
100
AcDbEntity
  8
0
  6
Continuous
 62
     7
370
    15
100
AcDbLine
 10
143.3923691432
 20
139.2938831821
 30
0.0
 11
143.3687090432
 21
139.1141731021
 31
0.0
  0
LINE
  5
130
330
1F
100
AcDbEntity
  8
0
  6
Continuous
 62
     7
370
    15
100
AcDbLine
 10
143.4030498432
 20
139.3196692621
 30
0.0
 11
143.3923691432
 21
139.2938831821
 31
0.0
  0
LINE
  5
131
330
1F
100
AcDbEntity
  8
0
  6
Continuous
 62
     7
370
    15
100
AcDbLine
 10
143.4058717832
 20
139.3187878821
 30
0.0
 11
143.4030498432
 21
139.3196692621
 31
0.0
  0
LINE
  5
132
330
1F
100
AcDbEntity
  8
0
  6
Continuous
 62
     7
370
    15
100
AcDbLine
 10
143.4086962632
 20
139.3256027021
 30
0.0
 11
143.4058717832
 21
139.3187878821
 31
0.0
  0
LINE
  5
133
330
1F
100
AcDbEntity
  8
0
  6
Continuous
 62
     7
370
    15
100
AcDbLine
 10
143.4099688032
 20
139.3242692021
 30
0.0
 11
143.4086962632
 21
139.3256027021
 31
0.0
  0
LINE
  5
134
330
1F
100
AcDbEntity
  8
0
  6
Continuous
 62
     7
370
    15
100
AcDbLine
 10
143.6303188832
 20
139.8562442621
 30
0.0
 11
143.4099688032
 21
139.3242692021
 31
0.0
  0
LINE
  5
135
330
1F
100
AcDbEntity
  8
0
  6
Continuous
 62
     7
370
    15
100
AcDbLine
 10
143.8332166232
 20
140.5605151421
 30
0.0
 11
143.6303188832
 21
139.8562442621
 31
0.0
  0
LINE
  5
136
330
1F
100
AcDbEntity
  8
0
  6
Continuous
 62
     7
370
    15
100
AcDbLine
 10
143.9559849832
 20
141.2830765621
 30
0.0
 11
143.8332166232
 21
140.5605151421
 31
0.0
  0
LINE
  5
137
330
1F
100
AcDbEntity
  8
0
  6
Continuous
 62
     7
370
    15
100
AcDbLine
 10
143.9970796432
 20
142.0148378621
 30
0.0
 11
143.9559849832
 21
141.2830765621
 31
0.0
  0
LINE
  5
138
330
1F
100
AcDbEntity
  8
0
  6
Continuous
 62
     7
370
    15
100
AcDbLine
 10
143.9559849832
 20
142.7465991621
 30
0.0
 11
143.9970796432
 21
142.0148378621
 31
0.0
  0
LINE
  5
139
330
1F
100
AcDbEntity
  8
0
  6
Continuous
 62
     7
370
    15
100
AcDbLine
 10
143.8332166232
 20
143.4691605821
 30
0.0
 11
143.9559849832
 21
142.7465991621
 31
0.0
  0
LINE
  5
13A
330
1F
100
AcDbEntity
  8
0
  6
Continuous
 62
     7
370
    15
100
AcDbLine
 10
143.6303188832
 20
144.1734314621
 30
0.0
 11
143.8332166232
 21
143.4691605821
 31
0.0
  0
LINE
  5
13B
330
1F
100
AcDbEntity
  8
0
  6
Continuous
 62
     7
370
    15
100
AcDbLine
 10
143.3498444632
 20
144.8505573621
 30
0.0
 11
143.6303188832
 21
144.1734314621
 31
0.0
  0
LINE
  5
13C
330
1F
100
AcDbEntity
  8
0
  6
Continuous
 62
     7
370
    15
100
AcDbLine
 10
142.9953188832
 20
145.4920216621
 30
0.0
 11
143.3498444632
 21
144.8505573621
 31
0.0
  0
LINE
  5
13D
330
1F
100
AcDbEntity
  8
0
  6
Continuous
 62
     7
370
    15
100
AcDbLine
 10
142.5712023832
 20
146.0897598621
 30
0.0
 11
142.9953188832
 21
145.4920216621
 31
0.0
  0
LINE
  5
13E
330
1F
100
AcDbEntity
  8
0
  6
Continuous
 62
     7
370
    15
100
AcDbLine
 10
142.0828264232
 20
146.6362510221
 30
0.0
 11
142.5712023832
 21
146.0897598621
 31
0.0
  0
LINE
  5
13F
330
1F
100
AcDbEntity
  8
0
  6
Continuous
 62
     7
370
    15
100
AcDbLine
 10
141.5363352632
 20
147.1246269821
 30
0.0
 11
142.0828264232
 21
146.6362510221
 31
0.0
  0
LINE
  5
140
330
1F
100
AcDbEntity
  8
0
  6
Continuous
 62
     7
370
    15
100
AcDbLine
 10
140.9385970632
 20
147.5487434821
 30
0.0
 11
141.5363352632
 21
147.1246269821
 31
0.0
  0
LINE
  5
141
330
1F
100
AcDbEntity
  8
0
  6
Continuous
 62
     7
370
    15
100
AcDbLine
 10
140.2971327632
 20
147.9032690621
 30
0.0
 11
140.9385970632
 21
147.5487434821
 31
0.0
  0
LINE
  5
142
330
1F
100
AcDbEntity
  8
0
  6
Continuous
 62
     7
370
    15
100
AcDbLine
 10
139.6200068632
 20
148.1837434821
 30
0.0
 11
140.2971327632
 21
147.9032690621
 31
0.0
  0
LINE
  5
143
330
1F
100
AcDbEntity
  8
0
  6
Continuous
 62
     7
370
    15
100
AcDbLine
 10
138.9434016632
 20
148.3786707021
 30
0.0
 11
139.6200068632
 21
148.1837434821
 31
0.0
  0
LINE
  5
144
330
1F
100
AcDbEntity
  8
0
  6
Continuous
 62
     7
370
    15
100
AcDbLine
 10
138.9414204632
 20
148.3701667821
 30
0.0
 11
138.9434016632
 21
148.3786707021
 31
0.0
  0
LINE
  5
145
330
1F
100
AcDbEntity
  8
0
  6
Continuous
 62
     7
370
    15
100
AcDbLine
 10
138.2992373432
 20
148.5199023221
 30
0.0
 11
138.9410724832
 21
148.3702480621
 31
0.0
  0
LINE
  5
146
330
1F
100
AcDbEntity
  8
0
  6
Continuous
 62
     7
370
    15
100
AcDbLine
 10
137.0477488632
 20
148.8995383421
 30
0.0
 11
138.2992373432
 21
148.5199023221
 31
0.0
  0
LINE
  5
147
330
1F
100
AcDbEntity
  8
0
  6
Continuous
 62
     7
370
    15
100
AcDbLine
 10
135.8237685832
 20
149.3602105221
 30
0.0
 11
137.0477488632
 21
148.8995383421
 31
0.0
  0
LINE
  5
148
330
1F
100
AcDbEntity
  8
0
  6
Continuous
 62
     7
370
    15
100
AcDbLine
 10
134.6325365232
 20
149.8999503621
 30
0.0
 11
135.8237685832
 21
149.3602105221
 31
0.0
  0
LINE
  5
149
330
1F
100
AcDbEntity
  8
0
  6
Continuous
 62
     7
370
    15
100
AcDbLine
 10
133.4791555432
 20
150.5164439221
 30
0.0
 11
134.6325365232
 21
149.8999503621
 31
0.0
  0
LINE
  5
14A
330
1F
100
AcDbEntity
  8
0
  6
Continuous
 62
     7
370
    15
100
AcDbLine
 10
132.3685684832
 20
151.2070546821
 30
0.0
 11
133.4791555432
 21
150.5164439221
 31
0.0
  0
LINE
  5
14B
330
1F
100
AcDbEntity
  8
0
  6
Continuous
 62
     7
370
    15
100
AcDbLine
 10
131.3055226032
 20
151.9688210021
 30
0.0
 11
132.3685684832
 21
151.2070546821
 31
0.0
  0
LINE
  5
14C
330
1F
100
AcDbEntity
  8
0
  6
Continuous
 62
     7
370
    15
100
AcDbLine
 10
130.2945772032
 20
152.7984815221
 30
0.0
 11
131.3055226032
 21
151.9688210021
 31
0.0
  0
LINE
  5
14D
330
1F
100
AcDbEntity
  8
0
  6
Continuous
 62
     7
370
    15
100
AcDbLine
 10
129.3403220632
 20
153.6922414821
 30
0.0
 11
130.2945772032
 21
152.7984815221
 31
0.0
  0
LINE
  5
14E
330
1F
100
AcDbEntity
  8
0
  6
Continuous
 62
     7
370
    15
100
AcDbLine
 10
129.3491053832
 20
153.7015302621
 30
0.0
 11
129.3403220632
 21
153.6922414821
 31
0.0
  0
LINE
  5
14F
330
1F
100
AcDbEntity
  8
0
  6
Continuous
 62
     7
370
    15
100
AcDbLine
 10
122.0506109632
 20
160.9970655821
 30
0.0
 11
129.3492654032
 21
153.7011441821
 31
0.0
  0
LINE
  5
150
330
1F
100
AcDbEntity
  8
0
  6
Continuous
 62
     7
370
    15
100
AcDbLine
 10
122.0419190832
 20
160.9887597821
 30
0.0
 11
122.0504179232
 21
160.9972586221
 31
0.0
  0
LINE
  5
151
330
1F
100
AcDbEntity
  8
0
  6
Continuous
 62
     7
370
    15
100
AcDbLine
 10
121.2108107632
 20
161.8878461221
 30
0.0
 11
122.0419190832
 21
160.9887597821
 31
0.0
  0
LINE
  5
152
330
1F
100
AcDbEntity
  8
0
  6
Continuous
 62
     7
370
    15
100
AcDbLine
 10
120.4528061832
 20
162.8493707421
 30
0.0
 11
121.2108107632
 21
161.8878461221
 31
0.0
  0
LINE
  5
153
330
1F
100
AcDbEntity
  8
0
  6
Continuous
 62
     7
370
    15
100
AcDbLine
 10
119.7725789432
 20
163.8674027421
 30
0.0
 11
120.4528061832
 21
162.8493707421
 31
0.0
  0
LINE
  5
154
330
1F
100
AcDbEntity
  8
0
  6
Continuous
 62
     7
370
    15
100
AcDbLine
 10
119.1743225832
 20
164.9356657821
 30
0.0
 11
119.7725789432
 21
163.8674027421
 31
0.0
  0
LINE
  5
155
330
1F
100
AcDbEntity
  8
0
  6
Continuous
 62
     7
370
    15
100
AcDbLine
 10
118.6617251832
 20
166.0475736421
 30
0.0
 11
119.1743225832
 21
164.9356657821
 31
0.0
  0
LINE
  5
156
330
1F
100
AcDbEntity
  8
0
  6
Continuous
 62
     7
370
    15
100
AcDbLine
 10
118.2379490432
 20
167.1962734021
 30
0.0
 11
118.6617251832
 21
166.0475736421
 31
0.0
  0
LINE
  5
157
330
1F
100
AcDbEntity
  8
0
  6
Continuous
 62
     7
370
    15
100
AcDbLine
 10
117.9056027432
 20
168.3746810021
 30
0.0
 11
118.2379490432
 21
167.1962734021
 31
0.0
  0
LINE
  5
158
330
1F
100
AcDbEntity
  8
0
  6
Continuous
 62
     7
370
    15
100
AcDbLine
 10
117.6667386032
 20
169.5755320421
 30
0.0
 11
117.9056027432
 21
168.3746810021
 31
0.0
  0
LINE
  5
159
330
1F
100
AcDbEntity
  8
0
  6
Continuous
 62
     7
370
    15
100
AcDbLine
 10
117.5228298232
 20
170.7914224221
 30
0.0
 11
117.6667386032
 21
169.5755320421
 31
0.0
  0
LINE
  5
15A
330
1F
100
AcDbEntity
  8
0
  6
Continuous
 62
     7
370
    15
100
AcDbLine
 10
117.4747603232
 20
172.0148540621
 30
0.0
 11
117.5228298232
 21
170.7914224221
 31
0.0
  0
LINE
  5
15B
330
1F
100
AcDbEntity
  8
0
  6
Continuous
 62
     7
370
    15
100
AcDbLine
 10
117.4867821432
 20
182.0148594621
 30
0.0
 11
117.4747603232
 21
172.0148540621
 31
0.0
  0
LINE
  5
15C
330
1F
100
AcDbEntity
  8
0
  6
Continuous
 62
     7
370
    15
100
AcDbLine
 10
117.4747603232
 20
182.0148594621
 30
0.0
 11
117.4867821432
 21
182.0148594621
 31
0.0
  0
LINE
  5
15D
330
1F
100
AcDbEntity
  8
0
  6
Continuous
 62
     7
370
    15
100
AcDbLine
 10
117.5228298232
 20
183.2382911021
 30
0.0
 11
117.4747603232
 21
182.0148594621
 31
0.0
  0
LINE
  5
15E
330
1F
100
AcDbEntity
  8
0
  6
Continuous
 62
     7
370
    15
100
AcDbLine
 10
117.6667386032
 20
184.4541814821
 30
0.0
 11
117.5228298232
 21
183.2382911021
 31
0.0
  0
LINE
  5
15F
330
1F
100
AcDbEntity
  8
0
  6
Continuous
 62
     7
370
    15
100
AcDbLine
 10
117.9056027432
 20
185.6550325221
 30
0.0
 11
117.6667386032
 21
184.4541814821
 31
0.0
  0
LINE
  5
160
330
1F
100
AcDbEntity
  8
0
  6
Continuous
 62
     7
370
    15
100
AcDbLine
 10
118.2379490432
 20
186.8334401221
 30
0.0
 11
117.9056027432
 21
185.6550325221
 31
0.0
  0
LINE
  5
161
330
1F
100
AcDbEntity
  8
0
  6
Continuous
 62
     7
370
    15
100
AcDbLine
 10
118.6617251832
 20
187.9821398821
 30
0.0
 11
118.2379490432
 21
186.8334401221
 31
0.0
  0
LINE
  5
162
330
1F
100
AcDbEntity
  8
0
  6
Continuous
 62
     7
370
    15
100
AcDbLine
 10
119.1743225832
 20
189.0940477421
 30
0.0
 11
118.6617251832
 21
187.9821398821
 31
0.0
  0
LINE
  5
163
330
1F
100
AcDbEntity
  8
0
  6
Continuous
 62
     7
370
    15
100
AcDbLine
 10
119.7725789432
 20
190.1623107821
 30
0.0
 11
119.1743225832
 21
189.0940477421
 31
0.0
  0
LINE
  5
164
330
1F
100
AcDbEntity
  8
0
  6
Continuous
 62
     7
370
    15
100
AcDbLine
 10
120.4528061832
 20
191.1803427821
 30
0.0
 11
119.7725789432
 21
190.1623107821
 31
0.0
  0
LINE
  5
165
330
1F
100
AcDbEntity
  8
0
  6
Continuous
 62
     7
370
    15
100
AcDbLine
 10
121.2108107632
 20
192.1418674021
 30
0.0
 11
120.4528061832
 21
191.1803427821
 31
0.0
  0
LINE
  5
166
330
1F
100
AcDbEntity
  8
0
  6
Continuous
 62
     7
370
    15
100
AcDbLine
 10
122.0419190832
 20
193.0409537421
 30
0.0
 11
121.2108107632
 21
192.1418674021
 31
0.0
  0
LINE
  5
167
330
1F
100
AcDbEntity
  8
0
  6
Continuous
 62
     7
370
    15
100
AcDbLine
 10
122.0506109632
 20
193.0326479421
 30
0.0
 11
122.0419190832
 21
193.0409537421
 31
0.0
  0
LINE
  5
168
330
1F
100
AcDbEntity
  8
0
  6
Continuous
 62
     7
370
    15
100
AcDbLine
 10
122.0520206632
 20
193.0312687221
 30
0.0
 11
122.0504179232
 21
193.0324549021
 31
0.0
  0
LINE
  5
169
330
1F
100
AcDbEntity
  8
0
  6
Continuous
 62
     7
370
    15
100
AcDbLine
 10
129.3476271032
 20
200.3296615421
 30
0.0
 11
122.0518962032
 21
193.0309766221
 31
0.0
  0
LINE
  5
16A
330
1F
100
AcDbEntity
  8
0
  6
Continuous
 62
     7
370
    15
100
AcDbLine
 10
129.3400579032
 20
200.3372282021
 30
0.0
 11
129.3476245632
 21
200.3296615421
 31
0.0
  0
LINE
  5
16B
330
1F
100
AcDbEntity
  8
0
  6
Continuous
 62
     7
370
    15
100
AcDbLine
 10
130.2945772032
 20
201.2312320021
 30
0.0
 11
129.3403220632
 21
200.3374720421
 31
0.0
  0
LINE
  5
16C
330
1F
100
AcDbEntity
  8
0
  6
Continuous
 62
     7
370
    15
100
AcDbLine
 10
131.3055226032
 20
202.0608925221
 30
0.0
 11
130.2945772032
 21
201.2312320021
 31
0.0
  0
LINE
  5
16D
330
1F
100
AcDbEntity
  8
0
  6
Continuous
 62
     7
370
    15
100
AcDbLine
 10
132.3685684832
 20
202.8226588421
 30
0.0
 11
131.3055226032
 21
202.0608925221
 31
0.0
  0
LINE
  5
16E
330
1F
100
AcDbEntity
  8
0
  6
Continuous
 62
     7
370
    15
100
AcDbLine
 10
133.4791555432
 20
203.5132696021
 30
0.0
 11
132.3685684832
 21
202.8226588421
 31
0.0
  0
LINE
  5
16F
330
1F
100
AcDbEntity
  8
0
  6
Continuous
 62
     7
370
    15
100
AcDbLine
 10
134.6325365232
 20
204.1297631621
 30
0.0
 11
133.4791555432
 21
203.5132696021
 31
0.0
  0
LINE
  5
170
330
1F
100
AcDbEntity
  8
0
  6
Continuous
 62
     7
370
    15
100
AcDbLine
 10
135.8237685832
 20
204.6695030021
 30
0.0
 11
134.6325365232
 21
204.1297631621
 31
0.0
  0
LINE
  5
171
330
1F
100
AcDbEntity
  8
0
  6
Continuous
 62
     7
370
    15
100
AcDbLine
 10
137.0477488632
 20
205.1301751821
 30
0.0
 11
135.8237685832
 21
204.6695030021
 31
0.0
  0
LINE
  5
172
330
1F
100
AcDbEntity
  8
0
  6
Continuous
 62
     7
370
    15
100
AcDbLine
 10
138.2992373432
 20
205.5098112021
 30
0.0
 11
137.0477488632
 21
205.1301751821
 31
0.0
  0
LINE
  5
173
330
1F
100
AcDbEntity
  8
0
  6
Continuous
 62
     7
370
    15
100
AcDbLine
 10
138.9410724832
 20
205.6594654621
 30
0.0
 11
138.2992373432
 21
205.5098112021
 31
0.0
  0
LINE
  5
174
330
1F
100
AcDbEntity
  8
0
  6
Continuous
 62
     7
370
    15
100
AcDbLine
 10
138.9434016632
 20
205.6510428221
 30
0.0
 11
138.9414204632
 21
205.6595467421
 31
0.0
  0
LINE
  5
175
330
1F
100
AcDbEntity
  8
0
  6
Continuous
 62
     7
370
    15
100
AcDbLine
 10
139.6200068632
 20
205.8459700421
 30
0.0
 11
138.9434016632
 21
205.6510428221
 31
0.0
  0
LINE
  5
176
330
1F
100
AcDbEntity
  8
0
  6
Continuous
 62
     7
370
    15
100
AcDbLine
 10
140.2971327632
 20
206.1264444621
 30
0.0
 11
139.6200068632
 21
205.8459700421
 31
0.0
  0
LINE
  5
177
330
1F
100
AcDbEntity
  8
0
  6
Continuous
 62
     7
370
    15
100
AcDbLine
 10
140.9385970632
 20
206.4809700421
 30
0.0
 11
140.2971327632
 21
206.1264444621
 31
0.0
  0
LINE
  5
178
330
1F
100
AcDbEntity
  8
0
  6
Continuous
 62
     7
370
    15
100
AcDbLine
 10
141.5363352632
 20
206.9050865421
 30
0.0
 11
140.9385970632
 21
206.4809700421
 31
0.0
  0
LINE
  5
179
330
1F
100
AcDbEntity
  8
0
  6
Continuous
 62
     7
370
    15
100
AcDbLine
 10
142.0828264232
 20
207.3934625021
 30
0.0
 11
141.5363352632
 21
206.9050865421
 31
0.0
  0
LINE
  5
17A
330
1F
100
AcDbEntity
  8
0
  6
Continuous
 62
     7
370
    15
100
AcDbLine
 10
142.5712023832
 20
207.9399536621
 30
0.0
 11
142.0828264232
 21
207.3934625021
 31
0.0
  0
LINE
  5
17B
330
1F
100
AcDbEntity
  8
0
  6
Continuous
 62
     7
370
    15
100
AcDbLine
 10
142.9953188832
 20
208.5376918621
 30
0.0
 11
142.5712023832
 21
207.9399536621
 31
0.0
  0
LINE
  5
17C
330
1F
100
AcDbEntity
  8
0
  6
Continuous
 62
     7
370
    15
100
AcDbLine
 10
143.3498444632
 20
209.1791561621
 30
0.0
 11
142.9953188832
 21
208.5376918621
 31
0.0
  0
LINE
  5
17D
330
1F
100
AcDbEntity
  8
0
  6
Continuous
 62
     7
370
    15
100
AcDbLine
 10
143.6303188832
 20
209.8562820621
 30
0.0
 11
143.3498444632
 21
209.1791561621
 31
0.0
  0
LINE
  5
17E
330
1F
100
AcDbEntity
  8
0
  6
Continuous
 62
     7
370
    15
100
AcDbLine
 10
143.8332166232
 20
210.5605529421
 30
0.0
 11
143.6303188832
 21
209.8562820621
 31
0.0
  0
LINE
  5
17F
330
1F
100
AcDbEntity
  8
0
  6
Continuous
 62
     7
370
    15
100
AcDbLine
 10
143.9559849832
 20
211.2831143621
 30
0.0
 11
143.8332166232
 21
210.5605529421
 31
0.0
  0
LINE
  5
180
330
1F
100
AcDbEntity
  8
0
  6
Continuous
 62
     7
370
    15
100
AcDbLine
 10
143.9970796432
 20
212.0148756621
 30
0.0
 11
143.9559849832
 21
211.2831143621
 31
0.0
  0
LINE
  5
181
330
1F
100
AcDbEntity
  8
0
  6
Continuous
 62
     7
370
    15
100
AcDbLine
 10
143.9559849832
 20
212.7466369621
 30
0.0
 11
143.9970796432
 21
212.0148756621
 31
0.0
  0
LINE
  5
182
330
1F
100
AcDbEntity
  8
0
  6
Continuous
 62
     7
370
    15
100
AcDbLine
 10
143.8332166232
 20
213.4691983821
 30
0.0
 11
143.9559849832
 21
212.7466369621
 31
0.0
  0
LINE
  5
183
330
1F
100
AcDbEntity
  8
0
  6
Continuous
 62
     7
370
    15
100
AcDbLine
 10
143.6303188832
 20
214.1734692621
 30
0.0
 11
143.8332166232
 21
213.4691983821
 31
0.0
  0
LINE
  5
184
330
1F
100
AcDbEntity
  8
0
  6
Continuous
 62
     7
370
    15
100
AcDbLine
 10
143.4190721632
 20
214.6834682421
 30
0.0
 11
143.6303188832
 21
214.1734692621
 31
0.0
  0
LINE
  5
185
330
1F
100
AcDbEntity
  8
0
  6
Continuous
 62
     7
370
    15
100
AcDbLine
 10
143.4161714832
 20
214.6840803821
 30
0.0
 11
143.4190721632
 21
214.6834682421
 31
0.0
  0
LINE
  5
186
330
1F
100
AcDbEntity
  8
0
  6
Continuous
 62
     7
370
    15
100
AcDbLine
 10
143.4168496632
 20
214.6824420821
 30
0.0
 11
143.4161714832
 21
214.6840803821
 31
0.0
  0
LINE
  5
187
330
1F
100
AcDbEntity
  8
0
  6
Continuous
 62
     7
370
    15
100
AcDbLine
 10
143.4151961232
 20
214.6837374821
 30
0.0
 11
143.4168496632
 21
214.6824420821
 31
0.0
  0
LINE
  5
188
330
1F
100
AcDbEntity
  8
0
  6
Continuous
 62
     7
370
    15
100
AcDbLine
 10
143.3946983232
 20
214.7332293821
 30
0.0
 11
143.4151961232
 21
214.6837374821
 31
0.0
  0
LINE
  5
189
330
1F
100
AcDbEntity
  8
0
  6
Continuous
 62
     7
370
    15
100
AcDbLine
 10
143.3710306032
 20
214.9129953421
 30
0.0
 11
143.3946983232
 21
214.7332293821
 31
0.0
  0
LINE
  5
18A
330
1F
100
AcDbEntity
  8
0
  6
Continuous
 62
     7
370
    15
100
AcDbLine
 10
143.3946983232
 20
215.0927613021
 30
0.0
 11
143.3710306032
 21
214.9129953421
 31
0.0
  0
LINE
  5
18B
330
1F
100
AcDbEntity
  8
0
  6
Continuous
 62
     7
370
    15
100
AcDbLine
 10
143.4640835032
 20
215.2602743021
 30
0.0
 11
143.3946983232
 21
215.0927613021
 31
0.0
  0
LINE
  5
18C
330
1F
100
AcDbEntity
  8
0
  6
Continuous
 62
     7
370
    15
100
AcDbLine
 10
143.5235169632
 20
215.3377316021
 30
0.0
 11
143.4640835032
 21
215.2602743021
 31
0.0
  0
LINE
  5
18D
330
1F
100
AcDbEntity
  8
0
  6
Continuous
 62
     7
370
    15
100
AcDbLine
 10
143.5243069032
 20
215.3371118421
 30
0.0
 11
143.5235169632
 21
215.3377316021
 31
0.0
  0
LINE
  5
18E
330
1F
100
AcDbEntity
  8
0
  6
Continuous
 62
     7
370
    15
100
AcDbLine
 10
143.5275073032
 20
215.3448334421
 30
0.0
 11
143.5243069032
 21
215.3371118421
 31
0.0
  0
LINE
  5
18F
330
1F
100
AcDbEntity
  8
0
  6
Continuous
 62
     7
370
    15
100
AcDbLine
 10
143.6366053832
 20
215.4539747021
 30
0.0
 11
143.5275073032
 21
215.3448334421
 31
0.0
  0
LINE
  5
190
330
1F
100
AcDbEntity
  8
0
  6
Continuous
 62
     7
370
    15
100
AcDbLine
 10
143.6380836632
 20
215.4524964221
 30
0.0
 11
143.6366053832
 21
215.4539747021
 31
0.0
  0
LINE
  5
191
330
1F
100
AcDbEntity
  8
0
  6
Continuous
 62
     7
370
    15
100
AcDbLine
 10
143.6408141632
 20
215.4590877221
 30
0.0
 11
143.6380836632
 21
215.4524964221
 31
0.0
  0
LINE
  5
192
330
1F
100
AcDbEntity
  8
0
  6
Continuous
 62
     7
370
    15
100
AcDbLine
 10
143.7098843832
 20
215.5491027821
 30
0.0
 11
143.6407938432
 21
215.4590597821
 31
0.0
  0
LINE
  5
193
330
1F
100
AcDbEntity
  8
0
  6
Continuous
 62
     7
370
    15
100
AcDbLine
 10
143.7829754232
 20
215.7255591221
 30
0.0
 11
143.7098843832
 21
215.5491027821
 31
0.0
  0
LINE
  5
194
330
1F
100
AcDbEntity
  8
0
  6
Continuous
 62
     7
370
    15
100
AcDbLine
 10
143.8079055232
 20
215.9149212021
 30
0.0
 11
143.7829754232
 21
215.7255591221
 31
0.0
  0
LINE
  5
195
330
1F
100
AcDbEntity
  8
0
  6
Continuous
 62
     7
370
    15
100
AcDbLine
 10
143.7829754232
 20
216.1042832821
 30
0.0
 11
143.8079055232
 21
215.9149212021
 31
0.0
  0
LINE
  5
196
330
1F
100
AcDbEntity
  8
0
  6
Continuous
 62
     7
370
    15
100
AcDbLine
 10
143.7098843832
 20
216.2807396221
 30
0.0
 11
143.7829754232
 21
216.1042832821
 31
0.0
  0
LINE
  5
197
330
1F
100
AcDbEntity
  8
0
  6
Continuous
 62
     7
370
    15
100
AcDbLine
 10
143.6345378232
 20
216.3789360221
 30
0.0
 11
143.7098843832
 21
216.2807396221
 31
0.0
  0
LINE
  5
198
330
1F
100
AcDbEntity
  8
0
  6
Continuous
 62
     7
370
    15
100
AcDbLine
 10
143.6340196632
 20
216.3817833621
 30
0.0
 11
143.6350331232
 21
216.3793449621
 31
0.0
  0
LINE
  5
199
330
1F
100
AcDbEntity
  8
0
  6
Continuous
 62
     7
370
    15
100
AcDbLine
 10
143.6296381632
 20
216.3835994621
 30
0.0
 11
143.6340196632
 21
216.3817833621
 31
0.0
  0
LINE
  5
19A
330
1F
100
AcDbEntity
  8
0
  6
Continuous
 62
     7
370
    15
100
AcDbLine
 10
141.8847927832
 20
218.1275431421
 30
0.0
 11
143.6296381632
 21
216.3835994621
 31
0.0
  0
LINE
  5
19B
330
1F
100
AcDbEntity
  8
0
  6
Continuous
 62
     7
370
    15
100
AcDbLine
 10
141.8861720032
 20
218.1289528421
 30
0.0
 11
141.8849858232
 21
218.1273501021
 31
0.0
  0
LINE
  5
19C
330
1F
100
AcDbEntity
  8
0
  6
Continuous
 62
     7
370
    15
100
AcDbLine
 10
141.8826972832
 20
218.1303904821
 30
0.0
 11
141.8861720032
 21
218.1289528421
 31
0.0
  0
LINE
  5
19D
330
1F
100
AcDbEntity
  8
0
  6
Continuous
 62
     7
370
    15
100
AcDbLine
 10
141.8854684232
 20
218.1328746021
 30
0.0
 11
141.8827877244
 21
218.1302964437
 31
0.0
  0
LINE
  5
19E
330
1F
100
AcDbEntity
  8
0
  6
Continuous
 62
     7
370
    15
100
AcDbLine
 10
141.8766724032
 20
218.1443376221
 30
0.0
 11
141.8854684232
 21
218.1328746021
 31
0.0
  0
LINE
  5
19F
330
1F
100
AcDbEntity
  8
0
  6
Continuous
 62
     7
370
    15
100
AcDbLine
 10
141.7251436232
 20
218.2606086621
 30
0.0
 11
141.8766724032
 21
218.1443376221
 31
0.0
  0
LINE
  5
1A0
330
1F
100
AcDbEntity
  8
0
  6
Continuous
 62
     7
370
    15
100
AcDbLine
 10
141.5486872832
 20
218.3336997021
 30
0.0
 11
141.7251436232
 21
218.2606086621
 31
0.0
  0
LINE
  5
1A1
330
1F
100
AcDbEntity
  8
0
  6
Continuous
 62
     7
370
    15
100
AcDbLine
 10
141.3593252032
 20
218.3586298021
 30
0.0
 11
141.5486872832
 21
218.3336997021
 31
0.0
  0
LINE
  5
1A2
330
1F
100
AcDbEntity
  8
0
  6
Continuous
 62
     7
370
    15
100
AcDbLine
 10
141.1699631232
 20
218.3336997021
 30
0.0
 11
141.3593252032
 21
218.3586298021
 31
0.0
  0
LINE
  5
1A3
330
1F
100
AcDbEntity
  8
0
  6
Continuous
 62
     7
370
    15
100
AcDbLine
 10
140.9935067832
 20
218.2606086621
 30
0.0
 11
141.1699631232
 21
218.3336997021
 31
0.0
  0
LINE
  5
1A4
330
1F
100
AcDbEntity
  8
0
  6
Continuous
 62
     7
370
    15
100
AcDbLine
 10
140.8953103832
 20
218.1852621021
 30
0.0
 11
140.9935067832
 21
218.2606086621
 31
0.0
  0
LINE
  5
1A5
330
1F
100
AcDbEntity
  8
0
  6
Continuous
 62
     7
370
    15
100
AcDbLine
 10
140.8924630432
 20
218.1847439421
 30
0.0
 11
140.8949014432
 21
218.1857574021
 31
0.0
  0
LINE
  5
1A6
330
1F
100
AcDbEntity
  8
0
  6
Continuous
 62
     7
370
    15
100
AcDbLine
 10
140.8913708432
 20
218.1821125021
 30
0.0
 11
140.8924630432
 21
218.1847439421
 31
0.0
  0
LINE
  5
1A7
330
1F
100
AcDbEntity
  8
0
  6
Continuous
 62
     7
370
    15
100
AcDbLine
 10
140.7836799232
 20
218.0728290021
 30
0.0
 11
140.8913708432
 21
218.1821125021
 31
0.0
  0
LINE
  5
1A8
330
1F
100
AcDbEntity
  8
0
  6
Continuous
 62
     7
370
    15
100
AcDbLine
 10
140.7822016432
 20
218.0743072821
 30
0.0
 11
140.7836799232
 21
218.0728290021
 31
0.0
  0
LINE
  5
1A9
330
1F
100
AcDbEntity
  8
0
  6
Continuous
 62
     7
370
    15
100
AcDbLine
 10
140.7807157432
 20
218.0707233421
 30
0.0
 11
140.7822016432
 21
218.0743072821
 31
0.0
  0
LINE
  5
1AA
330
1F
100
AcDbEntity
  8
0
  6
Continuous
 62
     7
370
    15
100
AcDbLine
 10
140.7813939232
 20
218.0702102621
 30
0.0
 11
140.7807157432
 21
218.0707233421
 31
0.0
  0
LINE
  5
1AB
330
1F
100
AcDbEntity
  8
0
  6
Continuous
 62
     7
370
    15
100
AcDbLine
 10
140.7094433432
 20
218.0149982821
 30
0.0
 11
140.7813939232
 21
218.0702102621
 31
0.0
  0
LINE
  5
1AC
330
1F
100
AcDbEntity
  8
0
  6
Continuous
 62
     7
370
    15
100
AcDbLine
 10
140.5419811432
 20
217.9456334221
 30
0.0
 11
140.7094433432
 21
218.0149982821
 31
0.0
  0
LINE
  5
1AD
330
1F
100
AcDbEntity
  8
0
  6
Continuous
 62
     7
370
    15
100
AcDbLine
 10
140.3622710632
 20
217.9219733221
 30
0.0
 11
140.5419811432
 21
217.9456334221
 31
0.0
  0
LINE
  5
1AE
330
1F
100
AcDbEntity
  8
0
  6
Continuous
 62
     7
370
    15
100
AcDbLine
 10
140.1825609832
 20
217.9456334221
 30
0.0
 11
140.3622710632
 21
217.9219733221
 31
0.0
  0
LINE
  5
1AF
330
1F
100
AcDbEntity
  8
0
  6
Continuous
 62
     7
370
    15
100
AcDbLine
 10
140.1567749032
 20
217.9563141221
 30
0.0
 11
140.1825609832
 21
217.9456334221
 31
0.0
  0
LINE
  5
1B0
330
1F
100
AcDbEntity
  8
0
  6
Continuous
 62
     7
370
    15
100
AcDbLine
 10
140.1576562832
 20
217.9591360621
 30
0.0
 11
140.1567749032
 21
217.9563141221
 31
0.0
  0
LINE
  5
1B1
330
1F
100
AcDbEntity
  8
0
  6
Continuous
 62
     7
370
    15
100
AcDbLine
 10
140.1511234032
 20
217.9618437021
 30
0.0
 11
140.1576562832
 21
217.9591360621
 31
0.0
  0
LINE
  5
1B2
330
1F
100
AcDbEntity
  8
0
  6
Continuous
 62
     7
370
    15
100
AcDbLine
 10
140.1510573632
 20
217.9601647621
 30
0.0
 11
140.1511234032
 21
217.9618437021
 31
0.0
  0
LINE
  5
1B3
330
1F
100
AcDbEntity
  8
0
  6
Continuous
 62
     7
370
    15
100
AcDbLine
 10
140.1524467432
 20
217.9632381621
 30
0.0
 11
140.1510573632
 21
217.9601647621
 31
0.0
  0
LINE
  5
1B4
330
1F
100
AcDbEntity
  8
0
  6
Continuous
 62
     7
370
    15
100
AcDbLine
 10
139.6200068632
 20
218.1837812821
 30
0.0
 11
140.1524467432
 21
217.9632381621
 31
0.0
  0
LINE
  5
1B5
330
1F
100
AcDbEntity
  8
0
  6
Continuous
 62
     7
370
    15
100
AcDbLine
 10
138.9157359832
 20
218.3866790221
 30
0.0
 11
139.6200068632
 21
218.1837812821
 31
0.0
  0
LINE
  5
1B6
330
1F
100
AcDbEntity
  8
0
  6
Continuous
 62
     7
370
    15
100
AcDbLine
 10
138.1931745632
 20
218.5094473821
 30
0.0
 11
138.9157359832
 21
218.3866790221
 31
0.0
  0
LINE
  5
1B7
330
1F
100
AcDbEntity
  8
0
  6
Continuous
 62
     7
370
    15
100
AcDbLine
 10
137.4614132632
 20
218.5505420421
 30
0.0
 11
138.1931745632
 21
218.5094473821
 31
0.0
  0
LINE
  5
1B8
330
1F
100
AcDbEntity
  8
0
  6
Continuous
 62
     7
370
    15
100
AcDbLine
 10
136.7296519632
 20
218.5094473821
 30
0.0
 11
137.4614132632
 21
218.5505420421
 31
0.0
  0
LINE
  5
1B9
330
1F
100
AcDbEntity
  8
0
  6
Continuous
 62
     7
370
    15
100
AcDbLine
 10
136.0070905432
 20
218.3866790221
 30
0.0
 11
136.7296519632
 21
218.5094473821
 31
0.0
  0
LINE
  5
1BA
330
1F
100
AcDbEntity
  8
0
  6
Continuous
 62
     7
370
    15
100
AcDbLine
 10
135.3028196632
 20
218.1837812821
 30
0.0
 11
136.0070905432
 21
218.3866790221
 31
0.0
  0
LINE
  5
1BB
330
1F
100
AcDbEntity
  8
0
  6
Continuous
 62
     7
370
    15
100
AcDbLine
 10
134.6256937632
 20
217.9033068621
 30
0.0
 11
135.3028196632
 21
218.1837812821
 31
0.0
  0
LINE
  5
1BC
330
1F
100
AcDbEntity
  8
0
  6
Continuous
 62
     7
370
    15
100
AcDbLine
 10
133.9842294632
 20
217.5487812821
 30
0.0
 11
134.6256937632
 21
217.9033068621
 31
0.0
  0
LINE
  5
1BD
330
1F
100
AcDbEntity
  8
0
  6
Continuous
 62
     7
370
    15
100
AcDbLine
 10
133.3864912632
 20
217.1246647821
 30
0.0
 11
133.9842294632
 21
217.5487812821
 31
0.0
  0
LINE
  5
1BE
330
1F
100
AcDbEntity
  8
0
  6
Continuous
 62
     7
370
    15
100
AcDbLine
 10
132.8400001032
 20
216.6362888221
 30
0.0
 11
133.3864912632
 21
217.1246647821
 31
0.0
  0
LINE
  5
1BF
330
1F
100
AcDbEntity
  8
0
  6
Continuous
 62
     7
370
    15
100
AcDbLine
 10
132.3516241432
 20
216.0897976621
 30
0.0
 11
132.8400001032
 21
216.6362888221
 31
0.0
  0
LINE
  5
1C0
330
1F
100
AcDbEntity
  8
0
  6
Continuous
 62
     7
370
    15
100
AcDbLine
 10
131.9275076432
 20
215.4920594621
 30
0.0
 11
132.3516241432
 21
216.0897976621
 31
0.0
  0
LINE
  5
1C1
330
1F
100
AcDbEntity
  8
0
  6
Continuous
 62
     7
370
    15
100
AcDbLine
 10
131.5729820632
 20
214.8505951621
 30
0.0
 11
131.9275076432
 21
215.4920594621
 31
0.0
  0
LINE
  5
1C2
330
1F
100
AcDbEntity
  8
0
  6
Continuous
 62
     7
370
    15
100
AcDbLine
 10
131.2925076432
 20
214.1734692621
 30
0.0
 11
131.5729820632
 21
214.8505951621
 31
0.0
  0
LINE
  5
1C3
330
1F
100
AcDbEntity
  8
0
  6
Continuous
 62
     7
370
    15
100
AcDbLine
 10
131.0975804232
 20
213.4968640621
 30
0.0
 11
131.2925076432
 21
214.1734692621
 31
0.0
  0
LINE
  5
1C4
330
1F
100
AcDbEntity
  8
0
  6
Continuous
 62
     7
370
    15
100
AcDbLine
 10
131.1060843432
 20
213.4948828621
 30
0.0
 11
131.0975804232
 21
213.4968640621
 31
0.0
  0
LINE
  5
1C5
330
1F
100
AcDbEntity
  8
0
  6
Continuous
 62
     7
370
    15
100
AcDbLine
 10
130.9563488032
 20
212.8526997421
 30
0.0
 11
131.1060030632
 21
213.4945348821
 31
0.0
  0
LINE
  5
1C6
330
1F
100
AcDbEntity
  8
0
  6
Continuous
 62
     7
370
    15
100
AcDbLine
 10
130.5767127832
 20
211.6012112621
 30
0.0
 11
130.9563488032
 21
212.8526997421
 31
0.0
  0
LINE
  5
1C7
330
1F
100
AcDbEntity
  8
0
  6
Continuous
 62
     7
370
    15
100
AcDbLine
 10
130.1160406032
 20
210.3772309821
 30
0.0
 11
130.5767127832
 21
211.6012112621
 31
0.0
  0
LINE
  5
1C8
330
1F
100
AcDbEntity
  8
0
  6
Continuous
 62
     7
370
    15
100
AcDbLine
 10
129.5763007632
 20
209.1859989221
 30
0.0
 11
130.1160406032
 21
210.3772309821
 31
0.0
  0
LINE
  5
1C9
330
1F
100
AcDbEntity
  8
0
  6
Continuous
 62
     7
370
    15
100
AcDbLine
 10
128.9598072032
 20
208.0326179421
 30
0.0
 11
129.5763007632
 21
209.1859989221
 31
0.0
  0
LINE
  5
1CA
330
1F
100
AcDbEntity
  8
0
  6
Continuous
 62
     7
370
    15
100
AcDbLine
 10
128.2691964432
 20
206.9220308821
 30
0.0
 11
128.9598072032
 21
208.0326179421
 31
0.0
  0
LINE
  5
1CB
330
1F
100
AcDbEntity
  8
0
  6
Continuous
 62
     7
370
    15
100
AcDbLine
 10
127.5074301232
 20
205.8589850021
 30
0.0
 11
128.2691964432
 21
206.9220308821
 31
0.0
  0
LINE
  5
1CC
330
1F
100
AcDbEntity
  8
0
  6
Continuous
 62
     7
370
    15
100
AcDbLine
 10
126.6777696032
 20
204.8480396021
 30
0.0
 11
127.5074301232
 21
205.8589850021
 31
0.0
  0
LINE
  5
1CD
330
1F
100
AcDbEntity
  8
0
  6
Continuous
 62
     7
370
    15
100
AcDbLine
 10
125.7840096432
 20
203.8937844621
 30
0.0
 11
126.6777696032
 21
204.8480396021
 31
0.0
  0
LINE
  5
1CE
330
1F
100
AcDbEntity
  8
0
  6
Continuous
 62
     7
370
    15
100
AcDbLine
 10
125.7747208632
 20
203.9025677821
 30
0.0
 11
125.7840096432
 21
203.8937844621
 31
0.0
  0
LINE
  5
1CF
330
1F
100
AcDbEntity
  8
0
  6
Continuous
 62
     7
370
    15
100
AcDbLine
 10
118.4791855432
 20
196.6040733621
 30
0.0
 11
125.7751069432
 21
203.9027278021
 31
0.0
  0
LINE
  5
1D0
330
1F
100
AcDbEntity
  8
0
  6
Continuous
 62
     7
370
    15
100
AcDbLine
 10
118.4874913432
 20
196.5953814821
 30
0.0
 11
118.4789925032
 21
196.6038803221
 31
0.0
  0
LINE
  5
1D1
330
1F
100
AcDbEntity
  8
0
  6
Continuous
 62
     7
370
    15
100
AcDbLine
 10
117.5884050032
 20
195.7642731621
 30
0.0
 11
118.4874913432
 21
196.5953814821
 31
0.0
  0
LINE
  5
1D2
330
1F
100
AcDbEntity
  8
0
  6
Continuous
 62
     7
370
    15
100
AcDbLine
 10
116.6268803832
 20
195.0062685821
 30
0.0
 11
117.5884050032
 21
195.7642731621
 31
0.0
  0
LINE
  5
1D3
330
1F
100
AcDbEntity
  8
0
  6
Continuous
 62
     7
370
    15
100
AcDbLine
 10
115.6088483832
 20
194.3260413421
 30
0.0
 11
116.6268803832
 21
195.0062685821
 31
0.0
  0
LINE
  5
1D4
330
1F
100
AcDbEntity
  8
0
  6
Continuous
 62
     7
370
    15
100
AcDbLine
 10
114.5405853432
 20
193.7277849821
 30
0.0
 11
115.6088483832
 21
194.3260413421
 31
0.0
  0
LINE
  5
1D5
330
1F
100
AcDbEntity
  8
0
  6
Continuous
 62
     7
370
    15
100
AcDbLine
 10
113.4286774832
 20
193.2151875821
 30
0.0
 11
114.5405853432
 21
193.7277849821
 31
0.0
  0
LINE
  5
1D6
330
1F
100
AcDbEntity
  8
0
  6
Continuous
 62
     7
370
    15
100
AcDbLine
 10
112.2799777232
 20
192.7914114421
 30
0.0
 11
113.4286774832
 21
193.2151875821
 31
0.0
  0
LINE
  5
1D7
330
1F
100
AcDbEntity
  8
0
  6
Continuous
 62
     7
370
    15
100
AcDbLine
 10
111.1015701232
 20
192.4590651421
 30
0.0
 11
112.2799777232
 21
192.7914114421
 31
0.0
  0
LINE
  5
1D8
330
1F
100
AcDbEntity
  8
0
  6
Continuous
 62
     7
370
    15
100
AcDbLine
 10
109.9007190832
 20
192.2202010021
 30
0.0
 11
111.1015701232
 21
192.4590651421
 31
0.0
  0
LINE
  5
1D9
330
1F
100
AcDbEntity
  8
0
  6
Continuous
 62
     7
370
    15
100
AcDbLine
 10
108.6848287032
 20
192.0762922221
 30
0.0
 11
109.9007190832
 21
192.2202010021
 31
0.0
  0
LINE
  5
1DA
330
1F
100
AcDbEntity
  8
0
  6
Continuous
 62
     7
370
    15
100
AcDbLine
 10
107.4830581832
 20
192.0290736221
 30
0.0
 11
108.6848287032
 21
192.0762922221
 31
0.0
  0
LINE
  5
1DB
330
1F
100
AcDbEntity
  8
0
  6
Continuous
 62
     7
370
    15
100
AcDbLine
 10
107.4830429432
 20
192.0402572421
 30
0.0
 11
107.4830581832
 21
192.0290736221
 31
0.0
  0
LINE
  5
1DC
330
1F
100
AcDbEntity
  8
0
  6
Continuous
 62
     7
370
    15
100
AcDbLine
 10
107.4753543632
 20
192.0435414621
 30
0.0
 11
107.4830708832
 21
192.0403461421
 31
0.0
  0
LINE
  5
1DD
330
1F
100
AcDbEntity
  8
0
  6
Continuous
 62
     7
370
    15
100
AcDbLine
 10
107.4753010232
 20
192.0297086221
 30
0.0
 11
107.4752451432
 21
192.0434982821
 31
0.0
  0
LINE
  5
1DE
330
1F
100
AcDbEntity
  8
0
  6
Continuous
 62
     7
370
    15
100
AcDbLine
 10
107.4727915032
 20
192.0292082421
 30
0.0
 11
107.4753010232
 21
192.0297086221
 31
0.0
  0
LINE
  5
1DF
330
1F
100
AcDbEntity
  8
0
  6
Continuous
 62
     7
370
    15
100
AcDbLine
 10
107.2290759632
 20
192.0776866821
 30
0.0
 11
107.4727915032
 21
192.0292082421
 31
0.0
  0
LINE
  5
1E0
330
1F
100
AcDbEntity
  8
0
  6
Continuous
 62
     7
370
    15
100
AcDbLine
 10
107.0224647432
 20
192.2157407621
 30
0.0
 11
107.2290759632
 21
192.0776866821
 31
0.0
  0
LINE
  5
1E1
330
1F
100
AcDbEntity
  8
0
  6
Continuous
 62
     7
370
    15
100
AcDbLine
 10
106.8844106632
 20
192.4223519821
 30
0.0
 11
107.0224647432
 21
192.2157407621
 31
0.0
  0
LINE
  5
1E2
330
1F
100
AcDbEntity
  8
0
  6
Continuous
 62
     7
370
    15
100
AcDbLine
 10
106.8359322232
 20
192.6660675221
 30
0.0
 11
106.8844106632
 21
192.4223519821
 31
0.0
  0
LINE
  5
1E3
330
1F
100
AcDbEntity
  8
0
  6
Continuous
 62
     7
370
    15
100
AcDbLine
 10
106.8844106632
 20
192.9097830621
 30
0.0
 11
106.8359322232
 21
192.6660675221
 31
0.0
  0
LINE
  5
1E4
330
1F
100
AcDbEntity
  8
0
  6
Continuous
 62
     7
370
    15
100
AcDbLine
 10
107.0224647432
 20
193.1163942821
 30
0.0
 11
106.8844106632
 21
192.9097830621
 31
0.0
  0
LINE
  5
1E5
330
1F
100
AcDbEntity
  8
0
  6
Continuous
 62
     7
370
    15
100
AcDbLine
 10
107.2290759632
 20
193.2544483621
 30
0.0
 11
107.0224647432
 21
193.1163942821
 31
0.0
  0
LINE
  5
1E6
330
1F
100
AcDbEntity
  8
0
  6
Continuous
 62
     7
370
    15
100
AcDbLine
 10
107.4724333632
 20
193.3028556821
 30
0.0
 11
107.2290759632
 21
193.2544483621
 31
0.0
  0
LINE
  5
1E7
330
1F
100
AcDbEntity
  8
0
  6
Continuous
 62
     7
370
    15
100
AcDbLine
 10
107.4727915032
 20
193.2803944621
 30
0.0
 11
107.4724130432
 21
193.2887510621
 31
0.0
  0
LINE
  5
1E8
330
1F
100
AcDbEntity
  8
0
  6
Continuous
 62
     7
370
    15
100
AcDbLine
 10
107.6777847432
 20
193.3211690821
 30
0.0
 11
107.4727915032
 21
193.2803944621
 31
0.0
  0
LINE
  5
1E9
330
1F
100
AcDbEntity
  8
0
  6
Continuous
 62
     7
370
    15
100
AcDbLine
 10
107.8515690032
 20
193.4372902621
 30
0.0
 11
107.6777847432
 21
193.3211690821
 31
0.0
  0
LINE
  5
1EA
330
1F
100
AcDbEntity
  8
0
  6
Continuous
 62
     7
370
    15
100
AcDbLine
 10
107.9676901832
 20
193.6110745221
 30
0.0
 11
107.8515690032
 21
193.4372902621
 31
0.0
  0
LINE
  5
1EB
330
1F
100
AcDbEntity
  8
0
  6
Continuous
 62
     7
370
    15
100
AcDbLine
 10
108.0084648032
 20
193.8160677621
 30
0.0
 11
107.9676901832
 21
193.6110745221
 31
0.0
  0
LINE
  5
1EC
330
1F
100
AcDbEntity
  8
0
  6
Continuous
 62
     7
370
    15
100
AcDbLine
 10
107.9676901832
 20
194.0210610021
 30
0.0
 11
108.0084648032
 21
193.8160677621
 31
0.0
  0
LINE
  5
1ED
330
1F
100
AcDbEntity
  8
0
  6
Continuous
 62
     7
370
    15
100
AcDbLine
 10
107.8515690032
 20
194.1948452621
 30
0.0
 11
107.9676901832
 21
194.0210610021
 31
0.0
  0
LINE
  5
1EE
330
1F
100
AcDbEntity
  8
0
  6
Continuous
 62
     7
370
    15
100
AcDbLine
 10
107.6777847432
 20
194.3109664421
 30
0.0
 11
107.8515690032
 21
194.1948452621
 31
0.0
  0
LINE
  5
1EF
330
1F
100
AcDbEntity
  8
0
  6
Continuous
 62
     7
370
    15
100
AcDbLine
 10
107.4727915032
 20
194.3517410621
 30
0.0
 11
107.6777847432
 21
194.3109664421
 31
0.0
  0
LINE
  5
1F0
330
1F
100
AcDbEntity
  8
0
  6
Continuous
 62
     7
370
    15
100
AcDbLine
 10
107.4724333632
 20
194.3414464421
 30
0.0
 11
107.4727915032
 21
194.3517410621
 31
0.0
  0
LINE
  5
1F1
330
1F
100
AcDbEntity
  8
0
  6
Continuous
 62
     7
370
    15
100
AcDbLine
 10
97.4531442832
 20
194.3414464421
 30
0.0
 11
107.4727915032
 21
194.3414464421
 31
0.0
  0
LINE
  5
1F2
330
1F
100
AcDbEntity
  8
0
  6
Continuous
 62
     7
370
    15
100
AcDbLine
 10
97.4527861432
 20
194.3435394021
 30
0.0
 11
97.4531442832
 21
194.3414464421
 31
0.0
  0
LINE
  5
1F3
330
1F
100
AcDbEntity
  8
0
  6
Continuous
 62
     7
370
    15
100
AcDbLine
 10
97.4527861432
 20
194.3517410621
 30
0.0
 11
97.4531722232
 21
194.3433793821
 31
0.0
  0
LINE
  5
1F4
330
1F
100
AcDbEntity
  8
0
  6
Continuous
 62
     7
370
    15
100
AcDbLine
 10
97.2477929032
 20
194.3109664421
 30
0.0
 11
97.4527861432
 21
194.3517410621
 31
0.0
  0
LINE
  5
1F5
330
1F
100
AcDbEntity
  8
0
  6
Continuous
 62
     7
370
    15
100
AcDbLine
 10
97.0740086432
 20
194.1948452621
 30
0.0
 11
97.2477929032
 21
194.3109664421
 31
0.0
  0
LINE
  5
1F6
330
1F
100
AcDbEntity
  8
0
  6
Continuous
 62
     7
370
    15
100
AcDbLine
 10
96.9578874632
 20
194.0210610021
 30
0.0
 11
97.0740086432
 21
194.1948452621
 31
0.0
  0
LINE
  5
1F7
330
1F
100
AcDbEntity
  8
0
  6
Continuous
 62
     7
370
    15
100
AcDbLine
 10
96.9171128432
 20
193.8160677621
 30
0.0
 11
96.9578874632
 21
194.0210610021
 31
0.0
  0
LINE
  5
1F8
330
1F
100
AcDbEntity
  8
0
  6
Continuous
 62
     7
370
    15
100
AcDbLine
 10
96.9578874632
 20
193.6110745221
 30
0.0
 11
96.9171128432
 21
193.8160677621
 31
0.0
  0
LINE
  5
1F9
330
1F
100
AcDbEntity
  8
0
  6
Continuous
 62
     7
370
    15
100
AcDbLine
 10
97.0740086432
 20
193.4372902621
 30
0.0
 11
96.9578874632
 21
193.6110745221
 31
0.0
  0
LINE
  5
1FA
330
1F
100
AcDbEntity
  8
0
  6
Continuous
 62
     7
370
    15
100
AcDbLine
 10
97.2477929032
 20
193.3211690821
 30
0.0
 11
97.0740086432
 21
193.4372902621
 31
0.0
  0
LINE
  5
1FB
330
1F
100
AcDbEntity
  8
0
  6
Continuous
 62
     7
370
    15
100
AcDbLine
 10
97.4527861432
 20
193.2803944621
 30
0.0
 11
97.2477929032
 21
193.3211690821
 31
0.0
  0
LINE
  5
1FC
330
1F
100
AcDbEntity
  8
0
  6
Continuous
 62
     7
370
    15
100
AcDbLine
 10
97.4527861432
 20
193.2906890821
 30
0.0
 11
97.4527861432
 21
193.2803944621
 31
0.0
  0
LINE
  5
1FD
330
1F
100
AcDbEntity
  8
0
  6
Continuous
 62
     7
370
    15
100
AcDbLine
 10
97.4527861432
 20
193.3029268021
 30
0.0
 11
97.4527861432
 21
193.2906890821
 31
0.0
  0
LINE
  5
1FE
330
1F
100
AcDbEntity
  8
0
  6
Continuous
 62
     7
370
    15
100
AcDbLine
 10
97.6965016832
 20
193.2544483621
 30
0.0
 11
97.4531442832
 21
193.3028556821
 31
0.0
  0
LINE
  5
1FF
330
1F
100
AcDbEntity
  8
0
  6
Continuous
 62
     7
370
    15
100
AcDbLine
 10
97.9031129032
 20
193.1163942821
 30
0.0
 11
97.6965016832
 21
193.2544483621
 31
0.0
  0
LINE
  5
200
330
1F
100
AcDbEntity
  8
0
  6
Continuous
 62
     7
370
    15
100
AcDbLine
 10
98.0411669832
 20
192.9097830621
 30
0.0
 11
97.9031129032
 21
193.1163942821
 31
0.0
  0
LINE
  5
201
330
1F
100
AcDbEntity
  8
0
  6
Continuous
 62
     7
370
    15
100
AcDbLine
 10
98.0896454232
 20
192.6660675221
 30
0.0
 11
98.0411669832
 21
192.9097830621
 31
0.0
  0
LINE
  5
202
330
1F
100
AcDbEntity
  8
0
  6
Continuous
 62
     7
370
    15
100
AcDbLine
 10
98.0411669832
 20
192.4223519821
 30
0.0
 11
98.0896454232
 21
192.6660675221
 31
0.0
  0
LINE
  5
203
330
1F
100
AcDbEntity
  8
0
  6
Continuous
 62
     7
370
    15
100
AcDbLine
 10
97.9031129032
 20
192.2157407621
 30
0.0
 11
98.0411669832
 21
192.4223519821
 31
0.0
  0
LINE
  5
204
330
1F
100
AcDbEntity
  8
0
  6
Continuous
 62
     7
370
    15
100
AcDbLine
 10
97.6965016832
 20
192.0776866821
 30
0.0
 11
97.9031129032
 21
192.2157407621
 31
0.0
  0
LINE
  5
205
330
1F
100
AcDbEntity
  8
0
  6
Continuous
 62
     7
370
    15
100
AcDbLine
 10
97.4527861432
 20
192.0292082421
 30
0.0
 11
97.6965016832
 21
192.0776866821
 31
0.0
  0
LINE
  5
206
330
1F
100
AcDbEntity
  8
0
  6
Continuous
 62
     7
370
    15
100
AcDbLine
 10
97.4502766232
 20
192.0297086221
 30
0.0
 11
97.4527861432
 21
192.0292082421
 31
0.0
  0
LINE
  5
207
330
1F
100
AcDbEntity
  8
0
  6
Continuous
 62
     7
370
    15
100
AcDbLine
 10
97.4503325032
 20
192.0434982821
 30
0.0
 11
97.4502766232
 21
192.0297086221
 31
0.0
  0
LINE
  5
208
330
1F
100
AcDbEntity
  8
0
  6
Continuous
 62
     7
370
    15
100
AcDbLine
 10
97.4424940632
 20
192.0403410621
 30
0.0
 11
97.4502232832
 21
192.0435414621
 31
0.0
  0
LINE
  5
209
330
1F
100
AcDbEntity
  8
0
  6
Continuous
 62
     7
370
    15
100
AcDbLine
 10
97.4425093032
 20
192.0289669421
 30
0.0
 11
97.4424940632
 21
192.0403410621
 31
0.0
  0
LINE
  5
20A
330
1F
100
AcDbEntity
  8
0
  6
Continuous
 62
     7
370
    15
100
AcDbLine
 10
96.2379600232
 20
192.0762922221
 30
0.0
 11
97.4425093032
 21
192.0289669421
 31
0.0
  0
LINE
  5
20B
330
1F
100
AcDbEntity
  8
0
  6
Continuous
 62
     7
370
    15
100
AcDbLine
 10
95.0220696432
 20
192.2202010021
 30
0.0
 11
96.2379600232
 21
192.0762922221
 31
0.0
  0
LINE
  5
20C
330
1F
100
AcDbEntity
  8
0
  6
Continuous
 62
     7
370
    15
100
AcDbLine
 10
93.8212186032
 20
192.4590651421
 30
0.0
 11
95.0220696432
 21
192.2202010021
 31
0.0
  0
LINE
  5
20D
330
1F
100
AcDbEntity
  8
0
  6
Continuous
 62
     7
370
    15
100
AcDbLine
 10
92.6428110032
 20
192.7914114421
 30
0.0
 11
93.8212186032
 21
192.4590651421
 31
0.0
  0
LINE
  5
20E
330
1F
100
AcDbEntity
  8
0
  6
Continuous
 62
     7
370
    15
100
AcDbLine
 10
91.4941112432
 20
193.2151875821
 30
0.0
 11
92.6428110032
 21
192.7914114421
 31
0.0
  0
LINE
  5
20F
330
1F
100
AcDbEntity
  8
0
  6
Continuous
 62
     7
370
    15
100
AcDbLine
 10
90.3822033832
 20
193.7277849821
 30
0.0
 11
91.4941112432
 21
193.2151875821
 31
0.0
  0
LINE
  5
210
330
1F
100
AcDbEntity
  8
0
  6
Continuous
 62
     7
370
    15
100
AcDbLine
 10
89.3139403432
 20
194.3260413421
 30
0.0
 11
90.3822033832
 21
193.7277849821
 31
0.0
  0
LINE
  5
211
330
1F
100
AcDbEntity
  8
0
  6
Continuous
 62
     7
370
    15
100
AcDbLine
 10
88.2959083432
 20
195.0062685821
 30
0.0
 11
89.3139403432
 21
194.3260413421
 31
0.0
  0
LINE
  5
212
330
1F
100
AcDbEntity
  8
0
  6
Continuous
 62
     7
370
    15
100
AcDbLine
 10
87.3343837232
 20
195.7642731621
 30
0.0
 11
88.2959083432
 21
195.0062685821
 31
0.0
  0
LINE
  5
213
330
1F
100
AcDbEntity
  8
0
  6
Continuous
 62
     7
370
    15
100
AcDbLine
 10
86.4352973832
 20
196.5953814821
 30
0.0
 11
87.3343837232
 21
195.7642731621
 31
0.0
  0
LINE
  5
214
330
1F
100
AcDbEntity
  8
0
  6
Continuous
 62
     7
370
    15
100
AcDbLine
 10
86.4449824032
 20
196.6054830621
 30
0.0
 11
86.4352973832
 21
196.5953814821
 31
0.0
  0
LINE
  5
215
330
1F
100
AcDbEntity
  8
0
  6
Continuous
 62
     7
370
    15
100
AcDbLine
 10
79.1465895832
 20
203.9010895021
 30
0.0
 11
86.4452745032
 21
196.6053586021
 31
0.0
  0
LINE
  5
216
330
1F
100
AcDbEntity
  8
0
  6
Continuous
 62
     7
370
    15
100
AcDbLine
 10
79.1387790832
 20
203.8937844621
 30
0.0
 11
79.1465494249
 21
203.9011319714
 31
0.0
  0
LINE
  5
217
330
1F
100
AcDbEntity
  8
0
  6
Continuous
 62
     7
370
    15
100
AcDbLine
 10
78.2450191232
 20
204.8480396021
 30
0.0
 11
79.1387790832
 21
203.8937844621
 31
0.0
  0
LINE
  5
218
330
1F
100
AcDbEntity
  8
0
  6
Continuous
 62
     7
370
    15
100
AcDbLine
 10
77.4153586032
 20
205.8589850021
 30
0.0
 11
78.2450191232
 21
204.8480396021
 31
0.0
  0
LINE
  5
219
330
1F
100
AcDbEntity
  8
0
  6
Continuous
 62
     7
370
    15
100
AcDbLine
 10
76.6535922832
 20
206.9220308821
 30
0.0
 11
77.4153586032
 21
205.8589850021
 31
0.0
  0
LINE
  5
21A
330
1F
100
AcDbEntity
  8
0
  6
Continuous
 62
     7
370
    15
100
AcDbLine
 10
75.9629815232
 20
208.0326179421
 30
0.0
 11
76.6535922832
 21
206.9220308821
 31
0.0
  0
LINE
  5
21B
330
1F
100
AcDbEntity
  8
0
  6
Continuous
 62
     7
370
    15
100
AcDbLine
 10
75.3464879632
 20
209.1859989221
 30
0.0
 11
75.9629815232
 21
208.0326179421
 31
0.0
  0
LINE
  5
21C
330
1F
100
AcDbEntity
  8
0
  6
Continuous
 62
     7
370
    15
100
AcDbLine
 10
74.8067481232
 20
210.3772309821
 30
0.0
 11
75.3464879632
 21
209.1859989221
 31
0.0
  0
LINE
  5
21D
330
1F
100
AcDbEntity
  8
0
  6
Continuous
 62
     7
370
    15
100
AcDbLine
 10
74.3460759432
 20
211.6012112621
 30
0.0
 11
74.8067481232
 21
210.3772309821
 31
0.0
  0
LINE
  5
21E
330
1F
100
AcDbEntity
  8
0
  6
Continuous
 62
     7
370
    15
100
AcDbLine
 10
73.9664399232
 20
212.8526997421
 30
0.0
 11
74.3460759432
 21
211.6012112621
 31
0.0
  0
LINE
  5
21F
330
1F
100
AcDbEntity
  8
0
  6
Continuous
 62
     7
370
    15
100
AcDbLine
 10
73.8167856632
 20
213.4945348821
 30
0.0
 11
73.9664399232
 21
212.8526997421
 31
0.0
  0
LINE
  5
220
330
1F
100
AcDbEntity
  8
0
  6
Continuous
 62
     7
370
    15
100
AcDbLine
 10
73.8252083032
 20
213.4968640621
 30
0.0
 11
73.8167043832
 21
213.4948828621
 31
0.0
  0
LINE
  5
221
330
1F
100
AcDbEntity
  8
0
  6
Continuous
 62
     7
370
    15
100
AcDbLine
 10
73.6302810832
 20
214.1734692621
 30
0.0
 11
73.8252083032
 21
213.4968640621
 31
0.0
  0
LINE
  5
222
330
1F
100
AcDbEntity
  8
0
  6
Continuous
 62
     7
370
    15
100
AcDbLine
 10
73.3498066632
 20
214.8505951621
 30
0.0
 11
73.6302810832
 21
214.1734692621
 31
0.0
  0
LINE
  5
223
330
1F
100
AcDbEntity
  8
0
  6
Continuous
 62
     7
370
    15
100
AcDbLine
 10
72.9952810832
 20
215.4920594621
 30
0.0
 11
73.3498066632
 21
214.8505951621
 31
0.0
  0
LINE
  5
224
330
1F
100
AcDbEntity
  8
0
  6
Continuous
 62
     7
370
    15
100
AcDbLine
 10
72.5711645832
 20
216.0897976621
 30
0.0
 11
72.9952810832
 21
215.4920594621
 31
0.0
  0
LINE
  5
225
330
1F
100
AcDbEntity
  8
0
  6
Continuous
 62
     7
370
    15
100
AcDbLine
 10
72.0827886232
 20
216.6362888221
 30
0.0
 11
72.5711645832
 21
216.0897976621
 31
0.0
  0
LINE
  5
226
330
1F
100
AcDbEntity
  8
0
  6
Continuous
 62
     7
370
    15
100
AcDbLine
 10
71.5362974632
 20
217.1246647821
 30
0.0
 11
72.0827886232
 21
216.6362888221
 31
0.0
  0
LINE
  5
227
330
1F
100
AcDbEntity
  8
0
  6
Continuous
 62
     7
370
    15
100
AcDbLine
 10
70.9385592632
 20
217.5487812821
 30
0.0
 11
71.5362974632
 21
217.1246647821
 31
0.0
  0
LINE
  5
228
330
1F
100
AcDbEntity
  8
0
  6
Continuous
 62
     7
370
    15
100
AcDbLine
 10
70.2970949632
 20
217.9033068621
 30
0.0
 11
70.9385592632
 21
217.5487812821
 31
0.0
  0
LINE
  5
229
330
1F
100
AcDbEntity
  8
0
  6
Continuous
 62
     7
370
    15
100
AcDbLine
 10
69.6199690632
 20
218.1837812821
 30
0.0
 11
70.2970949632
 21
217.9033068621
 31
0.0
  0
LINE
  5
22A
330
1F
100
AcDbEntity
  8
0
  6
Continuous
 62
     7
370
    15
100
AcDbLine
 10
68.9156981832
 20
218.3866790221
 30
0.0
 11
69.6199690632
 21
218.1837812821
 31
0.0
  0
LINE
  5
22B
330
1F
100
AcDbEntity
  8
0
  6
Continuous
 62
     7
370
    15
100
AcDbLine
 10
68.1931367632
 20
218.5094473821
 30
0.0
 11
68.9156981832
 21
218.3866790221
 31
0.0
  0
LINE
  5
22C
330
1F
100
AcDbEntity
  8
0
  6
Continuous
 62
     7
370
    15
100
AcDbLine
 10
67.4613754632
 20
218.5505420421
 30
0.0
 11
68.1931367632
 21
218.5094473821
 31
0.0
  0
LINE
  5
22D
330
1F
100
AcDbEntity
  8
0
  6
Continuous
 62
     7
370
    15
100
AcDbLine
 10
66.7296141632
 20
218.5094473821
 30
0.0
 11
67.4613754632
 21
218.5505420421
 31
0.0
  0
LINE
  5
22E
330
1F
100
AcDbEntity
  8
0
  6
Continuous
 62
     7
370
    15
100
AcDbLine
 10
66.0070527432
 20
218.3866790221
 30
0.0
 11
66.7296141632
 21
218.5094473821
 31
0.0
  0
LINE
  5
22F
330
1F
100
AcDbEntity
  8
0
  6
Continuous
 62
     7
370
    15
100
AcDbLine
 10
65.3027818632
 20
218.1837812821
 30
0.0
 11
66.0070527432
 21
218.3866790221
 31
0.0
  0
LINE
  5
230
330
1F
100
AcDbEntity
  8
0
  6
Continuous
 62
     7
370
    15
100
AcDbLine
 10
64.7906365832
 20
217.9716455621
 30
0.0
 11
65.3027818632
 21
218.1837812821
 31
0.0
  0
LINE
  5
231
330
1F
100
AcDbEntity
  8
0
  6
Continuous
 62
     7
370
    15
100
AcDbLine
 10
64.7917414832
 20
217.9691792221
 30
0.0
 11
64.7906365832
 21
217.9716455621
 31
0.0
  0
LINE
  5
232
330
1F
100
AcDbEntity
  8
0
  6
Continuous
 62
     7
370
    15
100
AcDbLine
 10
64.7920843832
 20
217.9682038621
 30
0.0
 11
64.7917414832
 21
217.9691792221
 31
0.0
  0
LINE
  5
233
330
1F
100
AcDbEntity
  8
0
  6
Continuous
 62
     7
370
    15
100
AcDbLine
 10
64.7432173232
 20
217.9479626021
 30
0.0
 11
64.7920843832
 21
217.9682038621
 31
0.0
  0
LINE
  5
234
330
1F
100
AcDbEntity
  8
0
  6
Continuous
 62
     7
370
    15
100
AcDbLine
 10
64.5634513632
 20
217.9242948821
 30
0.0
 11
64.7432173232
 21
217.9479626021
 31
0.0
  0
LINE
  5
235
330
1F
100
AcDbEntity
  8
0
  6
Continuous
 62
     7
370
    15
100
AcDbLine
 10
64.3836854032
 20
217.9479626021
 30
0.0
 11
64.5634513632
 21
217.9242948821
 31
0.0
  0
LINE
  5
236
330
1F
100
AcDbEntity
  8
0
  6
Continuous
 62
     7
370
    15
100
AcDbLine
 10
64.2161698632
 20
218.0173477821
 30
0.0
 11
64.3836854032
 21
217.9479626021
 31
0.0
  0
LINE
  5
237
330
1F
100
AcDbEntity
  8
0
  6
Continuous
 62
     7
370
    15
100
AcDbLine
 10
64.1387151032
 20
218.0767812421
 30
0.0
 11
64.2161698632
 21
218.0173477821
 31
0.0
  0
LINE
  5
238
330
1F
100
AcDbEntity
  8
0
  6
Continuous
 62
     7
370
    15
100
AcDbLine
 10
64.1393348632
 20
218.0775711821
 30
0.0
 11
64.1387151032
 21
218.0767812421
 31
0.0
  0
LINE
  5
239
330
1F
100
AcDbEntity
  8
0
  6
Continuous
 62
     7
370
    15
100
AcDbLine
 10
64.1316132632
 20
218.0807715821
 30
0.0
 11
64.1393348632
 21
218.0775711821
 31
0.0
  0
LINE
  5
23A
330
1F
100
AcDbEntity
  8
0
  6
Continuous
 62
     7
370
    15
100
AcDbLine
 10
64.0212020032
 20
218.1911396621
 30
0.0
 11
64.1316132632
 21
218.0807715821
 31
0.0
  0
LINE
  5
23B
330
1F
100
AcDbEntity
  8
0
  6
Continuous
 62
     7
370
    15
100
AcDbLine
 10
64.0226802832
 20
218.1926179421
 30
0.0
 11
64.0212020032
 21
218.1911396621
 31
0.0
  0
LINE
  5
23C
330
1F
100
AcDbEntity
  8
0
  6
Continuous
 62
     7
370
    15
100
AcDbLine
 10
64.0150425032
 20
218.1957827821
 30
0.0
 11
64.0226802832
 21
218.1926179421
 31
0.0
  0
LINE
  5
23D
330
1F
100
AcDbEntity
  8
0
  6
Continuous
 62
     7
370
    15
100
AcDbLine
 10
63.9273464632
 20
218.2631486621
 30
0.0
 11
64.0150958432
 21
218.1958183421
 31
0.0
  0
LINE
  5
23E
330
1F
100
AcDbEntity
  8
0
  6
Continuous
 62
     7
370
    15
100
AcDbLine
 10
63.7508875832
 20
218.3362397021
 30
0.0
 11
63.9273464632
 21
218.2631486621
 31
0.0
  0
LINE
  5
23F
330
1F
100
AcDbEntity
  8
0
  6
Continuous
 62
     7
370
    15
100
AcDbLine
 10
63.5615255032
 20
218.3611698021
 30
0.0
 11
63.7508875832
 21
218.3362397021
 31
0.0
  0
LINE
  5
240
330
1F
100
AcDbEntity
  8
0
  6
Continuous
 62
     7
370
    15
100
AcDbLine
 10
63.3721634232
 20
218.3362397021
 30
0.0
 11
63.5615255032
 21
218.3611698021
 31
0.0
  0
LINE
  5
241
330
1F
100
AcDbEntity
  8
0
  6
Continuous
 62
     7
370
    15
100
AcDbLine
 10
63.1957045432
 20
218.2631486621
 30
0.0
 11
63.3721634232
 21
218.3362397021
 31
0.0
  0
LINE
  5
242
330
1F
100
AcDbEntity
  8
0
  6
Continuous
 62
     7
370
    15
100
AcDbLine
 10
63.0975106832
 20
218.1878021021
 30
0.0
 11
63.1957045432
 21
218.2631486621
 31
0.0
  0
LINE
  5
243
330
1F
100
AcDbEntity
  8
0
  6
Continuous
 62
     7
370
    15
100
AcDbLine
 10
63.0946633432
 20
218.1872839421
 30
0.0
 11
63.0971017432
 21
218.1882974021
 31
0.0
  0
LINE
  5
244
330
1F
100
AcDbEntity
  8
0
  6
Continuous
 62
     7
370
    15
100
AcDbLine
 10
63.0928472432
 20
218.1829024421
 30
0.0
 11
63.0946633432
 21
218.1872839421
 31
0.0
  0
LINE
  5
245
330
1F
100
AcDbEntity
  8
0
  6
Continuous
 62
     7
370
    15
100
AcDbLine
 10
61.3490966032
 20
216.4382501021
 30
0.0
 11
63.0928472432
 21
218.1829024421
 31
0.0
  0
LINE
  5
246
330
1F
100
AcDbEntity
  8
0
  6
Continuous
 62
     7
370
    15
100
AcDbLine
 10
61.3476183232
 20
216.4397283821
 30
0.0
 11
61.3490966032
 21
216.4382501021
 31
0.0
  0
LINE
  5
247
330
1F
100
AcDbEntity
  8
0
  6
Continuous
 62
     7
370
    15
100
AcDbLine
 10
61.3460562232
 20
216.4359615621
 30
0.0
 11
61.3476183232
 21
216.4397283821
 31
0.0
  0
LINE
  5
248
330
1F
100
AcDbEntity
  8
0
  6
Continuous
 62
     7
370
    15
100
AcDbLine
 10
61.3435721032
 20
216.4387327021
 30
0.0
 11
61.3461502615
 21
216.4360520033
 31
0.0
  0
LINE
  5
249
330
1F
100
AcDbEntity
  8
0
  6
Continuous
 62
     7
370
    15
100
AcDbLine
 10
61.3321090832
 20
216.4299366821
 30
0.0
 11
61.3435721032
 21
216.4387327021
 31
0.0
  0
LINE
  5
24A
330
1F
100
AcDbEntity
  8
0
  6
Continuous
 62
     7
370
    15
100
AcDbLine
 10
61.2158380432
 20
216.2784079021
 30
0.0
 11
61.3321090832
 21
216.4299366821
 31
0.0
  0
LINE
  5
24B
330
1F
100
AcDbEntity
  8
0
  6
Continuous
 62
     7
370
    15
100
AcDbLine
 10
61.1427470032
 20
216.1019515621
 30
0.0
 11
61.2158380432
 21
216.2784079021
 31
0.0
  0
LINE
  5
24C
330
1F
100
AcDbEntity
  8
0
  6
Continuous
 62
     7
370
    15
100
AcDbLine
 10
61.1178169032
 20
215.9125894821
 30
0.0
 11
61.1427470032
 21
216.1019515621
 31
0.0
  0
LINE
  5
24D
330
1F
100
AcDbEntity
  8
0
  6
Continuous
 62
     7
370
    15
100
AcDbLine
 10
61.1427470032
 20
215.7232274021
 30
0.0
 11
61.1178169032
 21
215.9125894821
 31
0.0
  0
LINE
  5
24E
330
1F
100
AcDbEntity
  8
0
  6
Continuous
 62
     7
370
    15
100
AcDbLine
 10
61.2158380432
 20
215.5467710621
 30
0.0
 11
61.1427470032
 21
215.7232274021
 31
0.0
  0
LINE
  5
24F
330
1F
100
AcDbEntity
  8
0
  6
Continuous
 62
     7
370
    15
100
AcDbLine
 10
61.2911846032
 20
215.4485746621
 30
0.0
 11
61.2158380432
 21
215.5467710621
 31
0.0
  0
LINE
  5
250
330
1F
100
AcDbEntity
  8
0
  6
Continuous
 62
     7
370
    15
100
AcDbLine
 10
61.2917027632
 20
215.4457273221
 30
0.0
 11
61.2906893032
 21
215.4481657221
 31
0.0
  0
LINE
  5
251
330
1F
100
AcDbEntity
  8
0
  6
Continuous
 62
     7
370
    15
100
AcDbLine
 10
61.2944840632
 20
215.4445741621
 30
0.0
 11
61.2917027632
 21
215.4457273221
 31
0.0
  0
LINE
  5
252
330
1F
100
AcDbEntity
  8
0
  6
Continuous
 62
     7
370
    15
100
AcDbLine
 10
61.4036177032
 20
215.3369442021
 30
0.0
 11
61.2939201832
 21
215.4442566621
 31
0.0
  0
LINE
  5
253
330
1F
100
AcDbEntity
  8
0
  6
Continuous
 62
     7
370
    15
100
AcDbLine
 10
61.4021394232
 20
215.3354659221
 30
0.0
 11
61.4036177032
 21
215.3369442021
 31
0.0
  0
LINE
  5
254
330
1F
100
AcDbEntity
  8
0
  6
Continuous
 62
     7
370
    15
100
AcDbLine
 10
61.4057233632
 20
215.3339800221
 30
0.0
 11
61.4021394232
 21
215.3354659221
 31
0.0
  0
LINE
  5
255
330
1F
100
AcDbEntity
  8
0
  6
Continuous
 62
     7
370
    15
100
AcDbLine
 10
61.4062364432
 20
215.3346582021
 30
0.0
 11
61.4057233632
 21
215.3339800221
 31
0.0
  0
LINE
  5
256
330
1F
100
AcDbEntity
  8
0
  6
Continuous
 62
     7
370
    15
100
AcDbLine
 10
61.4614484232
 20
215.2627076221
 30
0.0
 11
61.4062364432
 21
215.3346582021
 31
0.0
  0
LINE
  5
257
330
1F
100
AcDbEntity
  8
0
  6
Continuous
 62
     7
370
    15
100
AcDbLine
 10
61.5308132832
 20
215.0952454221
 30
0.0
 11
61.4614484232
 21
215.2627076221
 31
0.0
  0
LINE
  5
258
330
1F
100
AcDbEntity
  8
0
  6
Continuous
 62
     7
370
    15
100
AcDbLine
 10
61.5544733832
 20
214.9155353421
 30
0.0
 11
61.5308132832
 21
215.0952454221
 31
0.0
  0
LINE
  5
259
330
1F
100
AcDbEntity
  8
0
  6
Continuous
 62
     7
370
    15
100
AcDbLine
 10
61.5308132832
 20
214.7358252621
 30
0.0
 11
61.5544733832
 21
214.9155353421
 31
0.0
  0
LINE
  5
25A
330
1F
100
AcDbEntity
  8
0
  6
Continuous
 62
     7
370
    15
100
AcDbLine
 10
61.5201325832
 20
214.7100391821
 30
0.0
 11
61.5308132832
 21
214.7358252621
 31
0.0
  0
LINE
  5
25B
330
1F
100
AcDbEntity
  8
0
  6
Continuous
 62
     7
370
    15
100
AcDbLine
 10
61.5173106432
 20
214.7109205621
 30
0.0
 11
61.5201325832
 21
214.7100391821
 31
0.0
  0
LINE
  5
25C
330
1F
100
AcDbEntity
  8
0
  6
Continuous
 62
     7
370
    15
100
AcDbLine
 10
61.5149078032
 20
214.7051268221
 30
0.0
 11
61.5173106432
 21
214.7109205621
 31
0.0
  0
LINE
  5
25D
330
1F
100
AcDbEntity
  8
0
  6
Continuous
 62
     7
370
    15
100
AcDbLine
 10
61.5132288632
 20
214.7064298421
 30
0.0
 11
61.5151120527
 21
214.7055787704
 31
0.0
  0
LINE
  5
25E
330
1F
100
AcDbEntity
  8
0
  6
Continuous
 62
     7
370
    15
100
AcDbLine
 10
61.2924698432
 20
214.1734692621
 30
0.0
 11
61.5132288632
 21
214.7064298421
 31
0.0
  0
LINE
  5
25F
330
1F
100
AcDbEntity
  8
0
  6
Continuous
 62
     7
370
    15
100
AcDbLine
 10
61.0895721032
 20
213.4691983821
 30
0.0
 11
61.2924698432
 21
214.1734692621
 31
0.0
  0
LINE
  5
260
330
1F
100
AcDbEntity
  8
0
  6
Continuous
 62
     7
370
    15
100
AcDbLine
 10
60.9668037432
 20
212.7466369621
 30
0.0
 11
61.0895721032
 21
213.4691983821
 31
0.0
  0
LINE
  5
261
330
1F
100
AcDbEntity
  8
0
  6
Continuous
 62
     7
370
    15
100
AcDbLine
 10
60.9257090832
 20
212.0148756621
 30
0.0
 11
60.9668037432
 21
212.7466369621
 31
0.0
  0
LINE
  5
262
330
1F
100
AcDbEntity
  8
0
  6
Continuous
 62
     7
370
    15
100
AcDbLine
 10
60.9668037432
 20
211.2831143621
 30
0.0
 11
60.9257090832
 21
212.0148756621
 31
0.0
  0
LINE
  5
263
330
1F
100
AcDbEntity
  8
0
  6
Continuous
 62
     7
370
    15
100
AcDbLine
 10
61.0895721032
 20
210.5605529421
 30
0.0
 11
60.9668037432
 21
211.2831143621
 31
0.0
  0
LINE
  5
264
330
1F
100
AcDbEntity
  8
0
  6
Continuous
 62
     7
370
    15
100
AcDbLine
 10
61.2924698432
 20
209.8562820621
 30
0.0
 11
61.0895721032
 21
210.5605529421
 31
0.0
  0
LINE
  5
265
330
1F
100
AcDbEntity
  8
0
  6
Continuous
 62
     7
370
    15
100
AcDbLine
 10
61.5729442632
 20
209.1791561621
 30
0.0
 11
61.2924698432
 21
209.8562820621
 31
0.0
  0
LINE
  5
266
330
1F
100
AcDbEntity
  8
0
  6
Continuous
 62
     7
370
    15
100
AcDbLine
 10
61.9274698432
 20
208.5376918621
 30
0.0
 11
61.5729442632
 21
209.1791561621
 31
0.0
  0
LINE
  5
267
330
1F
100
AcDbEntity
  8
0
  6
Continuous
 62
     7
370
    15
100
AcDbLine
 10
62.3515863432
 20
207.9399536621
 30
0.0
 11
61.9274698432
 21
208.5376918621
 31
0.0
  0
LINE
  5
268
330
1F
100
AcDbEntity
  8
0
  6
Continuous
 62
     7
370
    15
100
AcDbLine
 10
62.8399623032
 20
207.3934625021
 30
0.0
 11
62.3515863432
 21
207.9399536621
 31
0.0
  0
LINE
  5
269
330
1F
100
AcDbEntity
  8
0
  6
Continuous
 62
     7
370
    15
100
AcDbLine
 10
63.3864534632
 20
206.9050865421
 30
0.0
 11
62.8399623032
 21
207.3934625021
 31
0.0
  0
LINE
  5
26A
330
1F
100
AcDbEntity
  8
0
  6
Continuous
 62
     7
370
    15
100
AcDbLine
 10
63.9841916632
 20
206.4809700421
 30
0.0
 11
63.3864534632
 21
206.9050865421
 31
0.0
  0
LINE
  5
26B
330
1F
100
AcDbEntity
  8
0
  6
Continuous
 62
     7
370
    15
100
AcDbLine
 10
64.6256559632
 20
206.1264444621
 30
0.0
 11
63.9841916632
 21
206.4809700421
 31
0.0
  0
LINE
  5
26C
330
1F
100
AcDbEntity
  8
0
  6
Continuous
 62
     7
370
    15
100
AcDbLine
 10
65.3027818632
 20
205.8459700421
 30
0.0
 11
64.6256559632
 21
206.1264444621
 31
0.0
  0
LINE
  5
26D
330
1F
100
AcDbEntity
  8
0
  6
Continuous
 62
     7
370
    15
100
AcDbLine
 10
65.9793870632
 20
205.6510428221
 30
0.0
 11
65.3027818632
 21
205.8459700421
 31
0.0
  0
LINE
  5
26E
330
1F
100
AcDbEntity
  8
0
  6
Continuous
 62
     7
370
    15
100
AcDbLine
 10
65.9813682632
 20
205.6595467421
 30
0.0
 11
65.9793870632
 21
205.6510428221
 31
0.0
  0
LINE
  5
26F
330
1F
100
AcDbEntity
  8
0
  6
Continuous
 62
     7
370
    15
100
AcDbLine
 10
66.6235513832
 20
205.5098112021
 30
0.0
 11
65.9817162432
 21
205.6594654621
 31
0.0
  0
LINE
  5
270
330
1F
100
AcDbEntity
  8
0
  6
Continuous
 62
     7
370
    15
100
AcDbLine
 10
67.8750398632
 20
205.1301751821
 30
0.0
 11
66.6235513832
 21
205.5098112021
 31
0.0
  0
LINE
  5
271
330
1F
100
AcDbEntity
  8
0
  6
Continuous
 62
     7
370
    15
100
AcDbLine
 10
69.0990201432
 20
204.6695030021
 30
0.0
 11
67.8750398632
 21
205.1301751821
 31
0.0
  0
LINE
  5
272
330
1F
100
AcDbEntity
  8
0
  6
Continuous
 62
     7
370
    15
100
AcDbLine
 10
70.2902522032
 20
204.1297631621
 30
0.0
 11
69.0990201432
 21
204.6695030021
 31
0.0
  0
LINE
  5
273
330
1F
100
AcDbEntity
  8
0
  6
Continuous
 62
     7
370
    15
100
AcDbLine
 10
71.4436331832
 20
203.5132696021
 30
0.0
 11
70.2902522032
 21
204.1297631621
 31
0.0
  0
LINE
  5
274
330
1F
100
AcDbEntity
  8
0
  6
Continuous
 62
     7
370
    15
100
AcDbLine
 10
72.5542202432
 20
202.8226588421
 30
0.0
 11
71.4436331832
 21
203.5132696021
 31
0.0
  0
LINE
  5
275
330
1F
100
AcDbEntity
  8
0
  6
Continuous
 62
     7
370
    15
100
AcDbLine
 10
73.6172661232
 20
202.0608925221
 30
0.0
 11
72.5542202432
 21
202.8226588421
 31
0.0
  0
LINE
  5
276
330
1F
100
AcDbEntity
  8
0
  6
Continuous
 62
     7
370
    15
100
AcDbLine
 10
74.6282115232
 20
201.2312320021
 30
0.0
 11
73.6172661232
 21
202.0608925221
 31
0.0
  0
LINE
  5
277
330
1F
100
AcDbEntity
  8
0
  6
Continuous
 62
     7
370
    15
100
AcDbLine
 10
75.5824666632
 20
200.3374720421
 30
0.0
 11
74.6282115232
 21
201.2312320021
 31
0.0
  0
LINE
  5
278
330
1F
100
AcDbEntity
  8
0
  6
Continuous
 62
     7
370
    15
100
AcDbLine
 10
75.5736833432
 20
200.3281832621
 30
0.0
 11
75.5824666632
 21
200.3374720421
 31
0.0
  0
LINE
  5
279
330
1F
100
AcDbEntity
  8
0
  6
Continuous
 62
     7
370
    15
100
AcDbLine
 10
82.8721777632
 20
193.0326479421
 30
0.0
 11
75.5735233232
 21
200.3285693421
 31
0.0
  0
LINE
  5
27A
330
1F
100
AcDbEntity
  8
0
  6
Continuous
 62
     7
370
    15
100
AcDbLine
 10
82.8808696432
 20
193.0409537421
 30
0.0
 11
82.8723708032
 21
193.0324549021
 31
0.0
  0
LINE
  5
27B
330
1F
100
AcDbEntity
  8
0
  6
Continuous
 62
     7
370
    15
100
AcDbLine
 10
83.7119779632
 20
192.1418674021
 30
0.0
 11
82.8808696432
 21
193.0409537421
 31
0.0
  0
LINE
  5
27C
330
1F
100
AcDbEntity
  8
0
  6
Continuous
 62
     7
370
    15
100
AcDbLine
 10
84.4699825432
 20
191.1803427821
 30
0.0
 11
83.7119779632
 21
192.1418674021
 31
0.0
  0
LINE
  5
27D
330
1F
100
AcDbEntity
  8
0
  6
Continuous
 62
     7
370
    15
100
AcDbLine
 10
85.1502097832
 20
190.1623107821
 30
0.0
 11
84.4699825432
 21
191.1803427821
 31
0.0
  0
LINE
  5
27E
330
1F
100
AcDbEntity
  8
0
  6
Continuous
 62
     7
370
    15
100
AcDbLine
 10
85.7484661432
 20
189.0940477421
 30
0.0
 11
85.1502097832
 21
190.1623107821
 31
0.0
  0
LINE
  5
27F
330
1F
100
AcDbEntity
  8
0
  6
Continuous
 62
     7
370
    15
100
AcDbLine
 10
86.2610635432
 20
187.9821398821
 30
0.0
 11
85.7484661432
 21
189.0940477421
 31
0.0
  0
LINE
  5
280
330
1F
100
AcDbEntity
  8
0
  6
Continuous
 62
     7
370
    15
100
AcDbLine
 10
86.6848396832
 20
186.8334401221
 30
0.0
 11
86.2610635432
 21
187.9821398821
 31
0.0
  0
LINE
  5
281
330
1F
100
AcDbEntity
  8
0
  6
Continuous
 62
     7
370
    15
100
AcDbLine
 10
87.0171859832
 20
185.6550325221
 30
0.0
 11
86.6848396832
 21
186.8334401221
 31
0.0
  0
LINE
  5
282
330
1F
100
AcDbEntity
  8
0
  6
Continuous
 62
     7
370
    15
100
AcDbLine
 10
87.2560501232
 20
184.4541814821
 30
0.0
 11
87.0171859832
 21
185.6550325221
 31
0.0
  0
LINE
  5
283
330
1F
100
AcDbEntity
  8
0
  6
Continuous
 62
     7
370
    15
100
AcDbLine
 10
87.3999589032
 20
183.2382911021
 30
0.0
 11
87.2560501232
 21
184.4541814821
 31
0.0
  0
LINE
  5
284
330
1F
100
AcDbEntity
  8
0
  6
Continuous
 62
     7
370
    15
100
AcDbLine
 10
87.4480284032
 20
182.0148594621
 30
0.0
 11
87.3999589032
 21
183.2382911021
 31
0.0
  0
LINE
  5
285
330
1F
100
AcDbEntity
  8
0
  6
Continuous
 62
     7
370
    15
100
AcDbLine
 10
87.4360065832
 20
172.0148540621
 30
0.0
 11
87.4480284032
 21
182.0148594621
 31
0.0
  0
LINE
  5
286
330
1F
100
AcDbEntity
  8
0
  6
Continuous
 62
     7
370
    15
100
AcDbLine
 10
87.4480284032
 20
172.0148540621
 30
0.0
 11
87.4360065832
 21
172.0148540621
 31
0.0
  0
LINE
  5
287
330
1F
100
AcDbEntity
  8
0
  6
Continuous
 62
     7
370
    15
100
AcDbLine
 10
87.3999589032
 20
170.7914224221
 30
0.0
 11
87.4480284032
 21
172.0148540621
 31
0.0
  0
LINE
  5
288
330
1F
100
AcDbEntity
  8
0
  6
Continuous
 62
     7
370
    15
100
AcDbLine
 10
87.2560501232
 20
169.5755320421
 30
0.0
 11
87.3999589032
 21
170.7914224221
 31
0.0
  0
LINE
  5
289
330
1F
100
AcDbEntity
  8
0
  6
Continuous
 62
     7
370
    15
100
AcDbLine
 10
87.0171859832
 20
168.3746810021
 30
0.0
 11
87.2560501232
 21
169.5755320421
 31
0.0
  0
LINE
  5
28A
330
1F
100
AcDbEntity
  8
0
  6
Continuous
 62
     7
370
    15
100
AcDbLine
 10
86.6848396832
 20
167.1962734021
 30
0.0
 11
87.0171859832
 21
168.3746810021
 31
0.0
  0
LINE
  5
28B
330
1F
100
AcDbEntity
  8
0
  6
Continuous
 62
     7
370
    15
100
AcDbLine
 10
86.2610635432
 20
166.0475736421
 30
0.0
 11
86.6848396832
 21
167.1962734021
 31
0.0
  0
LINE
  5
28C
330
1F
100
AcDbEntity
  8
0
  6
Continuous
 62
     7
370
    15
100
AcDbLine
 10
85.7484661432
 20
164.9356657821
 30
0.0
 11
86.2610635432
 21
166.0475736421
 31
0.0
  0
LINE
  5
28D
330
1F
100
AcDbEntity
  8
0
  6
Continuous
 62
     7
370
    15
100
AcDbLine
 10
85.1502097832
 20
163.8674027421
 30
0.0
 11
85.7484661432
 21
164.9356657821
 31
0.0
  0
LINE
  5
28E
330
1F
100
AcDbEntity
  8
0
  6
Continuous
 62
     7
370
    15
100
AcDbLine
 10
84.4699825432
 20
162.8493707421
 30
0.0
 11
85.1502097832
 21
163.8674027421
 31
0.0
  0
LINE
  5
28F
330
1F
100
AcDbEntity
  8
0
  6
Continuous
 62
     7
370
    15
100
AcDbLine
 10
83.7119779632
 20
161.8878461221
 30
0.0
 11
84.4699825432
 21
162.8493707421
 31
0.0
  0
LINE
  5
290
330
1F
100
AcDbEntity
  8
0
  6
Continuous
 62
     7
370
    15
100
AcDbLine
 10
82.8808696432
 20
160.9887597821
 30
0.0
 11
83.7119779632
 21
161.8878461221
 31
0.0
  0
LINE
  5
291
330
1F
100
AcDbEntity
  8
0
  6
Continuous
 62
     7
370
    15
100
AcDbLine
 10
82.8707680632
 20
160.9984448021
 30
0.0
 11
82.8808696432
 21
160.9887597821
 31
0.0
  0
LINE
  5
292
330
1F
100
AcDbEntity
  8
0
  6
Continuous
 62
     7
370
    15
100
AcDbLine
 10
75.5751616232
 20
153.7000519821
 30
0.0
 11
82.8708925232
 21
160.9987369021
 31
0.0
  0
LINE
  5
293
330
1F
100
AcDbEntity
  8
0
  6
Continuous
 62
     7
370
    15
100
AcDbLine
 10
75.5824666632
 20
153.6922414821
 30
0.0
 11
75.5751191539
 21
153.7000118237
 31
0.0
  0
LINE
  5
294
330
1F
100
AcDbEntity
  8
0
  6
Continuous
 62
     7
370
    15
100
AcDbLine
 10
74.6282115232
 20
152.7984815221
 30
0.0
 11
75.5824666632
 21
153.6922414821
 31
0.0
  0
LINE
  5
295
330
1F
100
AcDbEntity
  8
0
  6
Continuous
 62
     7
370
    15
100
AcDbLine
 10
73.6172661232
 20
151.9688210021
 30
0.0
 11
74.6282115232
 21
152.7984815221
 31
0.0
  0
LINE
  5
296
330
1F
100
AcDbEntity
  8
0
  6
Continuous
 62
     7
370
    15
100
AcDbLine
 10
72.5542202432
 20
151.2070546821
 30
0.0
 11
73.6172661232
 21
151.9688210021
 31
0.0
  0
LINE
  5
297
330
1F
100
AcDbEntity
  8
0
  6
Continuous
 62
     7
370
    15
100
AcDbLine
 10
71.4436331832
 20
150.5164439221
 30
0.0
 11
72.5542202432
 21
151.2070546821
 31
0.0
  0
LINE
  5
298
330
1F
100
AcDbEntity
  8
0
  6
Continuous
 62
     7
370
    15
100
AcDbLine
 10
70.2902522032
 20
149.8999503621
 30
0.0
 11
71.4436331832
 21
150.5164439221
 31
0.0
  0
LINE
  5
299
330
1F
100
AcDbEntity
  8
0
  6
Continuous
 62
     7
370
    15
100
AcDbLine
 10
69.0990201432
 20
149.3602105221
 30
0.0
 11
70.2902522032
 21
149.8999503621
 31
0.0
  0
LINE
  5
29A
330
1F
100
AcDbEntity
  8
0
  6
Continuous
 62
     7
370
    15
100
AcDbLine
 10
67.8750398632
 20
148.8995383421
 30
0.0
 11
69.0990201432
 21
149.3602105221
 31
0.0
  0
LINE
  5
29B
330
1F
100
AcDbEntity
  8
0
  6
Continuous
 62
     7
370
    15
100
AcDbLine
 10
66.6235513832
 20
148.5199023221
 30
0.0
 11
67.8750398632
 21
148.8995383421
 31
0.0
  0
LINE
  5
29C
330
1F
100
AcDbEntity
  8
0
  6
Continuous
 62
     7
370
    15
100
AcDbLine
 10
65.9817162432
 20
148.3702480621
 30
0.0
 11
66.6235513832
 21
148.5199023221
 31
0.0
  0
LINE
  5
29D
330
1F
100
AcDbEntity
  8
0
  6
Continuous
 62
     7
370
    15
100
AcDbLine
 10
65.9793870632
 20
148.3786707021
 30
0.0
 11
65.9813682632
 21
148.3701667821
 31
0.0
  0
LINE
  5
29E
330
1F
100
AcDbEntity
  8
0
  6
Continuous
 62
     7
370
    15
100
AcDbLine
 10
65.3027818632
 20
148.1837434821
 30
0.0
 11
65.9793870632
 21
148.3786707021
 31
0.0
  0
LINE
  5
29F
330
1F
100
AcDbEntity
  8
0
  6
Continuous
 62
     7
370
    15
100
AcDbLine
 10
64.6256559632
 20
147.9032690621
 30
0.0
 11
65.3027818632
 21
148.1837434821
 31
0.0
  0
LINE
  5
2A0
330
1F
100
AcDbEntity
  8
0
  6
Continuous
 62
     7
370
    15
100
AcDbLine
 10
63.9841916632
 20
147.5487434821
 30
0.0
 11
64.6256559632
 21
147.9032690621
 31
0.0
  0
LINE
  5
2A1
330
1F
100
AcDbEntity
  8
0
  6
Continuous
 62
     7
370
    15
100
AcDbLine
 10
63.3864534632
 20
147.1246269821
 30
0.0
 11
63.9841916632
 21
147.5487434821
 31
0.0
  0
LINE
  5
2A2
330
1F
100
AcDbEntity
  8
0
  6
Continuous
 62
     7
370
    15
100
AcDbLine
 10
62.8399623032
 20
146.6362510221
 30
0.0
 11
63.3864534632
 21
147.1246269821
 31
0.0
  0
LINE
  5
2A3
330
1F
100
AcDbEntity
  8
0
  6
Continuous
 62
     7
370
    15
100
AcDbLine
 10
62.3515863432
 20
146.0897598621
 30
0.0
 11
62.8399623032
 21
146.6362510221
 31
0.0
  0
LINE
  5
2A4
330
1F
100
AcDbEntity
  8
0
  6
Continuous
 62
     7
370
    15
100
AcDbLine
 10
61.9274698432
 20
145.4920216621
 30
0.0
 11
62.3515863432
 21
146.0897598621
 31
0.0
  0
LINE
  5
2A5
330
1F
100
AcDbEntity
  8
0
  6
Continuous
 62
     7
370
    15
100
AcDbLine
 10
61.5729442632
 20
144.8505573621
 30
0.0
 11
61.9274698432
 21
145.4920216621
 31
0.0
  0
LINE
  5
2A6
330
1F
100
AcDbEntity
  8
0
  6
Continuous
 62
     7
370
    15
100
AcDbLine
 10
61.2924698432
 20
144.1734314621
 30
0.0
 11
61.5729442632
 21
144.8505573621
 31
0.0
  0
LINE
  5
2A7
330
1F
100
AcDbEntity
  8
0
  6
Continuous
 62
     7
370
    15
100
AcDbLine
 10
61.0895721032
 20
143.4691605821
 30
0.0
 11
61.2924698432
 21
144.1734314621
 31
0.0
  0
LINE
  5
2A8
330
1F
100
AcDbEntity
  8
0
  6
Continuous
 62
     7
370
    15
100
AcDbLine
 10
60.9668037432
 20
142.7465991621
 30
0.0
 11
61.0895721032
 21
143.4691605821
 31
0.0
  0
LINE
  5
2A9
330
1F
100
AcDbEntity
  8
0
  6
Continuous
 62
     7
370
    15
100
AcDbLine
 10
60.9257090832
 20
142.0148378621
 30
0.0
 11
60.9668037432
 21
142.7465991621
 31
0.0
  0
LINE
  5
2AA
330
1F
100
AcDbEntity
  8
0
  6
Continuous
 62
     7
370
    15
100
AcDbLine
 10
60.9668037432
 20
141.2830765621
 30
0.0
 11
60.9257090832
 21
142.0148378621
 31
0.0
  0
LINE
  5
2AB
330
1F
100
AcDbEntity
  8
0
  6
Continuous
 62
     7
370
    15
100
AcDbLine
 10
61.0895721032
 20
140.5605151421
 30
0.0
 11
60.9668037432
 21
141.2830765621
 31
0.0
  0
LINE
  5
2AC
330
1F
100
AcDbEntity
  8
0
  6
Continuous
 62
     7
370
    15
100
AcDbLine
 10
61.2924698432
 20
139.8562442621
 30
0.0
 11
61.0895721032
 21
140.5605151421
 31
0.0
  0
LINE
  5
2AD
330
1F
100
AcDbEntity
  8
0
  6
Continuous
 62
     7
370
    15
100
AcDbLine
 10
61.5051440432
 20
139.3427959621
 30
0.0
 11
61.2924698432
 21
139.8562442621
 31
0.0
  0
LINE
  5
2AE
330
1F
100
AcDbEntity
  8
0
  6
Continuous
 62
     7
370
    15
100
AcDbLine
 10
61.5077653232
 20
139.3436621021
 30
0.0
 11
61.5051440432
 21
139.3427959621
 31
0.0
  0
LINE
  5
2AF
330
1F
100
AcDbEntity
  8
0
  6
Continuous
 62
     7
370
    15
100
AcDbLine
 10
61.5086873432
 20
139.3442818621
 30
0.0
 11
61.5076484832
 21
139.3439186421
 31
0.0
  0
LINE
  5
2B0
330
1F
100
AcDbEntity
  8
0
  6
Continuous
 62
     7
370
    15
100
AcDbLine
 10
61.5284841032
 20
139.2964790621
 30
0.0
 11
61.5086873432
 21
139.3442818621
 31
0.0
  0
LINE
  5
2B1
330
1F
100
AcDbEntity
  8
0
  6
Continuous
 62
     7
370
    15
100
AcDbLine
 10
61.5521518232
 20
139.1167131021
 30
0.0
 11
61.5284841032
 21
139.2964790621
 31
0.0
  0
LINE
  5
2B2
330
1F
100
AcDbEntity
  8
0
  6
Continuous
 62
     7
370
    15
100
AcDbLine
 10
61.5284841032
 20
138.9369471421
 30
0.0
 11
61.5521518232
 21
139.1167131021
 31
0.0
  0
LINE
  5
2B3
330
1F
100
AcDbEntity
  8
0
  6
Continuous
 62
     7
370
    15
100
AcDbLine
 10
61.4590989232
 20
138.7694341421
 30
0.0
 11
61.5284841032
 21
138.9369471421
 31
0.0
  0
LINE
  5
2B4
330
1F
100
AcDbEntity
  8
0
  6
Continuous
 62
     7
370
    15
100
AcDbLine
 10
61.3996654632
 20
138.6919768421
 30
0.0
 11
61.4590989232
 21
138.7694341421
 31
0.0
  0
LINE
  5
2B5
330
1F
100
AcDbEntity
  8
0
  6
Continuous
 62
     7
370
    15
100
AcDbLine
 10
61.3988755232
 20
138.6925966021
 30
0.0
 11
61.3996654632
 21
138.6919768421
 31
0.0
  0
LINE
  5
2B6
330
1F
100
AcDbEntity
  8
0
  6
Continuous
 62
     7
370
    15
100
AcDbLine
 10
61.3956751232
 20
138.6848750021
 30
0.0
 11
61.3988755232
 21
138.6925966021
 31
0.0
  0
LINE
  5
2B7
330
1F
100
AcDbEntity
  8
0
  6
Continuous
 62
     7
370
    15
100
AcDbLine
 10
61.2865770432
 20
138.5757337421
 30
0.0
 11
61.3956751232
 21
138.6848750021
 31
0.0
  0
LINE
  5
2B8
330
1F
100
AcDbEntity
  8
0
  6
Continuous
 62
     7
370
    15
100
AcDbLine
 10
61.2850987632
 20
138.5772120221
 30
0.0
 11
61.2865770432
 21
138.5757337421
 31
0.0
  0
LINE
  5
2B9
330
1F
100
AcDbEntity
  8
0
  6
Continuous
 62
     7
370
    15
100
AcDbLine
 10
61.2823682632
 20
138.5706207221
 30
0.0
 11
61.2850987632
 21
138.5772120221
 31
0.0
  0
LINE
  5
2BA
330
1F
100
AcDbEntity
  8
0
  6
Continuous
 62
     7
370
    15
100
AcDbLine
 10
61.2132980432
 20
138.4806056621
 30
0.0
 11
61.2823885832
 21
138.5706486621
 31
0.0
  0
LINE
  5
2BB
330
1F
100
AcDbEntity
  8
0
  6
Continuous
 62
     7
370
    15
100
AcDbLine
 10
61.1402070032
 20
138.3041493221
 30
0.0
 11
61.2132980432
 21
138.4806056621
 31
0.0
  0
LINE
  5
2BC
330
1F
100
AcDbEntity
  8
0
  6
Continuous
 62
     7
370
    15
100
AcDbLine
 10
61.1152769032
 20
138.1147872421
 30
0.0
 11
61.1402070032
 21
138.3041493221
 31
0.0
  0
LINE
  5
2BD
330
1F
100
AcDbEntity
  8
0
  6
Continuous
 62
     7
370
    15
100
AcDbLine
 10
61.1402070032
 20
137.9254251621
 30
0.0
 11
61.1152769032
 21
138.1147872421
 31
0.0
  0
LINE
  5
2BE
330
1F
100
AcDbEntity
  8
0
  6
Continuous
 62
     7
370
    15
100
AcDbLine
 10
61.2132980432
 20
137.7489688221
 30
0.0
 11
61.1402070032
 21
137.9254251621
 31
0.0
  0
LINE
  5
2BF
330
1F
100
AcDbEntity
  8
0
  6
Continuous
 62
     7
370
    15
100
AcDbLine
 10
61.2886446032
 20
137.6507724221
 30
0.0
 11
61.2132980432
 21
137.7489688221
 31
0.0
  0
LINE
  5
2C0
330
1F
100
AcDbEntity
  8
0
  6
Continuous
 62
     7
370
    15
100
AcDbLine
 10
61.2891627632
 20
137.6479250821
 30
0.0
 11
61.2881493032
 21
137.6503634821
 31
0.0
  0
LINE
  5
2C1
330
1F
100
AcDbEntity
  8
0
  6
Continuous
 62
     7
370
    15
100
AcDbLine
 10
61.2935442632
 20
137.6461089821
 30
0.0
 11
61.2891627632
 21
137.6479250821
 31
0.0
  0
LINE
  5
2C2
330
1F
100
AcDbEntity
  8
0
  6
Continuous
 62
     7
370
    15
100
AcDbLine
 10
63.0383896432
 20
135.9021653021
 30
0.0
 11
61.2935442632
 21
137.6461089821
 31
0.0
  0
LINE
  5
2C3
330
1F
100
AcDbEntity
  8
0
  6
Continuous
 62
     7
370
    15
100
AcDbLine
 10
63.0370104232
 20
135.9007556021
 30
0.0
 11
63.0383896432
 21
135.9021653021
 31
0.0
  0
LINE
  5
2C4
330
1F
100
AcDbEntity
  8
0
  6
Continuous
 62
     7
370
    15
100
AcDbLine
 10
63.0404851432
 20
135.8993179621
 30
0.0
 11
63.0370104232
 21
135.9007556021
 31
0.0
  0
LINE
  5
2C5
330
1F
100
AcDbEntity
  8
0
  6
Continuous
 62
     7
370
    15
100
AcDbLine
 10
63.0377140032
 20
135.8968338421
 30
0.0
 11
63.0403947019
 21
135.8994120004
 31
0.0
  0
LINE
  5
2C6
330
1F
100
AcDbEntity
  8
0
  6
Continuous
 62
   144
370
     0
100
AcDbLine
 10
79.1465895832
 20
150.1286265621
 30
0.0
 11
79.1387790832
 21
150.1359290621
 31
0.0
  0
ENDSEC
  0
SECTION
  2
OBJECTS
  0
DICTIONARY
  5
C
330
0
100
AcDbDictionary
281
     1
  3
ACAD_GROUP
350
D
  3
ACAD_LAYOUT
350
1A
  3
ACAD_MLINESTYLE
350
17
  3
ACAD_PLOTSETTINGS
350
19
  3
ACAD_PLOTSTYLENAME
350
E
  3
ACAD_SCALELIST
350
47
  0
DICTIONARY
  5
D
102
{ACAD_REACTORS
330
C
102
}
330
C
100
AcDbDictionary
281
     1
  0
DICTIONARY
  5
1A
102
{ACAD_REACTORS
330
C
102
}
330
C
100
AcDbDictionary
281
     1
  3
Layout1
350
1E
  3
Layout2
350
26
  3
Model
350
22
  0
DICTIONARY
  5
17
102
{ACAD_REACTORS
330
C
102
}
330
C
100
AcDbDictionary
281
     1
  3
Standard
350
18
  0
DICTIONARY
  5
19
102
{ACAD_REACTORS
330
C
102
}
330
C
100
AcDbDictionary
281
     1
  0
ACDBDICTIONARYWDFLT
  5
E
102
{ACAD_REACTORS
330
C
102
}
330
C
100
AcDbDictionary
281
     1
  3
Normal
350
F
100
AcDbDictionaryWithDefault
340
F
  0
DICTIONARY
  5
47
102
{ACAD_REACTORS
330
C
102
}
330
C
100
AcDbDictionary
281
     1
  3
A0
350
48
  3
A1
350
49
  3
A2
350
4A
  3
A3
350
4B
  3
A4
350
4C
  3
A5
350
4D
  3
A6
350
4E
  3
A7
350
4F
  3
A8
350
50
  3
A9
350
51
  3
B0
350
52
  3
B1
350
53
  3
B2
350
54
  3
B3
350
55
  3
B4
350
56
  3
B5
350
57
  3
B6
350
58
  3
B7
350
59
  3
B8
350
5A
  3
B9
350
5B
  3
C0
350
5C
  3
C1
350
5D
  3
C2
350
5E
  3
C3
350
5F
  3
C4
350
60
  3
C5
350
61
  3
C6
350
62
  3
C7
350
63
  3
C8
350
64
  3
C9
350
65
  3
D0
350
66
  3
D1
350
67
  3
D2
350
68
  0
LAYOUT
  5
1E
102
{ACAD_REACTORS
330
1A
102
}
330
1A
100
AcDbPlotSettings
  1

  2
none_device
  4

  6

 40
0.0
 41
0.0
 42
0.0
 43
0.0
 44
0.0
 45
0.0
 46
0.0
 47
0.0
 48
0.0
 49
0.0
140
0.0
141
0.0
142
1.0
143
1.0
 70
   688
 72
     1
 73
     0
 74
     5
  7

 75
    16
147
1.0
148
0.0
149
0.0
100
AcDbLayout
  1
Layout1
 70
     1
 71
     1
 10
0.0
 20
0.0
 11
420.0
 21
297.0
 12
0.0
 22
0.0
 32
0.0
 14
1.0000000000E+20
 24
1.0000000000E+20
 34
1.0000000000E+20
 15
-1.0000000000E+20
 25
-1.0000000000E+20
 35
-1.0000000000E+20
146
0.0
 13
0.0
 23
0.0
 33
0.0
 16
1.0
 26
0.0
 36
0.0
 17
0.0
 27
1.0
 37
0.0
 76
     0
330
1B
  0
LAYOUT
  5
26
102
{ACAD_REACTORS
330
1A
102
}
330
1A
100
AcDbPlotSettings
  1

  2
none_device
  4

  6

 40
0.0
 41
0.0
 42
0.0
 43
0.0
 44
0.0
 45
0.0
 46
0.0
 47
0.0
 48
0.0
 49
0.0
140
0.0
141
0.0
142
1.0
143
1.0
 70
   688
 72
     1
 73
     0
 74
     5
  7

 75
    16
147
1.0
148
0.0
149
0.0
100
AcDbLayout
  1
Layout2
 70
     1
 71
     2
 10
0.0
 20
0.0
 11
0.0
 21
0.0
 12
0.0
 22
0.0
 32
0.0
 14
0.0
 24
0.0
 34
0.0
 15
0.0
 25
0.0
 35
0.0
146
0.0
 13
0.0
 23
0.0
 33
0.0
 16
1.0
 26
0.0
 36
0.0
 17
0.0
 27
1.0
 37
0.0
 76
     0
330
23
  0
LAYOUT
  5
22
102
{ACAD_REACTORS
330
1A
102
}
330
1A
100
AcDbPlotSettings
  1

  2
none_device
  4
Letter_(8.50_x_11.00_Inches)
  6

 40
6.35
 41
6.35
 42
6.35000508
 43
6.35000508
 44
215.9
 45
279.4
 46
0.0
 47
0.0
 48
0.0
 49
0.0
140
0.0
141
0.0
142
1.0
143
1.0
 70
  1712
 72
     1
 73
     0
 74
     0
  7

 75
     0
147
1.0
148
0.0
149
0.0
100
AcDbLayout
  1
Model
 70
     1
 71
     0
 10
0.0
 20
0.0
 11
210.0
 21
297.0
 12
0.0
 22
0.0
 32
0.0
 14
0.0
 24
0.0
 34
0.0
 15
210.0
 25
297.0
 35
0.0
146
0.0
 13
0.0
 23
0.0
 33
0.0
 16
1.0
 26
0.0
 36
0.0
 17
0.0
 27
1.0
 37
0.0
 76
     0
330
1F
331
29
  0
MLINESTYLE
  5
18
102
{ACAD_REACTORS
330
17
102
}
330
17
100
AcDbMlineStyle
  2
Standard
 70
     0
  3

 62
   256
 51
90.0
 52
90.0
 71
     2
 49
0.5
 62
   256
  6
BYLAYER
 49
-0.5
 62
   256
  6
BYLAYER
  0
ACDBPLACEHOLDER
  5
F
102
{ACAD_REACTORS
330
E
102
}
330
E
  0
SCALE
  5
48
102
{ACAD_REACTORS
330
47
102
}
330
47
100
AcDbScale
 70
     0
300
1:1
140
1.0
141
1.0
290
     1
  0
SCALE
  5
49
102
{ACAD_REACTORS
330
47
102
}
330
47
100
AcDbScale
 70
     0
300
1:2
140
1.0
141
2.0
290
     0
  0
SCALE
  5
4A
102
{ACAD_REACTORS
330
47
102
}
330
47
100
AcDbScale
 70
     0
300
1:4
140
1.0
141
4.0
290
     0
  0
SCALE
  5
4B
102
{ACAD_REACTORS
330
47
102
}
330
47
100
AcDbScale
 70
     0
300
1:5
140
1.0
141
5.0
290
     0
  0
SCALE
  5
4C
102
{ACAD_REACTORS
330
47
102
}
330
47
100
AcDbScale
 70
     0
300
1:8
140
1.0
141
8.0
290
     0
  0
SCALE
  5
4D
102
{ACAD_REACTORS
330
47
102
}
330
47
100
AcDbScale
 70
     0
300
1:10
140
1.0
141
10.0
290
     0
  0
SCALE
  5
4E
102
{ACAD_REACTORS
330
47
102
}
330
47
100
AcDbScale
 70
     0
300
1:16
140
1.0
141
16.0
290
     0
  0
SCALE
  5
4F
102
{ACAD_REACTORS
330
47
102
}
330
47
100
AcDbScale
 70
     0
300
1:20
140
1.0
141
20.0
290
     0
  0
SCALE
  5
50
102
{ACAD_REACTORS
330
47
102
}
330
47
100
AcDbScale
 70
     0
300
1:30
140
1.0
141
30.0
290
     0
  0
SCALE
  5
51
102
{ACAD_REACTORS
330
47
102
}
330
47
100
AcDbScale
 70
     0
300
1:40
140
1.0
141
40.0
290
     0
  0
SCALE
  5
52
102
{ACAD_REACTORS
330
47
102
}
330
47
100
AcDbScale
 70
     0
300
1:50
140
1.0
141
50.0
290
     0
  0
SCALE
  5
53
102
{ACAD_REACTORS
330
47
102
}
330
47
100
AcDbScale
 70
     0
300
1:100
140
1.0
141
100.0
290
     0
  0
SCALE
  5
54
102
{ACAD_REACTORS
330
47
102
}
330
47
100
AcDbScale
 70
     0
300
2:1
140
2.0
141
1.0
290
     0
  0
SCALE
  5
55
102
{ACAD_REACTORS
330
47
102
}
330
47
100
AcDbScale
 70
     0
300
4:1
140
4.0
141
1.0
290
     0
  0
SCALE
  5
56
102
{ACAD_REACTORS
330
47
102
}
330
47
100
AcDbScale
 70
     0
300
8:1
140
8.0
141
1.0
290
     0
  0
SCALE
  5
57
102
{ACAD_REACTORS
330
47
102
}
330
47
100
AcDbScale
 70
     0
300
10:1
140
10.0
141
1.0
290
     0
  0
SCALE
  5
58
102
{ACAD_REACTORS
330
47
102
}
330
47
100
AcDbScale
 70
     0
300
100:1
140
100.0
141
1.0
290
     0
  0
SCALE
  5
59
102
{ACAD_REACTORS
330
47
102
}
330
47
100
AcDbScale
 70
     0
300
1/128" = 1'-0"
140
0.0078125
141
12.0
290
     0
  0
SCALE
  5
5A
102
{ACAD_REACTORS
330
47
102
}
330
47
100
AcDbScale
 70
     0
300
1/64" = 1'-0"
140
0.015625
141
12.0
290
     0
  0
SCALE
  5
5B
102
{ACAD_REACTORS
330
47
102
}
330
47
100
AcDbScale
 70
     0
300
1/32" = 1'-0"
140
0.03125
141
12.0
290
     0
  0
SCALE
  5
5C
102
{ACAD_REACTORS
330
47
102
}
330
47
100
AcDbScale
 70
     0
300
1/16" = 1'-0"
140
0.0625
141
12.0
290
     0
  0
SCALE
  5
5D
102
{ACAD_REACTORS
330
47
102
}
330
47
100
AcDbScale
 70
     0
300
3/32" = 1'-0"
140
0.09375
141
12.0
290
     0
  0
SCALE
  5
5E
102
{ACAD_REACTORS
330
47
102
}
330
47
100
AcDbScale
 70
     0
300
1/8" = 1'-0"
140
0.125
141
12.0
290
     0
  0
SCALE
  5
5F
102
{ACAD_REACTORS
330
47
102
}
330
47
100
AcDbScale
 70
     0
300
3/16" = 1'-0"
140
0.1875
141
12.0
290
     0
  0
SCALE
  5
60
102
{ACAD_REACTORS
330
47
102
}
330
47
100
AcDbScale
 70
     0
300
1/4" = 1'-0"
140
0.25
141
12.0
290
     0
  0
SCALE
  5
61
102
{ACAD_REACTORS
330
47
102
}
330
47
100
AcDbScale
 70
     0
300
3/8" = 1'-0"
140
0.375
141
12.0
290
     0
  0
SCALE
  5
62
102
{ACAD_REACTORS
330
47
102
}
330
47
100
AcDbScale
 70
     0
300
1/2" = 1'-0"
140
0.5
141
12.0
290
     0
  0
SCALE
  5
63
102
{ACAD_REACTORS
330
47
102
}
330
47
100
AcDbScale
 70
     0
300
3/4" = 1'-0"
140
0.75
141
12.0
290
     0
  0
SCALE
  5
64
102
{ACAD_REACTORS
330
47
102
}
330
47
100
AcDbScale
 70
     0
300
1" = 1'-0"
140
1.0
141
12.0
290
     0
  0
SCALE
  5
65
102
{ACAD_REACTORS
330
47
102
}
330
47
100
AcDbScale
 70
     0
300
1-1/2" = 1'-0"
140
1.5
141
12.0
290
     0
  0
SCALE
  5
66
102
{ACAD_REACTORS
330
47
102
}
330
47
100
AcDbScale
 70
     0
300
3" = 1'-0"
140
3.0
141
12.0
290
     0
  0
SCALE
  5
67
102
{ACAD_REACTORS
330
47
102
}
330
47
100
AcDbScale
 70
     0
300
6" = 1'-0"
140
6.0
141
12.0
290
     0
  0
SCALE
  5
68
102
{ACAD_REACTORS
330
47
102
}
330
47
100
AcDbScale
 70
     0
300
1'-0" = 1'-0"
140
12.0
141
12.0
290
     0
  0
ENDSEC
  0
EOF
